<svg width="73" height="73" viewBox="0 0 73 73" fill="none" xmlns="http://www.w3.org/2000/svg">
<path d="M72.9999 42.398C72.9999 38.3042 70.6683 34.7216 67.1649 32.9921V14.6505C67.1649 6.92852 60.883 0.646606 53.1611 0.646606C45.4391 0.646606 39.1572 6.92852 39.1572 14.6505V16.0299C37.6809 15.7778 36.1463 15.751 34.6036 15.9902C34.5207 16.003 34.439 16.0252 34.3562 16.0392C34.4367 15.5818 34.4892 15.1196 34.4892 14.6505V9.98253C34.4892 8.13635 33.0538 6.61926 31.2391 6.49089C28.8795 2.86856 24.8195 0.646606 20.4853 0.646606C13.4075 0.646606 7.64843 6.4057 7.64843 13.4835V14.6505C7.64843 17.3171 8.97996 19.8074 11.1494 21.3268V21.3934C11.1494 24.3342 12.5194 26.9576 14.6504 28.6695V31.1681L9.42342 32.0387C4.33768 32.8847 0.646484 37.2423 0.646484 42.398V51.9942H21.2882C17.3146 53.5545 14.6504 57.3693 14.6504 61.7549V73H58.996V61.7549C58.996 57.3693 56.3318 53.5545 52.3582 51.9942H72.9999V42.398ZM41.4912 14.6505C41.4912 8.21571 46.7263 2.98059 53.1611 2.98059C59.5958 2.98059 64.831 8.21571 64.831 14.6505V32.167C64.6291 32.1215 64.4295 32.0725 64.223 32.0375L58.996 31.1669V28.6684C61.1269 26.9552 62.497 24.333 62.497 21.3922L62.4888 13.9981L60.834 14.7602C60.8107 14.7719 58.479 15.8175 53.1611 15.8175C47.8431 15.8175 45.5114 14.7719 45.4974 14.766L43.8251 13.9643V17.7068C43.0841 17.2786 42.2999 16.9273 41.4912 16.6402V14.6505ZM48.9809 22.8918C48.2224 21.5602 47.2619 20.3944 46.1591 19.406V17.4163C47.5467 17.7652 49.8351 18.1515 53.1611 18.1515C56.487 18.1515 58.7754 17.7652 60.163 17.4163V21.3922C60.163 25.2538 57.0226 28.3941 53.1611 28.3941C52.7701 28.3941 52.3815 28.351 51.9941 28.2844V26.5655C51.9941 24.7508 50.6975 23.2349 48.9809 22.8918ZM50.9788 35.9224C51.6276 34.3715 51.9941 32.7003 51.9941 30.9884V30.6441C52.3815 30.6931 52.7713 30.7293 53.1611 30.7293C54.3992 30.7293 55.5802 30.4819 56.662 30.0419V31.9675L53.1611 42.4704L50.9788 35.9224ZM51.0745 43.5907L47.8781 40.3943C48.4534 39.8598 48.9634 39.2705 49.4267 38.6462L51.0745 43.5907ZM58.6214 33.4694L60.4653 33.7763L61.2296 37.6064L55.2476 43.5895L58.6214 33.4694ZM34.9583 18.2962C39.9892 17.5166 44.9058 20.0222 47.2071 24.5174L47.5338 25.1534H48.2469C49.0264 25.1534 49.6601 25.7871 49.6601 26.5655V30.9884C49.6601 33.397 48.8105 35.7217 47.3249 37.5725L47.3191 30.413L45.7063 31.0794C45.6806 31.0911 43.0304 32.1553 36.8232 32.1553C30.616 32.1553 27.9657 31.0911 27.9471 31.0829L26.3203 30.3862V34.8639C25.3762 32.9022 24.9806 30.6954 25.2291 28.4735C25.801 23.3574 29.8924 19.0781 34.9583 18.2962ZM23.7867 34.8581C24.0505 35.5396 24.3562 36.2048 24.725 36.8396L22.6664 35.6038L23.7867 34.8581ZM20.5262 34.2268L16.9844 31.5719V30.0408C18.0662 30.4807 19.2471 30.7281 20.4853 30.7281C21.2929 30.7281 22.0841 30.6126 22.8555 30.4072C22.887 31.1167 22.9628 31.8204 23.0994 32.5113L20.5262 34.2268ZM25.2852 39.896L26.4288 40.5822C26.7731 43.1052 28.0136 45.34 29.8212 46.9633V49.6602H25.0167L24.0306 41.7772L25.2852 39.896ZM30.7 52.0922L34.7833 55.3586L31.3418 57.4242L28.1758 52.6745L30.7 52.0922ZM32.1552 50.2659V48.5516C33.5638 49.2541 35.1451 49.6602 36.8232 49.6602C38.5013 49.6602 40.0826 49.2553 41.4912 48.5516V50.2659L36.8232 54.0002L32.1552 50.2659ZM42.9464 52.091L45.4706 52.6734L42.3045 57.423L38.8631 55.3575L42.9464 52.091ZM36.8232 47.3262C32.3198 47.3262 28.6543 43.6607 28.6543 39.1573V33.7121C30.1795 34.068 32.8286 34.4893 36.8232 34.4893C40.8178 34.4893 43.4669 34.068 44.9921 33.7121V39.1573C44.9921 43.6607 41.3266 47.3262 36.8232 47.3262ZM11.1494 13.9643V18.134C10.4072 17.1409 9.98241 15.9225 9.98241 14.6505V13.4835C9.98241 7.69173 14.6935 2.98059 20.4853 2.98059C24.2127 2.98059 27.695 4.99365 29.5715 8.23321L29.9088 8.81554H30.9882C31.6324 8.81554 32.1552 9.33835 32.1552 9.98253V14.6505C32.1552 15.3822 32.0082 16.0952 31.7351 16.7814C31.0711 17.044 30.4316 17.3579 29.8189 17.7173L29.8142 13.9993L28.1595 14.7614C28.1349 14.7719 25.8033 15.8175 20.4853 15.8175C15.1673 15.8175 12.8357 14.7719 12.8217 14.766L11.1494 13.9643ZM13.4834 21.3922V17.4163C14.8709 17.7652 17.1594 18.1515 20.4853 18.1515C23.8112 18.1515 26.0997 17.7652 27.4873 17.4163V19.4176C25.0658 21.6034 23.397 24.6131 22.9535 27.932C22.16 28.2343 21.3337 28.3953 20.4853 28.3953C16.6238 28.3941 13.4834 25.2538 13.4834 21.3922ZM15.5163 33.3877L18.3964 35.5478L15.0506 37.5562L12.8194 33.8382L15.5163 33.3877ZM15.9539 49.6602H9.98241V46.1592H7.64843V49.6602H2.98047V42.398C2.98047 38.3871 5.85126 34.9981 9.80619 34.34L10.3453 34.2501L14.2501 40.7584L15.6855 39.8972L16.9388 41.7772L15.9539 49.6602ZM18.3054 49.6602L19.3615 41.2054L17.688 38.6952L20.4853 37.017L23.2814 38.694L21.608 41.2042L22.6641 49.6602H18.3054ZM32.2778 70.666H23.9863V64.8311H21.6523V70.666H16.9844V61.7549C16.9844 57.9283 19.5879 54.6549 23.3164 53.796L25.7449 53.2359L30.6346 60.5692L32.0234 59.736L33.2825 61.6242L32.2778 70.666ZM39.0206 70.666H34.6269L35.697 61.036L34.0282 58.5328L36.8232 56.8559L39.6193 58.5328L37.9505 61.036L39.0206 70.666ZM56.662 61.7549V70.666H51.9941V64.8311H49.6601V70.666H41.3686L40.3638 61.6242L41.623 59.736L43.0117 60.5692L47.9014 53.2359L50.3299 53.796C54.0585 54.6549 56.662 57.9283 56.662 61.7549ZM70.6659 49.6602H65.998V46.1592H63.664V49.6602H43.8251V46.9633C45.1427 45.78 46.1591 44.2722 46.7484 42.5626L53.1611 48.9764L63.7643 38.3742L62.9264 34.1871L63.8402 34.34C67.7951 34.9993 70.6659 38.3882 70.6659 42.398V49.6602Z" fill="#178F73"/>
</svg>
