<svg width="73" height="72" viewBox="0 0 73 72" fill="none" xmlns="http://www.w3.org/2000/svg">
<path d="M3.33652 61.2V12H63.3366V20.4H65.7366V3.6C65.7366 1.61191 64.1246 0 62.1366 0H4.53653C2.54844 0 0.936523 1.61191 0.936523 3.6V61.2C0.936523 63.1881 2.54844 64.8 4.53653 64.8H34.5365V62.4H4.53653C3.87383 62.4 3.33652 61.8627 3.33652 61.2ZM4.53653 2.4H62.1366C62.7993 2.4 63.3366 2.93731 63.3366 3.6V9.60001H3.33652V3.6C3.33652 2.93731 3.87383 2.4 4.53653 2.4Z" fill="#188E74"/>
<path d="M8.13672 4.80002H10.5367V7.20002H8.13672V4.80002Z" fill="#188E74"/>
<path d="M12.9355 4.80002H15.3355V7.20002H12.9355V4.80002Z" fill="#188E74"/>
<path d="M17.7363 4.80002H20.1363V7.20002H17.7363V4.80002Z" fill="#188E74"/>
<path d="M8.13672 16.8H10.5367V19.2H8.13672V16.8Z" fill="#188E74"/>
<path d="M12.9355 16.8H15.3355V19.2H12.9355V16.8Z" fill="#188E74"/>
<path d="M17.7363 16.8H20.1363V19.2H17.7363V16.8Z" fill="#188E74"/>
<path d="M22.5361 16.8H24.9361V19.2H22.5361V16.8Z" fill="#188E74"/>
<path d="M27.3359 4.80002H53.736V7.20002H27.3359V4.80002Z" fill="#188E74"/>
<path d="M46.5361 16.8H48.9361V21.6H46.5361V16.8Z" fill="#188E74"/>
<path d="M61.3125 26.7258L64.7068 23.332L66.4037 25.0289L63.0094 28.4232L61.3125 26.7258Z" fill="#188E74"/>
<path d="M68.1357 40.8H72.9357V43.2H68.1357V40.8Z" fill="#188E74"/>
<path d="M61.3125 57.273L63.0094 55.5762L66.4037 58.9699L64.7068 60.6668L61.3125 57.273Z" fill="#188E74"/>
<path d="M29.0684 58.9699L32.4627 55.5756L34.1596 57.2731L30.7658 60.6668L29.0684 58.9699Z" fill="#188E74"/>
<path d="M22.5361 40.8H27.3361V43.2H22.5361V40.8Z" fill="#188E74"/>
<path d="M29.0684 25.0289L30.7658 23.332L34.1596 26.7258L32.4627 28.4232L29.0684 25.0289Z" fill="#188E74"/>
<path d="M65.7367 42C65.7361 33.5608 59.872 26.2547 51.6326 24.4277C43.3931 22.6014 34.9908 26.7445 31.4236 34.3928C27.8564 42.0416 30.0824 51.1412 36.7773 56.2799C36.0097 57.0528 35.6359 58.1326 35.7607 59.2143C35.8849 60.2965 36.4949 61.2627 37.4177 61.841C36.874 62.7762 36.7867 63.9082 37.1798 64.916C37.5736 65.9239 38.405 66.6973 39.4386 67.0166C39.9326 69.8901 42.4211 71.9924 45.3367 72H50.1367C53.0541 71.9918 55.5431 69.8866 56.0347 67.0102C57.0683 66.6914 57.9004 65.918 58.2941 64.9102C58.6879 63.9024 58.6006 62.7703 58.0568 61.8346C58.9797 61.2569 59.5896 60.2901 59.7138 59.2084C59.8386 58.1268 59.4648 57.0469 58.6972 56.274C63.1527 52.8832 65.7584 47.5986 65.7367 42ZM56.1367 57.6C56.7994 57.6 57.3367 58.1373 57.3367 58.8C57.3367 59.4627 56.7994 60 56.1367 60H39.3367C38.674 60 38.1367 59.4627 38.1367 58.8C38.1367 58.1373 38.674 57.6 39.3367 57.6H56.1367ZM50.1367 69.6H45.3367C43.8168 69.5936 42.4644 68.6332 41.9576 67.2H53.5158C53.0089 68.6332 51.6566 69.5936 50.1367 69.6ZM54.9367 64.8H40.5367C39.874 64.8 39.3367 64.2627 39.3367 63.6C39.3367 62.9373 39.874 62.4 40.5367 62.4H54.9367C55.5994 62.4 56.1367 62.9373 56.1367 63.6C56.1367 64.2627 55.5994 64.8 54.9367 64.8ZM56.0224 55.2H48.9367V44.4H52.5367C54.5248 44.4 56.1367 42.7881 56.1367 40.8C56.1367 38.8119 54.5248 37.2 52.5367 37.2C50.5486 37.2 48.9367 38.8119 48.9367 40.8H51.3367C51.3367 40.1373 51.874 39.6 52.5367 39.6C53.1994 39.6 53.7367 40.1373 53.7367 40.8C53.7367 41.4627 53.1994 42 52.5367 42H42.9367C42.274 42 41.7367 41.4627 41.7367 40.8C41.7367 40.1373 42.274 39.6 42.9367 39.6C43.5994 39.6 44.1367 40.1373 44.1367 40.8H46.5367C46.5367 38.8119 44.9248 37.2 42.9367 37.2C40.9486 37.2 39.3367 38.8119 39.3367 40.8C39.3367 42.7881 40.9486 44.4 42.9367 44.4H46.5367V55.2H39.4568C33.5634 51.5057 30.8283 44.3561 32.7502 37.6717C34.672 30.9873 40.7875 26.3824 47.7425 26.3824C54.6982 26.3824 60.8131 30.9873 62.7355 37.6717C64.6574 44.3561 61.9216 51.5057 56.0289 55.2H56.0224Z" fill="#188E74"/>
<path d="M8.13672 21.6H24.9367V24H8.13672V21.6Z" fill="#188E74"/>
<path d="M8.13672 26.4H24.9367V28.8H8.13672V26.4Z" fill="#188E74"/>
<path d="M8.13672 31.2H24.9367V33.6H8.13672V31.2Z" fill="#188E74"/>
</svg>
