<svg width="69" height="69" viewBox="0 0 69 69" fill="none" xmlns="http://www.w3.org/2000/svg">
<path d="M46.7387 42.5851C46.0016 42.5851 45.4038 43.1828 45.4038 43.9201V53.1313C45.4038 56.8117 42.4095 59.806 38.729 59.806H24.3158C23.5788 59.806 22.9814 60.4032 22.9808 61.14L22.979 63.7942L19.7927 60.6081C19.5864 60.1346 19.1144 59.806 18.5684 59.806H9.894C6.21353 59.806 3.21923 56.8117 3.21923 53.1313V32.573C3.21923 28.8925 6.21353 25.8982 9.894 25.8982H23.377C24.1142 25.8982 24.712 25.3005 24.712 24.5632C24.712 23.8259 24.1142 23.2283 23.377 23.2283H9.894C4.74134 23.2283 0.549316 27.4203 0.549316 32.573V53.1313C0.549316 58.2839 4.74134 62.4759 9.894 62.4759H17.8848L23.3676 67.9587C23.6229 68.2141 23.9643 68.3497 24.3118 68.3497C24.4836 68.3497 24.657 68.3165 24.8219 68.2483C25.3207 68.0419 25.6461 67.5554 25.6465 67.0157L25.6497 62.4759H38.729C43.8817 62.4759 48.0737 58.2839 48.0737 53.1313V43.9201C48.0737 43.1828 47.4759 42.5851 46.7387 42.5851Z" fill="#188E74"/>
<path d="M49.4961 0H46.1174C35.4186 0 26.7144 8.70417 26.7144 19.403C26.7144 30.1019 35.4186 38.8059 46.1173 38.8059H49.496C51.1658 38.8059 52.8187 38.5938 54.4206 38.1746L59.4116 43.1628C59.667 43.4179 60.0082 43.5536 60.3555 43.5536C60.5276 43.5536 60.7012 43.5203 60.8663 43.4518C61.365 43.2452 61.6902 42.7585 61.6902 42.2186V34.4951C63.8033 32.7838 65.5587 30.6221 66.7906 28.2072C68.1897 25.4644 68.899 22.5023 68.899 19.403C68.899 8.70417 60.1948 0 49.4961 0ZM59.552 32.7778C59.2174 33.03 59.0203 33.4249 59.0203 33.8442V38.9971L55.7535 35.7321C55.4994 35.4782 55.1584 35.3413 54.8097 35.3413C54.6789 35.3413 54.5468 35.3607 54.4178 35.4003C52.8288 35.8887 51.1729 36.1362 49.4961 36.1362H46.1174C36.8906 36.1362 29.3843 28.6297 29.3843 19.403C29.3843 10.1764 36.8908 2.66991 46.1174 2.66991H49.4961C58.7228 2.66991 66.2291 10.1764 66.2291 19.403C66.2291 24.7069 63.7955 29.5819 59.552 32.7778Z" fill="#188E74"/>
<path d="M53.8184 14.6072C53.6258 11.8125 51.3729 9.55965 48.578 9.36701C46.9937 9.25821 45.4818 9.7926 44.3245 10.873C43.1831 11.9384 42.5286 13.4445 42.5286 15.0052C42.5286 15.7425 43.1264 16.3401 43.8635 16.3401C44.6007 16.3401 45.1985 15.7425 45.1985 15.0052C45.1985 14.1696 45.5352 13.3952 46.1463 12.8248C46.7569 12.2549 47.5549 11.9728 48.3946 12.0308C49.8668 12.1322 51.0534 13.3189 51.1549 14.7909C51.2574 16.2777 50.282 17.5915 48.8357 17.9151C47.6639 18.1773 46.8455 19.1956 46.8455 20.3913V23.5986C46.8455 24.3359 47.4433 24.9335 48.1805 24.9335C48.9178 24.9335 49.5155 24.3359 49.5153 23.5986V20.498C52.2053 19.8481 54.01 17.3868 53.8184 14.6072Z" fill="#188E74"/>
<path d="M49.1243 27.9353C48.876 27.687 48.5316 27.5441 48.1805 27.5441C47.8294 27.5441 47.485 27.687 47.2367 27.9353C46.9884 28.1836 46.8455 28.528 46.8455 28.8791C46.8455 29.2315 46.9885 29.5759 47.2367 29.8242C47.485 30.0725 47.8294 30.214 48.1805 30.214C48.5316 30.214 48.876 30.0725 49.1243 29.8242C49.3726 29.5746 49.5154 29.2315 49.5154 28.8791C49.5154 28.528 49.3725 28.1836 49.1243 27.9353Z" fill="#188E74"/>
<path d="M37.2606 41.3836H9.09301C8.35585 41.3836 7.75806 41.9813 7.75806 42.7186C7.75806 43.4559 8.35585 44.0535 9.09301 44.0535H37.2606C37.9979 44.0535 38.5955 43.4559 38.5955 42.7186C38.5955 41.9813 37.9977 41.3836 37.2606 41.3836Z" fill="#188E74"/>
<path d="M36.9866 48.8594H9.36696C8.47853 48.8594 7.75806 49.457 7.75806 50.1943C7.75806 50.9316 8.47853 51.5293 9.36696 51.5293H36.9866C37.8752 51.5293 38.5955 50.9316 38.5955 50.1943C38.5955 49.457 37.875 48.8594 36.9866 48.8594Z" fill="#188E74"/>
<path d="M28.5833 33.9079H9.09301C8.35585 33.9079 7.75806 34.5056 7.75806 35.2429C7.75806 35.9801 8.35585 36.5778 9.09301 36.5778H28.5833C29.3206 36.5778 29.9183 35.9801 29.9183 35.2429C29.9183 34.5056 29.3205 33.9079 28.5833 33.9079Z" fill="#188E74"/>
</svg>
