<svg width="64" height="70" viewBox="0 0 64 70" fill="none" xmlns="http://www.w3.org/2000/svg">
<path d="M14.6038 53.9855L22.1244 67.0125C23.7473 69.8266 27.398 70.8685 30.285 69.1995C33.1417 67.5486 34.1235 63.8985 32.4709 61.0395L27.9907 53.2785L31.8706 51.0384C32.5846 50.6254 32.8296 49.7124 32.4172 48.9984L30.4752 45.6348C30.7068 45.5898 32.2294 45.2912 59.0796 40.024C62.3989 39.8438 64.3876 36.2135 62.711 33.3113L57.7478 24.715L60.9195 19.911C61.231 19.4385 61.2497 18.8312 60.9668 18.3412L57.98 13.168C57.697 12.6779 57.1598 12.3909 56.5968 12.4242L50.8513 12.7689L45.3415 3.2252C44.5435 1.84264 43.1137 1.00553 41.5176 0.985691C41.4983 0.985107 41.4797 0.985107 41.4604 0.985107C39.918 0.985107 38.518 1.75281 37.6884 3.05078L18.1798 27.903L5.49698 35.2253C0.508684 38.1042 -1.21922 44.5036 1.67073 49.5053C4.31101 54.0789 9.87742 55.8779 14.6038 53.9855ZM29.8849 62.5335C30.7097 63.9604 30.2215 65.7863 28.7905 66.6129C27.3548 67.443 25.5266 66.9332 24.711 65.5197L17.2441 52.5849L22.4173 49.5981C31.0592 64.5682 29.746 62.2937 29.8849 62.5335ZM26.4973 50.6913L25.0039 48.1047L27.5905 46.6113L29.0839 49.1979L26.4973 50.6913ZM55.8548 15.4606L57.9187 19.0354L56.0782 21.8227L52.5209 15.6607L55.8548 15.4606ZM40.1864 4.68827C40.5871 4.03257 41.223 3.9649 41.4808 3.9719C41.7358 3.97482 42.3711 4.05416 42.7543 4.71802L60.1244 34.8047C60.6902 35.7842 60.0025 37.0156 58.8678 37.0436C58.6642 37.0483 58.5703 37.0851 58.0488 37.1825L39.6748 5.35738C40.0604 4.86152 40.11 4.81369 40.1864 4.68827ZM37.6873 7.88915L54.9506 37.7903L28.8966 42.9006L20.9746 29.1794L37.6873 7.88915ZM4.25734 48.0119C3.60165 46.8773 3.25513 45.5893 3.25513 44.286C3.25513 41.6224 4.6867 39.142 6.99038 37.8119L18.6301 31.0916L26.0971 44.0247L14.4574 50.7456C10.8913 52.8037 6.31602 51.5774 4.25734 48.0119Z" fill="#178F73"/>
<path d="M16.0971 44.625C15.6846 43.9109 14.7711 43.6659 14.0571 44.0784L11.4705 45.5718C10.7576 45.9836 9.84231 45.738 9.43046 45.0251C9.01803 44.3111 8.10449 44.0661 7.39046 44.4785C6.67643 44.891 6.43142 45.8045 6.84385 46.5185C8.07299 48.6478 10.8148 49.3986 12.9639 48.1584L15.5505 46.665C16.2645 46.2525 16.5095 45.3396 16.0971 44.625Z" fill="#178F73"/>
</svg>
