<svg width="67" height="69" viewBox="0 0 67 69" fill="none" xmlns="http://www.w3.org/2000/svg">
<path d="M22.5892 50.8293C22.5756 50.8256 22.5618 50.8227 22.5481 50.8194C23.8087 49.4118 24.577 47.5547 24.577 45.521V39.5497C24.577 36.0347 21.7174 33.175 18.2024 33.175H10.0217C9.27803 33.175 8.67493 33.778 8.67493 34.5218V45.521C8.67493 47.5547 9.44342 49.4118 10.7039 50.8194C10.6902 50.8227 10.6764 50.8256 10.6628 50.8295C4.84287 51.3656 0.269531 56.2731 0.269531 62.2306V67.6532C0.269531 68.3969 0.87263 69 1.61633 69H31.6359C32.3796 69 32.9827 68.3969 32.9827 67.6532V62.2304C32.9826 56.2729 28.4091 51.3655 22.5892 50.8293ZM16.6261 50.7786C13.7271 50.7786 11.3685 48.42 11.3685 45.521V43.1126C12.1016 43.5131 12.9417 43.7411 13.8344 43.7411H21.8836V45.521C21.8837 48.42 19.525 50.7786 16.6261 50.7786ZM18.9737 53.4722L16.6259 55.8199L14.2782 53.4722H18.9737ZM11.3684 35.8686H18.2025C20.2323 35.8686 21.8836 37.52 21.8836 39.5497V41.0475H13.8344C12.4747 41.0475 11.3684 39.9412 11.3684 38.5815V35.8686ZM2.96287 66.3064V62.2304C2.96287 57.7986 6.27237 54.1275 10.5494 53.5528L15.6735 58.6769C15.9365 58.9398 16.2811 59.0714 16.6258 59.0714C16.9704 59.0714 17.3151 58.9398 17.5781 58.6769L22.7023 53.5527C26.9792 54.1274 30.2888 57.7985 30.2888 62.2303V66.3064H2.96287Z" fill="#178F73"/>
<path d="M60.3463 51.8273C61.3821 50.8001 62.0248 49.3771 62.0248 47.8066V42.3306C62.0248 39.223 60.4671 36.4736 58.0929 34.8179C58.1145 34.722 58.1259 34.6228 58.1259 34.5218V31.3199C61.2745 30.9252 63.718 28.2315 63.718 24.9776V11.4813C63.718 7.95668 60.8505 5.08906 57.3258 5.08906H36.3872C32.8625 5.08906 29.995 7.95668 29.995 11.4813V24.9776C29.995 28.5022 32.8625 31.3698 36.3872 31.3698H51.7223L53.556 33.2034C53.3289 33.1865 53.1003 33.175 52.8691 33.175C47.8206 33.175 43.7134 37.2822 43.7134 42.3306V47.8064C43.7134 49.3771 44.3561 50.8 45.3919 51.8272C41.4735 53.6377 38.7467 57.6027 38.7467 62.1949V67.6532C38.7467 68.3969 39.3498 69 40.0935 69H65.6447C66.3884 69 66.9915 68.3969 66.9915 67.6532V62.1951C66.9915 57.6028 64.2645 53.6378 60.3463 51.8273ZM53.2327 29.0706C52.9801 28.8181 52.6376 28.6762 52.2804 28.6762H36.3872C34.3477 28.6762 32.6886 27.017 32.6886 24.9776V11.4813C32.6886 9.4418 34.3477 7.78267 36.3872 7.78267H57.3257C59.3651 7.78267 61.0243 9.4418 61.0243 11.4813V11.5537H52.4804C51.7367 11.5537 51.1336 12.1567 51.1336 12.9005C51.1336 13.6444 51.7367 14.2473 52.4804 14.2473H61.0243V24.9776C61.0243 27.017 59.3651 28.6762 57.3257 28.6762H56.779C56.0353 28.6762 55.4322 29.2791 55.4322 30.023V31.2702L53.2327 29.0706ZM46.4071 42.3306C46.4071 38.7675 49.306 35.8686 52.8692 35.8686C56.4323 35.8686 59.3312 38.7675 59.3312 42.3306V47.8064C59.3312 49.4452 57.998 50.7784 56.3592 50.7784H49.3791C47.7403 50.7784 46.4071 49.4454 46.4071 47.8066V42.3306ZM64.2982 66.3064H41.4404V62.1951C41.4404 57.3853 45.3535 53.4722 50.1634 53.4722H55.5754C60.3852 53.4722 64.2982 57.3853 64.2982 62.1951V66.3064Z" fill="#178F73"/>
<path d="M27.8344 0.0436707H12.1696C8.64497 0.0436707 5.77736 2.91128 5.77736 6.43587V19.9322C5.77736 23.1861 8.22086 25.8798 11.3693 26.2746V29.4764C11.3693 30.0211 11.6975 30.5123 12.2007 30.7208C12.3673 30.7898 12.5424 30.8234 12.7158 30.8234C13.0664 30.8234 13.4108 30.6864 13.6684 30.4288L17.7728 26.3244H24.7717C25.5154 26.3244 26.1185 25.7214 26.1185 24.9776C26.1185 24.2337 25.5154 23.6308 24.7717 23.6308H17.215C16.8578 23.6308 16.5153 23.7727 16.2626 24.0253L14.063 26.2249V24.9776C14.063 24.2337 13.4599 23.6308 12.7162 23.6308H12.1696C10.1301 23.6308 8.47096 21.9717 8.47096 19.9322V6.43587C8.47096 4.39641 10.1302 2.73728 12.1696 2.73728H27.8342C28.5779 2.73728 29.181 2.13431 29.181 1.39047C29.181 0.646635 28.5779 0.0436707 27.8344 0.0436707Z" fill="#178F73"/>
</svg>
