<svg width="68" height="68" viewBox="0 0 68 68" fill="none" xmlns="http://www.w3.org/2000/svg">
<path d="M64.4427 0.712524H4.28265C3.39624 0.712524 2.54613 1.06465 1.91934 1.69144C1.29256 2.31823 0.94043 3.16834 0.94043 4.05475V64.2148C0.94043 65.1012 1.29256 65.9513 1.91934 66.5781C2.54613 67.2049 3.39624 67.557 4.28265 67.557H64.4427C65.3291 67.557 66.1792 67.2049 66.806 66.5781C67.4328 65.9513 67.7849 65.1012 67.7849 64.2148V4.05475C67.7849 3.16834 67.4328 2.31823 66.806 1.69144C66.1792 1.06465 65.3291 0.712524 64.4427 0.712524ZM3.16858 4.05475C3.16858 3.75928 3.28596 3.47591 3.49488 3.26698C3.70381 3.05805 3.98718 2.94067 4.28265 2.94067H64.4427C64.7382 2.94067 65.0216 3.05805 65.2305 3.26698C65.4394 3.47591 65.5568 3.75928 65.5568 4.05475V14.0814H3.16858V4.05475ZM48.5025 65.3289C48.6711 63.8873 48.7729 62.4018 48.8078 60.8726H58.8345C58.7654 62.374 58.5576 63.8657 58.2139 65.3289H48.5025ZM45.2305 48.6178C46.062 51.8974 46.5151 55.2616 46.5807 58.6444H35.4768V48.6178H45.2305ZM35.4768 46.3896V35.3525C39.1432 36.0454 42.53 40.143 44.5966 46.3896H35.4768ZM33.2486 35.3525V46.3896H24.1288C26.1965 40.1508 29.5844 36.0432 33.2486 35.3525ZM33.2486 48.6178V58.6444H22.1446C22.2101 55.2616 22.6632 51.8974 23.4949 48.6178H33.2486ZM33.2486 60.8726V65.3289H22.4621C22.285 63.8917 22.1814 62.4022 22.1457 60.8726H33.2486ZM35.4768 60.8726H46.5796C46.544 62.4044 46.4404 63.8928 46.2632 65.3289H35.4768V60.8726ZM48.81 58.6444C48.7498 55.2651 48.3183 51.9027 47.5233 48.6178H56.1818C57.7701 51.7331 58.6755 55.1514 58.8378 58.6444H48.81ZM46.9283 46.3896C45.9066 42.6324 44.0091 39.1707 41.3914 36.2883C46.9429 37.9583 51.7259 41.536 54.8962 46.3896H46.9283ZM21.7981 46.3896H13.8303C16.9973 41.5413 21.7758 37.9683 27.3217 36.3017C24.7113 39.1821 22.8187 42.6387 21.7981 46.3896ZM12.5435 48.6178H21.2021C20.4068 51.9027 19.9753 55.2651 19.9154 58.6444H9.88868C10.0513 55.1516 10.9563 51.7334 12.5435 48.6178ZM9.88979 60.8726H19.9165C19.9499 62.3989 20.0516 63.8843 20.2217 65.3289H10.5103C10.1665 63.8658 9.95873 62.374 9.88979 60.8726ZM65.5568 64.2148C65.5568 64.5103 65.4394 64.7936 65.2305 65.0026C65.0216 65.2115 64.7382 65.3289 64.4427 65.3289H60.5033C61.3272 61.4795 61.2901 57.4956 60.3946 53.6623C59.4991 49.829 57.7673 46.241 55.3232 43.1551C52.8791 40.0692 49.7831 37.5617 46.2568 35.812C42.7305 34.0623 38.861 33.1137 34.9253 33.0341C34.5602 33.0107 34.1941 33.0107 33.829 33.0341C29.8895 33.1055 26.0146 34.0484 22.4827 35.7951C18.9508 37.5417 15.8495 40.0488 13.4014 43.1362C10.9534 46.2236 9.21931 49.8148 8.3238 53.6519C7.42829 57.489 7.39353 61.4768 8.22202 65.3289H4.28265C3.98718 65.3289 3.70381 65.2115 3.49488 65.0026C3.28596 64.7936 3.16858 64.5103 3.16858 64.2148V16.3096H65.5568V64.2148Z" fill="#178F73"/>
<path d="M62.2144 5.16884H31.0203C30.7249 5.16884 30.4415 5.28621 30.2326 5.49514C30.0236 5.70407 29.9062 5.98744 29.9062 6.28291V10.7392C29.9062 11.0347 30.0236 11.3181 30.2326 11.527C30.4415 11.7359 30.7249 11.8533 31.0203 11.8533H62.2144C62.5099 11.8533 62.7933 11.7359 63.0022 11.527C63.2111 11.3181 63.3285 11.0347 63.3285 10.7392V6.28291C63.3285 5.98744 63.2111 5.70407 63.0022 5.49514C62.7933 5.28621 62.5099 5.16884 62.2144 5.16884ZM61.1004 9.62514H32.1344V7.39699H61.1004V9.62514Z" fill="#178F73"/>
<path d="M8.73871 5.16884C8.07768 5.16884 7.4315 5.36486 6.88187 5.7321C6.33224 6.09935 5.90386 6.62134 5.6509 7.23205C5.39793 7.84276 5.33175 8.51477 5.46071 9.1631C5.58967 9.81143 5.90798 10.407 6.3754 10.8744C6.84282 11.3418 7.43835 11.6601 8.08668 11.7891C8.735 11.918 9.40701 11.8518 10.0177 11.5989C10.6284 11.3459 11.1504 10.9175 11.5177 10.3679C11.8849 9.81828 12.0809 9.17209 12.0809 8.51106C12.0809 7.62465 11.7288 6.77454 11.102 6.14775C10.4752 5.52096 9.62512 5.16884 8.73871 5.16884ZM8.73871 9.62514C8.51837 9.62514 8.30297 9.5598 8.11976 9.43738C7.93656 9.31496 7.79376 9.14097 7.70944 8.9374C7.62512 8.73383 7.60306 8.50983 7.64604 8.29372C7.68903 8.07761 7.79514 7.8791 7.95094 7.72329C8.10675 7.56749 8.30526 7.46138 8.52137 7.41839C8.73748 7.37541 8.96148 7.39747 9.16505 7.48179C9.36862 7.56611 9.54261 7.70891 9.66503 7.89211C9.78745 8.07532 9.85279 8.29072 9.85279 8.51106C9.85279 8.80653 9.73541 9.0899 9.52648 9.29883C9.31755 9.50776 9.03418 9.62514 8.73871 9.62514Z" fill="#178F73"/>
<path d="M16.5375 5.16884C15.8765 5.16884 15.2303 5.36486 14.6807 5.7321C14.1311 6.09935 13.7027 6.62134 13.4497 7.23205C13.1968 7.84276 13.1306 8.51477 13.2595 9.1631C13.3885 9.81143 13.7068 10.407 14.1742 10.8744C14.6416 11.3418 15.2372 11.6601 15.8855 11.7891C16.5338 11.918 17.2058 11.8518 17.8166 11.5989C18.4273 11.3459 18.9492 10.9175 19.3165 10.3679C19.6837 9.81828 19.8798 9.17209 19.8798 8.51106C19.8798 7.62465 19.5276 6.77454 18.9008 6.14775C18.2741 5.52096 17.424 5.16884 16.5375 5.16884ZM16.5375 9.62514C16.3172 9.62514 16.1018 9.5598 15.9186 9.43738C15.7354 9.31496 15.5926 9.14097 15.5083 8.9374C15.4239 8.73383 15.4019 8.50983 15.4449 8.29372C15.4879 8.07761 15.594 7.8791 15.7498 7.72329C15.9056 7.56749 16.1041 7.46138 16.3202 7.41839C16.5363 7.37541 16.7603 7.39747 16.9639 7.48179C17.1674 7.56611 17.3414 7.70891 17.4639 7.89211C17.5863 8.07532 17.6516 8.29072 17.6516 8.51106C17.6516 8.80653 17.5342 9.0899 17.3253 9.29883C17.1164 9.50776 16.833 9.62514 16.5375 9.62514Z" fill="#178F73"/>
<path d="M24.3364 5.16884C23.6753 5.16884 23.0292 5.36486 22.4795 5.7321C21.9299 6.09935 21.5015 6.62134 21.2486 7.23205C20.9956 7.84276 20.9294 8.51477 21.0584 9.1631C21.1873 9.81143 21.5056 10.407 21.9731 10.8744C22.4405 11.3418 23.036 11.6601 23.6843 11.7891C24.3327 11.918 25.0047 11.8518 25.6154 11.5989C26.2261 11.3459 26.7481 10.9175 27.1153 10.3679C27.4826 9.81828 27.6786 9.17209 27.6786 8.51106C27.6786 7.62465 27.3265 6.77454 26.6997 6.14775C26.0729 5.52096 25.2228 5.16884 24.3364 5.16884ZM24.3364 9.62514C24.116 9.62514 23.9006 9.5598 23.7174 9.43738C23.5342 9.31496 23.3914 9.14097 23.3071 8.9374C23.2228 8.73383 23.2007 8.50983 23.2437 8.29372C23.2867 8.07761 23.3928 7.8791 23.5486 7.72329C23.7044 7.56749 23.9029 7.46138 24.119 7.41839C24.3351 7.37541 24.5591 7.39747 24.7627 7.48179C24.9663 7.56611 25.1403 7.70891 25.2627 7.89211C25.3851 8.07532 25.4504 8.29072 25.4504 8.51106C25.4504 8.80653 25.3331 9.0899 25.1241 9.29883C24.9152 9.50776 24.6318 9.62514 24.3364 9.62514Z" fill="#178F73"/>
<path d="M46.8805 31.4933C46.9142 31.6953 47.0029 31.884 47.1368 32.0389C47.2708 32.1937 47.4448 32.3086 47.6399 32.371C47.8349 32.4334 48.0433 32.4409 48.2423 32.3926C48.4412 32.3442 48.623 32.242 48.7677 32.0971L50.343 30.5218L55.8577 36.0365C56.0666 36.2454 56.3499 36.3627 56.6453 36.3627C56.9407 36.3627 57.2241 36.2454 57.433 36.0365L60.5836 32.8848C60.7924 32.6759 60.9098 32.3925 60.9098 32.0971C60.9098 31.8017 60.7924 31.5184 60.5836 31.3095L55.07 25.7959L56.6453 24.2195C56.7902 24.0747 56.8924 23.8929 56.9407 23.6938C56.989 23.4948 56.9814 23.2863 56.9189 23.0912C56.8564 22.8962 56.7413 22.7222 56.5863 22.5883C56.4313 22.4544 56.2424 22.3658 56.0404 22.3323L46.5875 20.7569C46.4126 20.7268 46.2331 20.7393 46.0642 20.7935C45.8953 20.8476 45.7419 20.9417 45.6171 21.0678C45.4915 21.1931 45.3976 21.3467 45.3434 21.5157C45.2891 21.6847 45.276 21.8642 45.3052 22.0392L46.8805 31.4933ZM53.5393 24.176L52.7071 25.0083C52.4982 25.2172 52.3809 25.5005 52.3809 25.7959C52.3809 26.0913 52.4982 26.3746 52.7071 26.5836L58.2206 32.0971L56.6453 33.6735L51.1307 28.1589C50.9217 27.95 50.6384 27.8327 50.343 27.8327C50.0476 27.8327 49.7643 27.95 49.5554 28.1589L48.7231 28.9911L47.7595 23.2168L53.5393 24.176Z" fill="#178F73"/>
</svg>
