<svg width="47" height="68" viewBox="0 0 47 68" fill="none" xmlns="http://www.w3.org/2000/svg">
<path d="M45.2774 55.1808C44.7309 55.1808 44.2879 55.6238 44.2879 56.1703V65.4742C44.2879 65.7754 44.0427 66.0206 43.7415 66.0206H38.4219V46.5329C38.4219 45.9864 37.9789 45.5434 37.4323 45.5434C36.8858 45.5434 36.4428 45.9864 36.4428 46.5329V66.0207H25.7309L28.8373 62.6034C29.1766 62.23 29.3367 61.6981 29.2653 61.1801C29.264 61.1701 29.2624 61.16 29.2607 61.15L26.3021 43.6719L27.0992 42.472C27.5399 42.785 27.8794 43.0863 28.516 43.0863C29.1636 43.0863 29.7691 42.7239 30.067 42.1272V42.1271L33.1875 35.873L40.296 38.626C40.5532 38.7363 44.2876 40.418 44.2876 44.8587V51.5522C44.2875 52.0986 44.7305 52.5418 45.2772 52.5418C45.8237 52.5418 46.2667 52.0987 46.2667 51.5522V44.8587C46.2667 39.0078 41.257 36.881 41.0438 36.7933C41.0376 36.7906 41.0312 36.7881 41.0249 36.7858L29.1938 32.2039V29.4291C31.0729 27.9677 32.3759 25.8013 32.703 23.3298C33.6399 23.2638 34.5093 22.9139 35.2193 22.3034C36.1464 21.5061 36.6784 20.3456 36.6784 19.1201C36.6784 18.1031 36.3115 17.132 35.6576 16.3753V12.7095C35.6574 5.9469 30.1557 0.444992 23.393 0.444992C16.6304 0.444992 11.1286 5.9469 11.1286 12.7095V16.4714C10.4677 17.2204 10.1083 18.1424 10.1083 19.12C10.1083 20.3459 10.64 21.5062 11.5675 22.3037C12.2769 22.9139 13.1458 23.2634 14.0825 23.3295C14.4122 25.8474 15.7531 28.0945 17.7923 29.5756V32.2039L5.974 36.7856C5.9678 36.788 5.9616 36.7905 5.9554 36.793C5.74205 36.8808 0.732422 39.0075 0.732422 44.8584V65.4739C0.732422 66.8666 1.86542 67.9996 3.25808 67.9996H12.6864C13.2329 67.9996 13.6759 67.5565 13.6759 67.01C13.6759 66.4635 13.2329 66.0204 12.6864 66.0204H10.5572V46.5329C10.5572 45.9864 10.1141 45.5434 9.56761 45.5434C9.0211 45.5434 8.57804 45.9864 8.57804 46.5329V66.0207H3.25821C2.95699 66.0207 2.71184 65.7756 2.71184 65.4743V44.8586C2.71184 40.403 6.4713 38.7251 6.7022 38.6264L13.8052 35.8727L16.926 42.1271C17.2246 42.7252 17.8308 43.0863 18.4771 43.0863C19.1105 43.0863 19.4467 42.7896 19.8939 42.472L20.691 43.6719L17.7327 61.1502C17.731 61.16 17.7295 61.1699 17.728 61.18C17.6565 61.6977 17.8166 62.2298 18.1561 62.6035L21.2624 66.0208H17.3048C16.7583 66.0208 16.3152 66.4639 16.3152 67.0104C16.3152 67.5569 16.7583 68 17.3048 68H43.7416C45.1343 68 46.2673 66.8669 46.2673 65.4743V56.1705C46.267 55.6238 45.8239 55.1808 45.2774 55.1808ZM31.3338 35.1552L28.4246 40.9858C28.3523 40.9345 26.8105 39.8391 24.9258 38.5008C25.7436 37.4913 24.7869 38.6721 28.5193 34.0652L31.3338 35.1552ZM25.4845 41.3254L24.73 42.461H22.2623L21.5078 41.3254L23.4962 39.9132L25.4845 41.3254ZM19.7713 32.5232V30.6712C20.9736 31.1559 22.2585 31.3806 23.5132 31.3806C24.8106 31.3806 26.083 31.104 27.2145 30.6092V32.5312L23.4962 37.1209L19.7713 32.5232ZM34.6991 19.1201C34.699 19.7684 34.4182 20.3818 33.9287 20.8028C33.6051 21.0812 33.2141 21.2592 32.786 21.3289V16.9118C33.9233 17.0965 34.6991 18.0399 34.6991 19.1201ZM14.0006 21.3289C12.8504 21.1422 12.0875 20.1911 12.0875 19.12C12.0875 18.0621 12.9645 17.201 14.0006 16.9615V21.3289ZM14.0538 14.945C13.7386 14.9812 13.3773 15.0666 13.1081 15.1581V12.7095C13.1081 7.0382 17.7218 2.42427 23.3932 2.42427C29.0645 2.42427 33.6783 7.0382 33.6783 12.7095V15.0902C33.3907 15.0027 33.0923 14.9449 32.7861 14.9177C32.7861 13.9629 32.7944 14.147 29.6706 10.7887C29.0962 10.1715 28.1459 10.0422 27.4227 10.5146C23.975 12.7668 19.7693 13.8982 15.8889 13.6195C15.0377 13.5558 14.2624 14.1164 14.0538 14.945ZM15.9799 22.108V15.9341V15.6088C20.2516 15.859 24.7302 14.59 28.3482 12.2729C29.7808 13.8111 30.5566 14.618 30.8068 14.9249C30.8068 15.7012 30.8068 21.2192 30.8068 22.1078C30.8068 26.1251 27.5312 29.4011 23.5134 29.4011C19.0017 29.4013 15.9799 25.9014 15.9799 22.108ZM18.568 40.9858L15.6588 35.1552L18.4683 34.0671L22.0625 38.5037C20.2347 39.8016 18.7339 40.868 18.568 40.9858ZM19.7034 61.3635L22.5677 44.4401H24.4243L27.2887 61.3635L23.4961 65.5359L19.7034 61.3635Z" fill="#178F73"/>
</svg>
