<svg width="31" height="25" viewBox="0 0 31 25" fill="none" xmlns="http://www.w3.org/2000/svg">
    <path d="M29.3302 4.10352C28.7253 3.46986 27.8901 3.09543 26.9396 3.09543H22.1584V3.03783C22.1584 2.31777 21.8703 1.62651 21.3807 1.16567C20.8911 0.676025 20.2286 0.388 19.5085 0.388H10.8678C10.1189 0.388 9.45649 0.676025 8.96685 1.16567C8.47721 1.65531 8.18918 2.31777 8.18918 3.03783V3.09543H3.43678C2.48629 3.09543 1.65102 3.46986 1.04617 4.10352C0.44132 4.70837 0.0380859 5.57244 0.0380859 6.49412V20.8377C0.0380859 21.7882 0.412518 22.6235 1.04617 23.2283C1.65102 23.8332 2.5151 24.2364 3.43678 24.2364H26.9396C27.8901 24.2364 28.7253 23.862 29.3302 23.2283C29.935 22.6235 30.3383 21.7594 30.3383 20.8377V6.49412C30.3383 5.54364 29.9638 4.70837 29.3302 4.10352ZM28.8405 20.8377H28.8117C28.8117 21.3562 28.6101 21.817 28.2645 22.1627C27.9189 22.5083 27.458 22.7099 26.9396 22.7099H3.43678C2.91833 22.7099 2.45749 22.5083 2.11186 22.1627C1.76623 21.817 1.56462 21.3562 1.56462 20.8377V6.49412C1.56462 5.97568 1.76623 5.51484 2.11186 5.16921C2.45749 4.82358 2.91833 4.62196 3.43678 4.62196H8.99565C9.42769 4.62196 9.77332 4.27633 9.77332 3.8443V3.00902C9.77332 2.6922 9.88853 2.40417 10.0901 2.20256C10.2918 2.00094 10.5798 1.88573 10.8966 1.88573H19.5085C19.8254 1.88573 20.1134 2.00094 20.315 2.20256C20.5166 2.40417 20.6318 2.6922 20.6318 3.00902V3.8443C20.6318 4.27633 20.9775 4.62196 21.4095 4.62196H26.9684C27.4868 4.62196 27.9477 4.82358 28.2933 5.16921C28.6389 5.51484 28.8405 5.97568 28.8405 6.49412V20.8377Z"
          fill="#1EB795" fill-opacity="0.6"/>
    <path d="M15.1879 6.58052C13.2294 6.58052 11.4436 7.38699 10.1763 8.6543C8.88021 9.95041 8.10254 11.7074 8.10254 13.6659C8.10254 15.6245 8.90901 17.4102 10.1763 18.6776C11.4724 19.9737 13.2294 20.7513 15.1879 20.7513C17.1465 20.7513 18.9323 19.9449 20.1996 18.6776C21.4957 17.3814 22.2733 15.6245 22.2733 13.6659C22.2733 11.7074 21.4669 9.92161 20.1996 8.6543C18.9323 7.38699 17.1465 6.58052 15.1879 6.58052ZM19.1051 17.6119C18.097 18.5911 16.7145 19.2248 15.1879 19.2248C13.6614 19.2248 12.2789 18.5911 11.2708 17.6119C10.2627 16.6038 9.65787 15.2213 9.65787 13.6947C9.65787 12.1682 10.2915 10.7857 11.2708 9.77759C12.2789 8.76951 13.6614 8.16466 15.1879 8.16466C16.7145 8.16466 18.097 8.79831 19.1051 9.77759C20.1132 10.7857 20.718 12.1682 20.718 13.6947C20.7468 15.2213 20.1132 16.6038 19.1051 17.6119Z"
          fill="#1EB795" fill-opacity="0.6"/>
    <path d="M25.4416 9.37437C26.221 9.37437 26.8529 8.7425 26.8529 7.96305C26.8529 7.1836 26.221 6.55173 25.4416 6.55173C24.6621 6.55173 24.0303 7.1836 24.0303 7.96305C24.0303 8.7425 24.6621 9.37437 25.4416 9.37437Z"
          fill="#1EB795" fill-opacity="0.6"/>
</svg>
