<svg width="20" height="21" viewBox="0 0 20 21" fill="none" xmlns="http://www.w3.org/2000/svg">
<path d="M9.08237 1.64563C9.46727 0.978963 10.4295 0.978963 10.8144 1.64563L17.6979 13.5682C18.0828 14.2349 17.6017 15.0682 16.8319 15.0682H3.06488C2.29508 15.0682 1.81396 14.2349 2.19886 13.5682L9.08237 1.64563Z" fill="#F38787"/>
<path d="M10.3373 10.7945H9.49798L9.4387 6.02983C9.43537 5.76173 9.65178 5.5426 9.9199 5.5426C10.1882 5.5426 10.4047 5.76201 10.4011 6.03029L10.3373 10.7945ZM9.39746 12.3927C9.39746 12.2419 9.44269 12.1163 9.53316 12.0158C9.62697 11.9119 9.76434 11.86 9.94527 11.86C10.1262 11.86 10.2636 11.9119 10.3574 12.0158C10.4512 12.1163 10.4981 12.2419 10.4981 12.3927C10.4981 12.5435 10.4512 12.6691 10.3574 12.7696C10.2636 12.8668 10.1262 12.9154 9.94527 12.9154C9.76434 12.9154 9.62697 12.8668 9.53316 12.7696C9.44269 12.6691 9.39746 12.5435 9.39746 12.3927Z" fill="white"/>
</svg>
