<?xml version="1.0" encoding="utf-8"?>
<!-- Generator: Adobe Illustrator 21.1.0, SVG Export Plug-In . SVG Version: 6.00 Build 0)  -->
<svg version="1.1" id="Layer_1" xmlns="http://www.w3.org/2000/svg" width="1121" height="323" xmlns:xlink="http://www.w3.org/1999/xlink" x="0px" y="0px" 
	 viewBox="0 0 1057.2 300.2" style="enable-background:new 0 0 1057.2 300.2;" xml:space="preserve">
<style type="text/css">
	.st0{opacity:0.5;}
	.st1{opacity:0.5;fill:#69A1AC;enable-background:new    ;}
	.st2{opacity:0.5;fill:#C1DEE2;enable-background:new    ;}
	.st3{opacity:0.8;fill:#C1DEE2;enable-background:new    ;}
	.st4{opacity:0.5;fill:#89C5CC;enable-background:new    ;}
	.st5{fill:#C1DEE2;}
	.st6{fill:#F2F2F2;}
	.st7{opacity:0.7;}
	.st8{opacity:0.7;fill:#69A1AC;enable-background:new    ;}
	.st9{opacity:0.7;fill:#89C5CC;enable-background:new    ;}
	.st10{fill:#FFCEB3;}
	.st11{fill:#191847;}
	.st12{fill:#EDF0F1;}
	.st13{fill:#F2C3A8;}
	.st14{fill:#69A1AC;}
	.st15{fill:#FFFFFF;}
	.st16{fill:#C5CFD6;}
	.st17{fill:#E87613;}
	.st18{fill:#DDE3E9;}
	.st19{fill:#FF9B21;}
	.st20{fill-opacity:0.1;}
	.st21{fill:#FEC5A5;}
	.st22{fill:#1F28CF;}
	.st23{fill:#2B44FF;}
	.st24{fill:#FBFBFB;}
	.st25{fill:#262DB1;}
	.st26{fill:#F2F4F7;}
	.st27{fill:#2F38E0;}
	.st28{fill:#C9E1E3;}
	.st29{fill:#FFD053;}
	.st30{fill:#FFC448;}
	.st31{fill:#FFD77A;}
	.st32{fill:#654735;}
	.st33{fill:#2C2C2C;}
	.st34{fill:#FFA6AD;}
	.st35{fill:#2B2426;}
	.st36{fill:#3F3E40;}
	.st37{fill:#FCC353;}
	.st38{fill:#FFCF5D;}
</style>
<g class="st0">
	<path class="st1" d="M1000.5,62.6c2.4-3.4,6.8-11.9,10.1-13.1c2.1-0.8,1.5,7.2,1.6,8.8c0.1,5.9-0.5,11.8-1.2,17.7
		c-1.3,10.6-5.5,20-11.2,29c-3,4.6-6.4,9.3-11.2,12.2c-2.2,1.3-4.9,1.6-7.1,2.7c-2.5,1.3-1.2,0.3-2.3,2.9c-1.6,3.7-2.1,8.4-2.8,12.4
		c-3.4,18-11.6,113.3-10.1,131.6c0.1,1.6-2.1,2-2.3,0c-0.6-10.5,4.6-83.4,7.2-107.2c2.6-23.8,5.3-44.9,7.9-53.1
		c3.2-10,9.1-22,13.9-31.3C995.3,70.8,997.7,66.6,1000.5,62.6z"/>
	<path class="st2" d="M1018.1,179.5c6.1-4.5,12.8,4,7.2,8.5c-3.1,2.5-6.3,1.6-8.1-0.5c-1.2,1.4-2.3,2.9-3.3,4.2
		c-3.2,3.9-6.3,7.8-9.2,11.8c-6,8.4-11.2,17.3-16.6,26c-5.3,8.6-10.6,17.2-15.5,26c-4.1,7.5-9.6,16.2-11,24.4
		c2.1-17.3,10.2-34,19.8-49.3c9.6-15.2,20.5-31.7,35.3-43.7C1015.3,184.7,1015.2,181.6,1018.1,179.5z"/>
	<path class="st1" d="M901.4,137.2c3.4,0.7,9.1,8.5,11.9,11.4c3.4,3.5,6.4,7.3,9.3,11.2c6.2,8.5,11.8,17.5,16.5,26.9
		c7.7,15.3,13.9,31,18.3,47.7c2.7,10.2,4.5,20.8,5.6,31.3c0.2,2,2.3,17.3-0.7,17.7c-2.7,0.4-1.9-11.6-2-13.2
		c-1.5-18.4-5.9-36.2-12-53.5c-1.3-3.8-2.6-8.4-4.7-11.8c-1.5-2.4,0-1.6-2.7-2.5c-2.3-0.8-5-0.6-7.3-1.6c-5.2-2.1-9.3-6.2-12.9-10.3
		c-7-8-12.6-16.7-15.5-27c-1.6-5.7-3.1-11.4-3.9-17.3C901.1,144.6,899.2,136.7,901.4,137.2z"/>
	<path class="st3" d="M883.5,78.6c-0.3-2.2,1.6-4.3,3.7-2.5c2.3,2,1,6.1,0.1,8.4c0.1-0.2-2.1-1.8-2.4-2.2
		C884.1,81.3,883.7,80,883.5,78.6z M924.4,115.9C924.8,116.7,924.5,115.9,924.4,115.9L924.4,115.9z M896.4,80.4
		c1.2-0.8,2.7-0.4,3.5,0.8c0.9,1.5,0.2,3.5-0.4,4.9c-0.3,0.7-1.7,4.2-2,3.1c0,0.1,0,0.2,0.1,0.4c0.3,0.2,0.5,0.3,0.8,0.5
		c0,0,0,0,0.1,0c0,0,0,0-0.1,0.1c2.5,1.8,4.8,3.9,6.8,6.3c0-0.7,0-1.4,0.1-2c0.4-2,3.1-5.4,4.9-2.5c1.7,2.8-1.8,5.1-2.9,7.3
		c2.3,3.2,4.5,6.6,6.5,10.1c0.1-0.1,0.2-0.2,0.4-0.3c-0.2-1.2-0.6-2.5-0.5-3.5c0.2-1.5,0.9-4.3,2.4-5c1.9-0.8,2.7,1,2.5,2.6
		c-0.3,2.3-2.3,4.8-3.7,6.7c0,0.3-0.2,0.5-0.4,0.6c0,0-0.1,0.1-0.1,0.1c2,3.5,3.8,7.1,5.6,10.6c0,0,0-0.1,0-0.1
		c-0.2-0.8-0.4-1.7-0.3-2.6c0.2-2,0.9-4.2,2.7-5.3c1.8-1.1,4.3-0.9,5.3,1.2c2,4.1-6.4,6.5-7.2,8c1.8,3.6,3.4,7.3,4.9,11
		c0-0.4,0-0.7,0.1-1.1c0.7-3,6.3-8.5,8.6-3.9c2,4-4.9,5.7-7.7,7.5c1.4,3.5,2.8,7,4.3,10.5c0.1-1.6,0.5-3,1.5-4.4
		c1-1.5,3.1-3.7,4.9-2c1.9,1.8-0.2,4.6-1.4,6c-0.7,0.8-2.5,2.1-3.6,3.5c2.6,5.6,5.8,10.8,10.1,15.3c2.7,2.8,5.7,5.3,9,7.4
		c2.1,1.3,5.5,3.8,8.6,4.5c-6.3-0.8-12.8-5.2-17.3-9.1c-4.2-3.6-7.5-8-10.2-12.8c-2.9,0-9.2,6.3-10.2,1c-0.5-2.8,2.4-4.5,4.9-4.3
		c1.7,0.2,3.5,1.3,4.8,2.4c-0.8-1.5-1.6-3-2.3-4.6c-1-2.1-1.9-4.3-2.8-6.5c-3.5,2-11.8,2.2-11.8-2c0-6.1,9.3-0.1,11.1,0.9
		c0,0.1-0.1,0.2-0.2,0.2c0.2,0,0.4,0,0.6,0.1c-1.7-4.2-3.4-8.4-5.2-12.5c-0.3,0.2-1.3,0.4-1.8,0.6c-1.2,0.5-2.5,0.9-3.8,1.1
		c-2.1,0.3-5.2,0.3-5.5-2.5c-0.3-3,3.3-3.1,5.2-2.5c1.3,0.4,2.5,1.2,3.7,1.8c0.4,0.2,2.3,0.6,1.3,0.9c0.3,0.1,0.5,0.1,0.7,0.2
		c-0.3-0.7-0.7-1.5-1-2.2c-0.1,0-0.2,0-0.2,0c-0.6-0.2-0.6-0.8-0.3-1.2c-0.5-1-0.9-1.9-1.4-2.9c-1-2-2.1-4.1-3.2-6.2
		c-0.4,0.2-0.7,0-1.2,0.2c-0.4,0.2-0.8,0.8-1.2,1.1c-1,0.7-2.3,1.1-3.5,1.4c-2,0.4-5.9,0.4-5.8-2.5c0.1-3,3.9-3.3,6.1-2.8
		c0.4,0.1,4,1.6,5.3,2.3c-2.1-3.8-4.3-7.7-6.6-11.3c-0.3,0.8-2.5,2.5-3.1,2.8c-1.4,0.7-4.3,1.7-4.9-0.6c-0.5-2,1.7-3.6,3.5-3.8
		c0.3,0,2.8,0.3,3.8,0.6c-1-1.5-2-2.9-3.1-4.3c-0.7-0.9-1.4-1.8-2.2-2.7c-0.1,0.1-0.3,0.2-0.5,0.3c-1.4,2.7-6.9,4.8-7.3,1
		c-0.2-1.8,1.8-3,3.3-3.4c0.3-0.1,1.6,0.1,2.7,0.2c-2.6-2.6-5.5-4.9-8.6-6.9c-0.1,0.2-0.4,0.4-0.7,0.3c-1.2,1.1-2.2,2-4,2.5
		c-1.1,0.3-3.6,0.7-3.5-1.2c0.1-2.5,4-2.8,5.7-2.4c0.2,0,0.8,0.2,1.3,0.4c0-0.1,0-0.2,0.1-0.2c-1.9-1.2-3.9-2.3-6-3.3
		c-0.8,1.1-7.3-0.8-8-1.9c-1.5-2.5,1.9-2.8,3.5-2.2c1.8,0.7,3.2,2.1,4.4,3.6c0.1,0.2,0.1,0.1-0.1,0.1c0.1,0.1,0.2,0.1,0.2,0.2
		c1,0.3,2,0.5,2.9,0.8c2.4,0.9,4.8,2,7.1,3.3c0.6,0.3,1.1,0.6,1.6,0.9c-0.5-1.3-0.8-2.9-0.9-3.5C894.9,83.8,894.9,81.5,896.4,80.4z
		 M959.5,176.8c0.8,0.2,1.6,0.2,2.3,0C961,176.9,960.2,176.9,959.5,176.8z"/>
	<path class="st4" d="M915,7.7c13,22.5,23.6,47.2,30.5,72.2c4.2,15.1,7.1,30.7,10,46.1c4.5,23.9,8.7,47.8,9.9,72.1
		c1.2,24.5,3.6,52.7-4.4,76.2c4-23.9,0.2-49.4-0.5-73.4c-0.3-11.5-1.3-22.9-2.5-34.3c-1.2-11.1-3.1-22.1-4.9-33.1
		c-0.9-5.4-1.8-10.7-2.8-16c-0.3-1.6-0.4-6.3-1.4-7.4c-1-1.1-6.2-1.5-7.8-2.3c-3.3-1.6-6.4-3.9-9.1-6.4c-5.2-4.7-9.8-10.8-13.4-16.8
		c-8.3-13.9-11.6-30.8-11.5-46.9c0-3.1,5.1-36.8,3-37.2c0.1-0.1,0.2-0.3,0.3-0.4C912,2.6,913.5,5.1,915,7.7z"/>
	<path class="st4" d="M1054.9,88.8c0.2-0.3,1.5-2.3,0.8-2.2c1.3-0.3-1.8,2.2,1.5,0.7c-1.6,1.5-0.7,3.4-0.6,5.4
		c0,3.3-0.5,6.5-1.1,9.7c-1,5-2.4,9.9-4.5,14.6c-4.6,10.2-12.3,20-21.5,26.4c-4.6,3.2-9,4.2-14.2,5.7c-3.3,0.9-3.5,2.6-5.3,5.8
		c-3.6,6.6-7.2,13.2-10.4,20.1c-3.8,8.2-7.5,16.4-11,24.7c-11.8,28-21.3,57-26.4,87.1c-0.1-17.7,4-35.9,9.1-52.8
		c3.8-12.3,8.7-24.1,13.9-35.9c1.3-2.8,3.2-6.5,3.7-9.6c0.4-2.2-0.8-4.3-1.3-6.6c-2.1-9-1.9-19.1-0.1-28.2c2-10,7.7-14.6,17.5-16
		c3.5-0.5,8.1-0.3,11.3-1.8c3.6-1.7,5-7.1,7-10.6c5.4-9.4,11.9-18.3,19.3-26.2c2-2.2,4.3-4.2,6.6-6.1
		C1050.7,91.7,1053.8,90.2,1054.9,88.8z"/>
	<path class="st5" d="M945.8,267.6h34.5c1.6,0,2.8,1.3,2.8,2.8c0,0.1,0,0.3,0,0.4l-2.7,18.1c-0.8,5.5-5.6,9.6-11.1,9.6h-12.5
		c-5.6,0-10.3-4.1-11.1-9.6l-2.7-18.1c-0.2-1.5,0.8-3,2.4-3.2C945.5,267.6,945.6,267.6,945.8,267.6z"/>
</g>
<path class="st6" d="M3.5,134.8c-1.8-0.9-4.2,0.1-3.2,2.5c1.1,2.5,5.1,2.6,7.3,2.5c-0.2,0-1-2.3-1.2-2.7
	C5.6,136.1,4.6,135.3,3.5,134.8z M24.3,180.4C24.8,180.8,24.4,180.4,24.3,180.4L24.3,180.4z M1.7,146.3c-1.1,0.8-1.1,2.2-0.2,3.2
	c1,1.2,2.9,1.1,4.3,1c0.6-0.1,4-0.3,3.2-0.9c0.1,0,0.2,0.1,0.3,0.2c0.1,0.3,0.2,0.5,0.2,0.8c0,0,0,0-0.1,0c0,0,0,0,0.1,0
	c0.8,2.7,2,5.3,3.5,7.7c-0.6-0.2-1.2-0.4-1.8-0.5c-1.8-0.2-5.5,1.2-3.5,3.5c1.9,2.3,4.9-0.2,7-0.5c2.1,2.9,4.4,5.7,6.8,8.4
	c-0.1,0-0.3,0.1-0.4,0.3c-1-0.5-2-1.2-2.9-1.4c-1.3-0.3-4-0.4-4.9,0.7c-1.2,1.4,0.1,2.6,1.5,2.9c2.1,0.4,4.8-0.6,6.7-1.3
	c0.2,0,0.5,0,0.6-0.2c0,0,0.1,0,0.1,0c2.4,2.7,5,5.3,7.5,7.8c0,0-0.1,0-0.1,0c-0.7-0.4-1.4-0.8-2.1-1c-1.8-0.4-3.9-0.4-5.3,0.8
	c-1.4,1.3-1.9,3.5-0.5,4.9c3,2.9,7.3-3.7,8.8-3.9c2.6,2.6,5.3,5,8,7.3c-0.3-0.1-0.6-0.2-1-0.2c-2.7-0.3-9,3.1-5.7,6.3
	c2.9,2.8,6.2-2.6,8.6-4.5c2.6,2.2,5.2,4.4,7.7,6.6c-1.4-0.4-2.7-0.4-4.2,0c-1.5,0.5-4,1.6-3,3.7c1,2.1,4,1.1,5.5,0.5
	c0.8-0.4,2.5-1.6,4-2.1c4.1,3.8,7.6,8,10.2,13c1.7,3.1,2.9,6.4,3.8,9.8c0.6,2.2,1.7,5.8,1.5,8.6c1.1-5.7-0.9-12.5-2.9-17.5
	c-1.9-4.7-4.8-8.7-8.1-12.4c0.8-2.5,7.9-6.2,3.7-8.5c-2.2-1.2-4.5,0.8-5,3c-0.3,1.5,0.2,3.4,0.7,4.8c-1.1-1.1-2.1-2.2-3.3-3.3
	c-1.6-1.4-3.1-2.9-4.8-4.2c2.6-2.5,5.2-9.6,1.6-10.8c-5.2-1.7-2.7,8-2.4,9.8c0.1,0,0.2,0,0.2-0.1c0,0.2-0.1,0.3-0.1,0.5
	c-3.1-2.6-6.2-5.2-9.2-7.9c0.3-0.2,0.7-1,1-1.4c0.8-0.9,1.5-1.9,2-3c0.8-1.7,1.7-4.4-0.6-5.4c-2.4-1.1-3.6,2-3.6,3.8
	c0,1.3,0.3,2.5,0.5,3.7c0.1,0.4-0.2,2.1,0.4,1.4c0,0.3,0,0.5,0,0.6c-0.5-0.5-1.1-1-1.6-1.5c0-0.1,0-0.1,0-0.2c0-0.5-0.5-0.8-0.9-0.6
	c-0.7-0.7-1.4-1.3-2.1-2c-1.5-1.5-2.9-3-4.4-4.5c0.3-0.3,0.2-0.7,0.5-0.9c0.3-0.3,0.9-0.4,1.2-0.7c0.9-0.7,1.6-1.7,2.1-2.6
	c0.9-1.6,2-5-0.5-5.7c-2.6-0.8-3.9,2.4-4.1,4.5c0,0.4,0.3,3.9,0.5,5.2c-2.7-2.9-5.4-5.8-7.8-8.9c0.7,0,2.8-1.5,3.2-1.9
	c1-1,2.7-3.2,0.9-4.4c-1.6-1-3.6,0.5-4.2,1.9c-0.1,0.2-0.5,2.5-0.5,3.5c-1-1.3-2-2.6-2.8-3.9c-0.6-0.9-1.1-1.7-1.7-2.6
	c0.1-0.1,0.2-0.2,0.4-0.3c2.7-0.5,6.1-4.6,2.9-6c-1.5-0.7-3.1,0.7-3.8,1.9c-0.1,0.2-0.4,1.4-0.6,2.4c-1.5-3-2.6-6.1-3.5-9.4
	c0.2-0.1,0.4-0.2,0.5-0.5c1.3-0.7,2.3-1.3,3.2-2.8c0.6-0.9,1.6-2.9-0.1-3.4c-2.1-0.6-3.5,2.6-3.7,4.2c0,0.2,0,0.7,0,1.2
	c-0.1,0-0.1,0-0.2,0c-0.5-2-0.9-4-1.2-6.1c1.2-0.4,1.4-6.5,0.6-7.4c-1.7-2-3,0.9-2.9,2.4c0.1,1.8,0.9,3.4,1.9,4.8
	c0.1,0.2,0.1,0.1,0.1-0.1c0,0.1,0,0.2,0.1,0.2c0,0.9-0.1,1.9-0.1,2.7c0.1,2.4,0.4,4.7,0.8,7c0.1,0.6,0.2,1.1,0.3,1.7
	c-0.9-0.8-2.2-1.5-2.7-1.7C5,145.9,3,145.3,1.7,146.3z M66.4,227.9c-0.1,0.8-0.2,1.6-0.5,2.2C66.2,229.4,66.3,228.6,66.4,227.9z"/>
<g class="st7">
	<path class="st8" d="M38.7,190.3c5-0.3,11.3,2.7,11.8,8.1c0.4,4,0.3,7.9,0.9,11.9c0.5,3.2,1.5,6.2,2.9,9.1c1.3,2.8,4.1,5.1,4.8,8.1
		c0.5,1.9,0.2,4.6-0.4,6.4c-0.8,2.2-0.4,2.1,1.2,4c3,3.7,5.7,7.5,7.6,11.9c2.8,6.4,4.6,13.8,3.6,20.8c-0.1,0.9-0.3,4.1-1.5,4.3
		c-1.4,0.2-0.7-1.6-0.7-2.2c0.5-3.7,0.9-7,0.3-10.8c-2.2-14.7-12.7-24.3-19.5-36.8c-0.4-0.6-1.2-2.2-1.7-3.2
		c-0.9-1.6-1.8-4.6-2.9-5.8c-2.2-2.2-0.2,2.2,0.3,3.1c0.5,1.1,1.2,2.2,1.7,3.2c2.6,4.4,5.4,9.2,8.1,13.7
		c-11.5,2.6-19.6-11.2-22.6-20.3C29.9,208.4,26.9,190.9,38.7,190.3z"/>
	<path class="st9" d="M106.2,176.4c-8.4,0.7-13.8,6.2-16.3,14c-1.4,4.2-1.5,8.5-2.3,12.8c-1.1,6.5-3.6,11.4-8.3,16
		c-1.5,1.4-2.6,2.9-3.3,4.5c-1.5,1.6-2.9,3.3-3.9,5.5c-1.3,2.8-1.6,6.1-0.2,8.8c0.4,0.7,1.4,2.2,2.4,2.9c-3.8,8-5.8,16.8-5.6,25.6
		c0.1,5.3,0.4,10.6,0.7,15.9c0.1,1.4,0.5,3.8,1.2,1.4c0.6-2.2-0.2-5.6-0.2-7.9c-0.4-11.1-0.7-21.2,3.9-31.5c0.5-1.1,1-2.2,1.5-3.2
		c0,0,0.1,0,0.1-0.1c0,0,0,0,0.1,0c0-0.1,0.1-0.1,0.1-0.2c0.2-0.2,0.3-0.4,0.4-0.6c0.4-0.6,0.9-1.2,0.9-1.6c0,0,0,0,0,0
		c2.8-4.6,6.1-9,9.4-13.2c0,0,3.6-4.9,3-2.2c-0.3,1.3-2.9,3.8-4,5.2c-2.4,3.1-5.2,7-7.5,10.8c-0.3,0.2-0.8,1.1-1.1,1.7
		c-0.2,0.3-0.3,0.7-0.5,1c8.2,2.7,14.6-2.8,18.9-9.1c0,0,0,0,0,0c1.3-1.8,2.7-3.5,4.4-4.9c2.8-2.3,5.9-2.7,9.2-3.9
		c9.1-3.1,13-14.9,14.2-23.6C124.8,190.6,118,175.4,106.2,176.4z"/>
	<path class="st9" d="M89.5,148.8c-8.6,9-12.8,21.5-16.1,33.2c-3.7,13.1-6.1,26.4-6.2,40c-0.1,8.9-0.3,17.9,0.2,26.9
		c0.2,3.2,0.5,6.3,1,9.5c0,0.3,1.2,7.3,2.2,5.6c0.6-0.9-1.2-7.3-1.3-8.3c-0.8-5.9-0.9-11.9-0.9-17.9c0.1-9.9-0.2-19.7,0.8-29.5
		c0.1-1.5,0.3-3,0.6-4.4c0.4-1.5-0.1-0.9,1.1-1.5c1.2-0.6,2.6-0.5,3.8-1.2c4.8-2.9,7.3-10.4,9.2-15.4c2.2-5.6,3.5-11.6,4.6-17.6
		c0.8-4.4,1.3-8.7,1.7-13.1c0.1-1.4,0.1-2.8,0.4-4.2c0.1-0.4,0.4-1,0.4-1.3c0-0.7-0.4-1.1-0.5-1.7C90.2,148.1,89.9,148.4,89.5,148.8
		z"/>
	<path class="st9" d="M42.5,268.5c0,14.9,12,26.9,26.9,26.9s26.9-12,26.9-26.9"/>
	<path class="st8" d="M71.5,268.6h-1.4c0.1-1.8,0.2-3.6,0.5-5.3c1.1-6.7,4.7-16.7,12.5-17.8c0.3,0,1.3,0,2.6,0
		c0.6-0.3,1.3-0.5,2-0.6c6.7-0.5,14.1,4.9,17.3,10.5c2.6,4.5,2.2,10.4,0.6,15.2c-1.1,3.2-3.4,7.8-7.3,7.8c-4.9,0.1-5.1-6-5.2-9.5
		c-0.1-4.7-0.7-8.8-4.4-12c-0.9-0.7-1.8-1.4-2.7-2.1c-1.4-1.1-2.9-2.3-3-4.2c-0.2-2.6,1.2-3.1,3.5-2.6c0.4,0.1,4.3,1.8,3.7,0.4
		c-0.2-0.4-0.8-0.8-1.6-1c-2.1-0.2-4.6-0.5-5.3-0.3c-7.7,1.7-10.8,12.4-11.6,19.2C71.7,267.1,71.6,267.9,71.5,268.6z"/>
</g>
<path class="st10" d="M283.4,136.1c-2.6-3-4.3-6.7-4-10.9c0.8-12,17.5-9.3,20.7-3.3c3.2,6,2.9,21.4-1.3,22.4
	c-1.7,0.4-5.2-0.6-8.9-2.8l2.3,16.1h-13.4L283.4,136.1z"/>
<path class="st11" d="M282.4,138.7c-1.7-7.5-6.5-12.6-5.8-16c0.5-2.2,1.8-3.6,3.9-4.2c1.1-4.4,4.6-6.3,10.6-5.6
	c8.9,1,14.4,4.7,12.1,12.9c-2.2,0-4.8-0.8-8.4,0.6c-1.1,0.4-2,1.7-2.5,4h-1.6c-1.6-2.6-3.2-3.6-4.7-2.9c-1.5,0.7-1.9,2.4-1.1,5.1
	l-0.8,6.2H282.4z"/>
<path class="st12" d="M241.3,227.5h64.3c4.9,0,8.9,4,8.9,8.9v51.5c0,4.9-4,8.9-8.9,8.9h-64.3c-4.9,0-8.9-4-8.9-8.9v-51.5
	C232.4,231.5,236.4,227.5,241.3,227.5z M250.3,243.2c-1.2,0-2.2,1-2.2,2.2V279c0,1.2,1,2.2,2.2,2.2h46.4c1.2,0,2.2-1,2.2-2.2v-33.6
	c0-1.2-1-2.2-2.2-2.2H250.3z"/>
<path class="st13" d="M370,294.1c-11-13.5-18.5-23.4-22.4-29.9c-6.7-11.1-12.1-21-13.9-24.8c-4.1-9,9.5-13.2,12.5-9
	c4.6,6.4,14.6,26.4,29.8,60.1L370,294.1z"/>
<path class="st14" d="M347.4,290.2l-20.5-51.7c-4.4-9.4,16.8-15.6,20-11.2c7.3,10,24.7,49.2,26.9,52.2L347.4,290.2z"/>
<path class="st10" d="M292.8,280.6c4.2-5.9,19.3-25.8,27.4-34.2c2.3-2.4,4.6-4.7,6.7-6.8c6.4-6.4,17.6,3.2,11.3,9
	c-15.7,14.5-38.5,34.2-40.5,36C295,287.1,290.1,284.3,292.8,280.6z"/>
<path class="st15" d="M294.8,277.6c-1.6,1.4-2.6,2.5-3.2,3.4c-0.7,1-1.5,2.6-2.4,4.7c1,0.5,9.5,5.3,25.7,14.2c2.4-2.4,3-4,1.7-5.1
	c-1.3-1-2.4-1.9-3.2-2.6l-7.7-13.2c-0.1-0.3-0.5-0.3-0.8,0c0,0,0,0,0,0l-2.2,1.9c-1.8,0-3.2-0.2-4-0.6c-0.7-0.4-1.4-1.2-2.2-2.6l0,0
	C296.2,277.1,295.5,277.1,294.8,277.6C294.9,277.5,294.9,277.6,294.8,277.6z"/>
<path class="st15" d="M365.3,292.1c-0.6,1.7-0.9,2.9-0.9,3.8c0,1,0.2,2.5,0.5,4.4c1.2,0,11.7,0,31.5,0c0.8-2.7,0.3-4.2-1.4-4.4
	s-3.2-0.4-4.4-0.6l-14.7-6.5c-0.3-0.1-0.6,0-0.7,0.3c0,0,0,0,0,0l-0.9,2.3c-1.6,0.8-3,1.1-4,1.1c-0.8,0-2-0.3-3.4-1l0,0
	C366.2,291.2,365.6,291.4,365.3,292.1C365.3,292,365.3,292,365.3,292.1z"/>
<path class="st16" d="M319.5,241.1c-17.1-2.8-28.5-4.7-34.3-5.7c-16.5-2.9-21.3-11.8-18.5-31.2h30.4c4,1.2,20.9,8.4,50.5,21.6
	c5.3,2.6,4.3,10.4,3.4,13c0,0.1-9,15.5-27,46.2l-24.9-15.9l20.4-26.2C320.1,241.9,320.1,241.2,319.5,241.1z"/>
<path class="st10" d="M321.7,196.9l17.8,13.1c4.8,1.3,8.9,2.9,12.1,4.9c0.8,0.7,1.7,2.1-1.5,1.9c-3.2-0.2-6.5-0.4-7,0.7
	c-0.4,1.1,1.5,2.4,0.6,3.8c-0.6,1-3.4-1.5-8.4-7.3l-17.7-7.3L321.7,196.9z M253.2,197.3l11.7,0c-7.2,23.3-11.1,35.7-11.7,37.1
	c-1.3,3.2,1.4,8.1,2.6,10.7c-3.8,1.7-3.4-4.6-8.2-2.4c-4.4,2-7.7,5.7-12.8,2.6c-0.6-0.4-1.3-1.8,0.3-3c4.1-2.8,10-7.8,10.8-9.4
	C247.1,230.8,249.5,218.9,253.2,197.3z"/>
<path class="st17" d="M286.4,148.3l4.8-0.8c17.9,15.5,25.3,45.3,47.3,61.1l-5.3,6.6C295.1,210.3,285.7,174,286.4,148.3z"/>
<path class="st18" d="M265.4,209c19.4,0,33.7,0,42.8,0c2,0,1.6-2.8,1.3-4.2c-3.3-16.4-16-34.2-16-57.6l-12.3-1.9
	C270.9,161.7,267.4,181.9,265.4,209z"/>
<path class="st19" d="M265.7,161.4c-1.8-0.5-3.2-1.7-4.3-3.6c-4.5-8.1-2.9-12.6,1.9-14.1c4.8-1.5,9.1,1.6,16.8,1.6
	c0.4,0,0.8,0,1.1,0.1l3.9,0.2c11.1,37.6,14.1,62.6,9.2,75.2h-33.7c-2,4.7-3.9,8.6-5.7,11.7h-9.2
	C244.9,204.6,251.6,180.9,265.7,161.4z"/>
<path class="st20" d="M268,201.5c1.1,8.9,2.8,15.3,5.2,19.3h-12.5C263,215.4,265.5,208.9,268,201.5z"/>
<path class="st16" d="M724.6,300.2c24.6,0,44.6-19,44.6-42.5c0-23.5-20-42.5-44.6-42.5c-24.6,0-44.6,19-44.6,42.5
	C680.1,281.2,700,300.2,724.6,300.2z"/>
<path class="st21" d="M636.9,295.4c6.6-14.5,11.3-27.2,13.2-33.8c3.3-11.4,5.7-21.5,6.4-25.2c1.5-9-11.5-9.5-13.2-5
	c-2.6,6.7-7.1,28.9-12.6,62.3L636.9,295.4z M713,249.9c-6-2.4-27.1-9.8-37.3-11.9c-2.9-0.6-5.8-1.2-8.4-1.7
	c-7.9-1.5-12,12.8-4.4,13.9c19,2.7,45.9,5.6,48.2,5.9C714.3,256.4,716.7,251.4,713,249.9z"/>
<path class="st22" d="M662.4,232.3l32.6-16.6v-3.6h-3.9c-31.5,8-47.6,13.2-48.3,15.4c0,0,0,0,0,0.1c0,0,0,0,0,0.1
	c-6.2,8.6-10,50.5-11.2,53.6l12,1.8c4.6-17,19.2-28.8,18.8-49.1C662.4,233.4,662.5,232.9,662.4,232.3z"/>
<path class="st23" d="M692.3,242.2c3-0.6,5.7-1.1,8.1-1.5c15.2-2.7,19.6-10.8,17-28.5h-27.9c-4.6,1.3-28.3,11.3-40.6,16.5
	c-8.1,3.5-5.6,16.1-1,19.4c0,0.2,0.1,0.3,0.3,0.4c24.8,10.3,44.4,4.9,51,6.6l3-9.6L692.3,242.2z"/>
<path class="st24" d="M712.3,248c1.4,0,2.3,0.1,2.9,0.3c0.6,0.3,1.5,0.9,2.6,1.8c-0.5,1-5.4,10-14.7,27.1c-2.1-0.1-2.9-1-2.2-2.5
	c0.7-1.6,1.2-2.9,1.7-4l2.6-14.6c0.1-0.3,0.3-0.5,0.5-0.5c0,0,0,0,0,0l1.9-0.1c1.3-1.2,2.1-2.2,2.6-3.1c0.4-0.7,0.7-1.8,1-3.3l0,0
	C711.3,248.6,711.7,248.1,712.3,248C712.3,248,712.3,248,712.3,248z"/>
<path class="st24" d="M639.8,292.7c0.6,1.5,0.9,2.7,0.9,3.4c0,0.9-0.2,2.3-0.5,4c-1.1,0-10.7,0-28.9,0c-0.8-2.5-0.3-3.8,1.3-4
	s3-0.4,4-0.5l13.4-6c0.3-0.1,0.6,0,0.7,0.3c0,0,0,0,0,0l0.9,2.1c1.5,0.7,2.7,1,3.6,1c0.8,0,1.8-0.3,3.2-0.9l0,0
	C639,291.9,639.6,292.2,639.8,292.7C639.8,292.7,639.8,292.7,639.8,292.7z"/>
<path class="st21" d="M704.2,141.6c2.5-3,4.2-6.6,3.9-10.6c-0.8-11.7-17.1-9.1-20.3-3.2c-3.2,5.9-2.8,20.9,1.3,21.9
	c1.6,0.4,5.1-0.6,8.7-2.7l-2.2,15.7h13.1L704.2,141.6z"/>
<path class="st11" d="M713.9,127.1c0.4-0.4,0.7-1,0.9-1.6c0.2-0.6,0.4-1.2,0.5-1.8c0.3-1.2,0.3-2.6-0.6-3.6
	c-0.7-0.8-1.8-1.1-2.7-1.2c-0.6,0-1.3,0-1.9,0.2c-0.6,0.2-1.2,0.6-1.7,0.9c0-1.3-0.3-2.7-0.9-3.8c-0.6-1.1-1.7-1.7-2.9-1.9
	c-1.2-0.2-2.4,0.1-3.5,0.7c-0.3,0.1-0.5,0.3-0.8,0.5c-0.2,0.1-0.4,0.3-0.7,0.4c-0.3,0.1-0.4-0.1-0.6-0.3c-0.2-0.2-0.5-0.5-0.7-0.6
	c-1.1-0.8-2.6-1.2-3.9-0.7c-0.6,0.2-1.2,0.6-1.6,1.2c-0.4,0.5-0.6,1.2-1.1,1.6c-0.2,0.1-0.4,0-0.6-0.2c-0.3-0.2-0.6-0.4-0.9-0.6
	c-0.4-0.3-0.9-0.5-1.3-0.6c-0.7-0.2-1.7-0.1-1.9,0.8c-0.1,0.3,0,0.7,0,1.1c0,0.5,0.1,1,0.1,1.4c0,0.4,0.1,0.7,0.1,1.1
	c0,0.2,0.2,0.5,0.1,0.7c-0.1,0.2-0.6,0.1-0.8,0.1c-0.4,0-0.8,0.1-1.2,0.3c-0.3,0.1-0.6,0.3-0.7,0.6c-0.1,0.2-0.1,0.4,0,0.6
	c0,0.2,0,0.4,0,0.6c-0.5-0.3-2.4-0.8-2.6,0.1c-0.1,0.3,0.1,0.7,0.2,0.9c0.2,0.5,0.5,0.9,0.9,1.3c0.7,0.9,1.4,1.6,2.3,2.2
	c-1,0.4-1.3,1.7-0.4,2.5c0.4,0.3,0.9,0.4,1.4,0.4c0.2,0,0.4-0.1,0.6,0c0.1,0,0.2,0.1,0.3,0.1c0.7,0,1.4-0.1,2.1-0.3
	c1.2-0.3,2.3-0.8,3.2-1.7c0.2-0.2,0.4-0.3,0.7-0.3c0.3,0,0.5,0.1,0.8,0.1c0.7,0,1.4-0.3,2.1-0.6c0,0.9,0.3,1.9,0.7,2.7
	c0.3,0.7,0.9,0.8,1.6,0.8c2,0.2,4,0,6,0c-1.9,0.4-3.9,0.6-5.9,1.1c-0.9,0.2-0.2,0.8,0.2,1.2c0.6,0.7,1.1,1.5,1.4,2.4
	c0.9-1.2,2.6-2,4.1-1.7c1.6,0.4,2.8,2.6,1.7,4.2c-0.6,0.9-1.7,1.3-2.6,1.7c0.7,0.7,0.9,1.8,1.3,2.8c0.2,0.5,0.5,1,1,1.1
	c0.2,0.1,0.4,0.1,0.5,0.2c0.2,0.2,0.2,0.4,0.4,0.5c0.9,0.6,2.2,0.6,3-0.2c0.7-0.7,0.5-1.8-0.1-2.6c0.9-0.4,2.6-0.9,2.3-2.3
	c2-0.1,6.9-3.4,4.2-5.8c1.5-0.8,2.8-2.9,1.9-4.7C717,127.8,715.3,127.1,713.9,127.1z"/>
<path class="st21" d="M665,193.2l-19.3-8.5c-3.4-3.4-6.6-5.9-9.8-7.7c-0.9-0.3-2.5-0.4-0.8,2.1c1.7,2.5,3.4,5.2,2.7,6.1
	c-0.7,0.9-2.7-0.1-3.5,1.3c-0.5,1,2.8,2.1,10,3.4l14.4,11.1L665,193.2z M742.9,195.6l-10.9,2.2c11,20.4,16.8,31.2,17.6,32.5
	c1.8,2.8,0.1,7.8-0.5,10.5c3.9,0.9,2.3-4.9,7.2-3.7c4.5,1.1,8.3,4,12.4,0.1c0.5-0.5,0.9-1.9-0.9-2.7c-4.4-1.9-10.8-5.4-11.8-6.8
	C754.7,225.7,750.3,215,742.9,195.6z"/>
<path class="st25" d="M702.4,154.8l-4.6-0.8c-10,9.7-14.1,33.1-20.8,36.1c-6.3,2.9-15.3,0.1-25.9-3.7l-3.3,7.3
	c9.7,10.5,30.2,19.3,38.6,14.2C699.8,199.9,702.9,171.1,702.4,154.8z"/>
<path class="st26" d="M724,217c-19.8,0-34.3,0-43.7,0c-2,0-1.6-2.9-1.3-4.3c3.3-16.8,16.3-34.9,16.3-58.7l12.6-2
	C718.3,168.7,721.9,189.3,724,217z"/>
<path class="st27" d="M726.5,196.7c8.3,15,15.3,25.7,20.9,32.3l8.5-1.7c-5.5-34.1-21.4-59.2-47.7-75.4h-2.1h-2.5
	c-10.5,35.9-13.4,59.8-8.7,71.8h36.6C730.9,215,729,205.7,726.5,196.7L726.5,196.7z"/>
<path class="st24" d="M451.8,167.7c0-2.8,2.2-5,5-5h158.3v2.7v49.9c0,2.8-2.2,5-5,5H456.8c-2.8,0-5-2.2-5-5V167.7z"/>
<path class="st24" d="M613.8,162.7H625l-10.6,8.9L613.8,162.7z"/>
<path class="st28" d="M469.1,240.4c0-1.4-1.1-2.6-2.6-2.6h-80.9v1.4v25.5c0,1.4,1.1,2.6,2.6,2.6h78.4c1.4,0,2.6-1.1,2.6-2.6V240.4z"
	/>
<path class="st28" d="M386.3,237.9h-5.7l5.4,4.6L386.3,237.9z"/>
<path class="st28" d="M553.8,89c0-2.8-2.2-5-5-5H390.4v2.7v49.9c0,2.8,2.2,5,5,5h153.3c2.8,0,5-2.2,5-5V89z"/>
<path class="st28" d="M391.8,84.1h-11.2l10.6,8.9L391.8,84.1z"/>
<path class="st24" d="M412.4,95.8h113.3c1.3,0,2.4,1.1,2.4,2.4l0,0c0,1.3-1.1,2.4-2.4,2.4H412.4c-1.3,0-2.4-1.1-2.4-2.4l0,0
	C410.1,96.9,411.1,95.8,412.4,95.8z"/>
<path class="st24" d="M412.4,118h65.5c1.3,0,2.4,1.1,2.4,2.4l0,0c0,1.3-1.1,2.4-2.4,2.4h-65.5c-1.3,0-2.4-1.1-2.4-2.4l0,0
	C410.1,119,411.1,118,412.4,118z"/>
<path class="st28" d="M471.5,176.9h113.3c1.3,0,2.4,1.1,2.4,2.4l0,0c0,1.3-1.1,2.4-2.4,2.4H471.5c-1.3,0-2.4-1.1-2.4-2.4l0,0
	C469.1,178,470.1,176.9,471.5,176.9z"/>
<path class="st28" d="M471.5,199.1H537c1.3,0,2.4,1.1,2.4,2.4l0,0c0,1.3-1.1,2.4-2.4,2.4h-65.5c-1.3,0-2.4-1.1-2.4-2.4l0,0
	C469.1,200.2,470.1,199.1,471.5,199.1z"/>
<path class="st29" d="M509.7,119.3c1.4-6-2.3-12-8.3-13.5c-6-1.4-12,2.3-13.5,8.3c-1.4,6,2.3,12,8.3,13.5
	C502.2,129.1,508.3,125.3,509.7,119.3z"/>
<path class="st30" d="M504.6,107.2c1.4,2.1,2,4.7,1.7,7.2c-0.3,2.5-1.4,4.9-3.1,6.7c-1.8,1.8-4.1,3-6.6,3.3
	c-2.5,0.3-5.1-0.2-7.2-1.6c0.9,1.4,2.1,2.6,3.6,3.5c1.4,0.9,3,1.4,4.7,1.6c1.7,0.2,3.4,0,4.9-0.6c1.6-0.6,3-1.5,4.2-2.7
	c1.2-1.2,2.1-2.6,2.6-4.2c0.5-1.6,0.7-3.3,0.5-5c-0.2-1.7-0.8-3.3-1.7-4.7C507.3,109.3,506.1,108.1,504.6,107.2z"/>
<path class="st31" d="M489.1,117.9c0-2.2,0.7-4.3,1.9-6s3-3.1,5.1-3.8c2.1-0.7,4.3-0.7,6.4-0.1c2.1,0.6,3.9,1.9,5.2,3.6
	c-0.7-1.2-1.7-2.3-2.8-3.2c-1.1-0.9-2.4-1.5-3.8-1.8c-1.4-0.3-2.8-0.4-4.2-0.1c-1.4,0.3-2.7,0.8-3.9,1.6c-1.2,0.8-2.2,1.8-3,3
	c-0.8,1.2-1.3,2.5-1.5,3.9c-0.2,1.4-0.2,2.8,0.2,4.2c0.3,1.4,1,2.7,1.8,3.8C489.6,121.5,489.1,119.8,489.1,117.9z"/>
<path class="st32" d="M494.2,118.5c-0.1-0.1-0.1-0.1-0.2-0.1s-0.2,0-0.2,0.1c-0.1,0-0.1,0.1-0.1,0.2c0,0.1,0,0.2,0,0.2
	c0.4,1,1.1,1.9,2,2.5c0.9,0.6,2,1,3.1,1c1.1,0,2.2-0.3,3.1-0.9c0.9-0.6,1.7-1.5,2.1-2.5c0-0.1,0-0.2,0-0.2c0-0.1-0.1-0.2-0.1-0.2
	c-0.1,0-0.2-0.1-0.2-0.1c-0.1,0-0.2,0-0.2,0.1C501.7,120.1,498.3,122.4,494.2,118.5z"/>
<path class="st33" d="M495.9,115.2c-0.2-0.4-0.4-0.7-0.8-0.9c-0.3-0.2-0.7-0.4-1.2-0.4c-0.4,0-0.8,0.1-1.2,0.3
	c-0.3,0.2-0.6,0.5-0.8,0.9c0,0.1,0,0.1,0,0.2c0,0.1,0.1,0.1,0.1,0.2c0.1,0,0.1,0.1,0.2,0.1s0.1,0,0.2-0.1c0.6-0.6,1.6-1.1,2.8,0
	c0.1,0,0.1,0.1,0.2,0.1c0.1,0,0.1,0,0.2-0.1c0.1,0,0.1-0.1,0.1-0.2C495.9,115.3,495.9,115.2,495.9,115.2L495.9,115.2z"/>
<path class="st33" d="M505.5,115.2c-0.2-0.4-0.4-0.7-0.8-0.9c-0.3-0.2-0.7-0.4-1.2-0.4s-0.8,0.1-1.2,0.3c-0.3,0.2-0.6,0.5-0.8,0.9
	c0,0.1,0,0.1,0,0.2c0,0.1,0.1,0.1,0.1,0.2c0.1,0,0.1,0.1,0.2,0.1s0.1,0,0.2-0.1c0.6-0.6,1.6-1.1,2.8,0c0.1,0,0.1,0.1,0.2,0.1
	c0.1,0,0.1,0,0.2-0.1c0.1,0,0.1-0.1,0.1-0.2C505.5,115.3,505.5,115.2,505.5,115.2L505.5,115.2z"/>
<path class="st34" d="M492.5,118.4c0,0.4-0.1,0.8-0.3,1.1c-0.2,0.3-0.5,0.6-0.9,0.7c-0.4,0.1-0.7,0.2-1.1,0.1
	c-0.4-0.1-0.7-0.3-1-0.5c-0.3-0.3-0.5-0.6-0.5-1c-0.1-0.4,0-0.8,0.1-1.1c0.1-0.4,0.4-0.7,0.7-0.9c0.3-0.2,0.7-0.3,1.1-0.3
	c0.3,0,0.5,0.1,0.7,0.1c0.2,0.1,0.5,0.2,0.6,0.4c0.2,0.2,0.3,0.4,0.4,0.6C492.5,117.9,492.5,118.1,492.5,118.4z"/>
<path class="st34" d="M507,120.4c1.1,0,2-0.9,2-2c0-1.1-0.9-2-2-2c-1.1,0-2,0.9-2,2C505.1,119.5,505.9,120.4,507,120.4z"/>
<path class="st29" d="M569.3,201.7c1.4-6.1-2.3-12.1-8.4-13.6c-6.1-1.4-12.1,2.3-13.6,8.4c-1.4,6.1,2.3,12.1,8.4,13.6
	C561.8,211.5,567.9,207.8,569.3,201.7z"/>
<path class="st30" d="M564.2,189.5c1.4,2.2,2,4.7,1.7,7.2c-0.3,2.5-1.4,4.9-3.2,6.7c-1.8,1.8-4.1,3-6.7,3.3
	c-2.5,0.3-5.1-0.2-7.3-1.6c0.9,1.4,2.1,2.6,3.6,3.5c1.4,0.9,3.1,1.4,4.8,1.6c1.7,0.2,3.4,0,5-0.6c1.6-0.6,3-1.5,4.2-2.7
	c1.2-1.2,2.1-2.7,2.6-4.3c0.5-1.6,0.7-3.3,0.5-5c-0.2-1.7-0.8-3.3-1.7-4.7C566.9,191.6,565.7,190.4,564.2,189.5z"/>
<path class="st31" d="M548.6,200.3c0-2.2,0.7-4.3,2-6.1c1.3-1.8,3.1-3.1,5.1-3.8c2.1-0.7,4.3-0.7,6.4-0.1c2.1,0.6,3.9,1.9,5.3,3.6
	c-0.7-1.2-1.7-2.3-2.8-3.2c-1.2-0.9-2.5-1.5-3.9-1.8c-1.4-0.3-2.8-0.4-4.3-0.1c-1.4,0.3-2.8,0.8-3.9,1.6c-1.2,0.8-2.2,1.8-3,3
	c-0.8,1.2-1.3,2.6-1.5,4c-0.2,1.4-0.2,2.9,0.2,4.3c0.3,1.4,1,2.7,1.9,3.8C549.1,203.9,548.6,202.1,548.6,200.3z"/>
<path class="st32" d="M553.7,201.5c-0.1-0.1-0.1-0.1-0.2-0.1c-0.1,0-0.2,0-0.2,0.1c-0.1,0-0.1,0.1-0.1,0.2c0,0.1,0,0.2,0,0.2
	c0.4,1,1.1,1.9,2.1,2.6c0.9,0.6,2,1,3.1,1c1.1,0,2.2-0.3,3.2-0.9c0.9-0.6,1.7-1.5,2.1-2.5c0-0.1,0-0.2,0-0.2s-0.1-0.2-0.1-0.2
	c-0.1,0-0.2-0.1-0.2-0.1c-0.1,0-0.2,0-0.2,0.1C561.3,203.2,557.8,205.5,553.7,201.5z"/>
<path class="st35" d="M566.3,194.8l-4.6,0.4c-0.1,0-0.1,0-0.2,0c0,0-1.5,0.2-3.2,0.3c0,0-0.1,0-0.1,0c-1.6-0.1-3.1-0.3-3.2-0.3
	c-0.1,0-0.1,0-0.2,0l-4.6-0.4c-0.9,0-1.4,0.4-1.4,1.2c0,0,0.3,1.8,0.3,1.8c0.1,0.6,0.2,1.1,0.6,1.7c0.2,0.3,0.5,0.5,0.8,0.7
	c0.2,0.1,0.3,0.1,0.5,0.2c0.2,0,0.3,0,0.5,0c0.1,0,0.4,0,0.5,0h1.5c0.5,0,1-0.1,1.4-0.3c0.7-0.3,1.1-0.9,1.4-1.6
	c0.3-0.6,0.8-1.1,1.4-1.5c0.2-0.1,0.3-0.2,0.5-0.2c0.2,0,0.4,0.1,0.5,0.2c0.3,0.2,0.6,0.4,0.8,0.7c0.2,0.2,0.3,0.4,0.5,0.7
	c0.2,0.3,0.3,0.6,0.4,0.8c0.2,0.3,0.4,0.5,0.6,0.7c0.5,0.3,1,0.5,1.5,0.5c0.1,0,0.1,0,0.2,0h1.5c0.1,0,0.4,0,0.5,0
	c0.2,0,0.3,0,0.5,0c0.2,0,0.3-0.1,0.5-0.2c0.3-0.2,0.6-0.4,0.8-0.7c0.4-0.6,0.5-1.1,0.6-1.7c0,0,0.3-1.8,0.3-1.8
	C567.7,195.2,567.2,194.8,566.3,194.8z"/>
<path class="st36" d="M563,200.4h1.5c0.1,0,0.4,0,0.5,0c0.2,0,0.3,0,0.5,0c0.2,0,0.3-0.1,0.5-0.2c0.3-0.2,0.6-0.4,0.8-0.7
	c0.4-0.6,0.5-1.1,0.6-1.7c0,0,0.3-1.8,0.3-1.8c0-0.1,0-0.2,0-0.3c-2.1,3.3-4.7,4.1-6.3,4.2c0.4,0.3,1,0.4,1.5,0.5
	C562.9,200.4,562.9,200.4,563,200.4z"/>
<path class="st36" d="M550.7,200.2c0.2,0.1,0.3,0.1,0.5,0.2c0.2,0,0.3,0,0.5,0c0.1,0,0.4,0,0.5,0h1.5c0.5,0,1-0.1,1.4-0.3
	c0.7-0.3,1.1-0.9,1.4-1.6c0.1-0.3,0.4-0.6,0.6-0.9c-3,2-5.6,2.3-6.6,2.4C550.5,200.1,550.6,200.1,550.7,200.2z"/>
<path class="st29" d="M601,201.9c0-0.4-0.2-0.9-0.5-1.2c-0.3-0.3-0.7-0.5-1.2-0.5h-0.5c0.2,0,0.4,0,0.7-0.1c0.2-0.1,0.4-0.2,0.6-0.4
	c0.2-0.2,0.3-0.4,0.4-0.6c0.1-0.2,0.1-0.4,0.1-0.7c0-0.4-0.2-0.9-0.5-1.2c-0.3-0.3-0.7-0.5-1.2-0.5H594c1.9-2.6,2-5.6,1.9-6.5
	c-0.1-1.9-2.1-2.6-3-0.9c-0.8,1.4-0.1,3.9-2.4,5.3c-0.4,0.2-0.7,0.4-1.1,0.5c-0.8,0.2-1.6,0.6-2.3,1.1c-0.4,0.3-0.7,0.7-0.9,1.2
	c-0.2,0.3-0.4,0.6-0.7,0.8c-0.3,0.2-0.7,0.3-1,0.3h-5.7c-1.3,0-1.3,1.4-1.3,1.4v7.1c0,0.4,0.2,0.7,0.4,1c0.3,0.3,0.6,0.4,1,0.4h6
	c0.7,0,1.3,0.2,1.8,0.6c1,0.8,2.3,1.2,3.6,1.2h8.2c0.4,0,0.9-0.2,1.2-0.5c0.3-0.3,0.5-0.7,0.5-1.2c0-0.2,0-0.5-0.1-0.7
	c-0.1-0.2-0.2-0.4-0.4-0.6c-0.2-0.2-0.3-0.3-0.6-0.4s-0.4-0.1-0.7-0.1h0.3c0.4,0,0.9-0.2,1.2-0.5c0.3-0.3,0.5-0.7,0.5-1.2
	c0-0.4-0.2-0.9-0.5-1.2c-0.3-0.3-0.7-0.5-1.2-0.5h0.6c0.2,0,0.4,0,0.7-0.1c0.2-0.1,0.4-0.2,0.6-0.4c0.2-0.2,0.3-0.4,0.4-0.6
	C601,202.4,601,202.1,601,201.9z"/>
<path class="st37" d="M578.5,207.1V200c0,0,0-1.4,1.3-1.4h-1.2c-1.3,0-1.3,1.4-1.3,1.4v7.1c0,0.4,0.2,0.7,0.4,1
	c0.3,0.3,0.6,0.4,1,0.4h1.2c-0.4,0-0.7-0.2-1-0.4C578.6,207.8,578.5,207.5,578.5,207.1z"/>
<path class="st38" d="M598.8,196.9h-5.1c-0.4,0-0.9,0.2-1.2,0.5c-0.3,0.3-0.5,0.7-0.5,1.2c0,0.4,0.2,0.9,0.5,1.2
	c0.3,0.3,0.7,0.5,1.2,0.5h5.1c0.2,0,0.4,0,0.6-0.1c0.2-0.1,0.4-0.2,0.5-0.4c0.2-0.2,0.3-0.3,0.4-0.5c0.1-0.2,0.1-0.4,0.1-0.6
	c0-0.2,0-0.4-0.1-0.6c-0.1-0.2-0.2-0.4-0.4-0.5c-0.2-0.2-0.3-0.3-0.5-0.4C599.2,196.9,599,196.9,598.8,196.9z"/>
<path class="st38" d="M599.3,200.3h-5.7c-0.4,0-0.9,0.2-1.2,0.5c-0.3,0.3-0.5,0.7-0.5,1.2c0,0.4,0.2,0.9,0.5,1.2
	c0.3,0.3,0.7,0.5,1.2,0.5h5.7c0.4,0,0.9-0.2,1.2-0.5c0.3-0.3,0.5-0.7,0.5-1.2c0-0.4-0.2-0.9-0.5-1.2
	C600.2,200.5,599.8,200.3,599.3,200.3z"/>
<path class="st38" d="M598.8,203.6h-5.1c-0.4,0-0.9,0.2-1.2,0.5c-0.3,0.3-0.5,0.7-0.5,1.2c0,0.4,0.2,0.9,0.5,1.2
	c0.3,0.3,0.7,0.5,1.2,0.5h5.1c0.2,0,0.4,0,0.6-0.1c0.2-0.1,0.4-0.2,0.5-0.4c0.2-0.2,0.3-0.3,0.4-0.5c0.1-0.2,0.1-0.4,0.1-0.6
	c0-0.2,0-0.4-0.1-0.6c-0.1-0.2-0.2-0.4-0.4-0.5c-0.2-0.2-0.3-0.3-0.5-0.4C599.2,203.7,599,203.6,598.8,203.6z"/>
<path class="st38" d="M600.1,208.7c0-0.4-0.2-0.9-0.5-1.2c-0.3-0.3-0.7-0.5-1.2-0.5h-4.8c-0.4,0-0.9,0.2-1.2,0.5
	c-0.3,0.3-0.5,0.7-0.5,1.2c0,0.4,0.2,0.9,0.5,1.2c0.3,0.3,0.7,0.5,1.2,0.5h4.8c0.4,0,0.9-0.2,1.2-0.5
	C600,209.6,600.1,209.1,600.1,208.7z"/>
<path class="st37" d="M598.8,198.8h-5.1c-0.3,0-0.6-0.1-0.9-0.3c-0.3-0.2-0.5-0.4-0.6-0.7c-0.1,0.3-0.2,0.5-0.2,0.8
	c0,0.3,0.1,0.6,0.2,0.8c0.2,0.2,0.4,0.4,0.6,0.6c0.3,0.1,0.5,0.2,0.8,0.2h5.1c0.2,0,0.4,0,0.6-0.1c0.2-0.1,0.4-0.2,0.5-0.4
	c0.2-0.2,0.3-0.3,0.4-0.5c0.1-0.2,0.1-0.4,0.1-0.6c0-0.3-0.1-0.5-0.2-0.8c-0.1,0.3-0.4,0.5-0.6,0.7
	C599.4,198.7,599.1,198.8,598.8,198.8z"/>
<path class="st37" d="M599.3,202.1h-5.7c-0.3,0-0.6-0.1-0.9-0.3c-0.3-0.2-0.5-0.4-0.6-0.7c-0.1,0.3-0.2,0.5-0.2,0.8s0.1,0.6,0.2,0.8
	c0.2,0.2,0.4,0.4,0.6,0.6c0.3,0.1,0.5,0.2,0.8,0.2h5.7c0.3,0,0.6-0.1,0.8-0.2c0.3-0.1,0.5-0.3,0.6-0.6c0.2-0.2,0.2-0.5,0.2-0.8
	c0-0.3,0-0.6-0.2-0.8c-0.1,0.3-0.4,0.5-0.6,0.7C600,202,599.7,202.1,599.3,202.1z"/>
<path class="st37" d="M598.8,205.5h-5.1c-0.3,0-0.6-0.1-0.9-0.3c-0.3-0.2-0.5-0.4-0.6-0.7c-0.1,0.3-0.2,0.5-0.2,0.8
	c0,0.3,0.1,0.6,0.2,0.8c0.2,0.2,0.4,0.4,0.6,0.6c0.3,0.1,0.5,0.2,0.8,0.2h5.1c0.3,0,0.6-0.1,0.8-0.2c0.3-0.1,0.5-0.3,0.6-0.6
	c0.2-0.2,0.2-0.5,0.2-0.8c0-0.3,0-0.6-0.2-0.8c-0.1,0.3-0.4,0.5-0.6,0.7C599.4,205.4,599.1,205.5,598.8,205.5z"/>
<path class="st37" d="M598.5,208.9h-4.8c-0.3,0-0.6-0.1-0.9-0.3c-0.3-0.2-0.5-0.4-0.6-0.7c-0.1,0.3-0.2,0.5-0.2,0.8
	c0,0.3,0.1,0.6,0.2,0.8c0.2,0.2,0.4,0.4,0.6,0.6c0.3,0.1,0.5,0.2,0.8,0.2h4.8c0.3,0,0.6-0.1,0.8-0.2c0.3-0.1,0.5-0.3,0.6-0.6
	s0.2-0.5,0.2-0.8s0-0.6-0.2-0.8c-0.1,0.3-0.4,0.5-0.6,0.7C599.1,208.8,598.8,208.9,598.5,208.9z"/>
<circle class="st24" cx="398.5" cy="252.6" r="3.3"/>
<circle class="st24" cx="410.1" cy="252.6" r="3.3"/>
<circle class="st24" cx="421.6" cy="252.6" r="3.3"/>
</svg>
