<svg width="23" height="14" viewBox="0 0 23 14" fill="none" xmlns="http://www.w3.org/2000/svg">
<path d="M10.805 7.91677C10.4215 7.35572 9.85477 6.97363 9.07071 6.7485L8.34773 6.54041L9.0281 6.21869C9.59626 5.94952 10.0309 5.60011 10.3185 5.18109C10.6062 4.76207 10.7446 4.23866 10.7446 3.60658C10.7446 3.0093 10.6481 2.50791 10.4606 2.11517C10.2801 1.7369 10.0025 1.41338 9.65591 1.1777C9.26285 0.921551 8.82432 0.743147 8.36406 0.652157C7.7934 0.534199 7.21174 0.477771 6.62905 0.483841H0.42334V13.6765H6.80873C7.39144 13.6777 7.97182 13.603 8.53522 13.4542C9.06356 13.3219 9.56357 13.095 10.011 12.7845C10.4312 12.4871 10.7745 12.094 11.0124 11.6375C11.256 11.1752 11.3803 10.6134 11.3803 9.9664C11.3781 9.15323 11.1907 8.48351 10.805 7.91677ZM2.88489 2.26005H6.00408C6.2815 2.25726 6.55856 2.28104 6.83146 2.33107C7.10009 2.37419 7.35816 2.46768 7.59208 2.60662C7.83287 2.7478 8.03074 2.9518 8.1645 3.1968C8.30916 3.4825 8.37973 3.79997 8.36975 4.12005C8.36975 4.79545 8.15669 5.29401 7.73696 5.60082C7.33854 5.89342 6.83288 6.04185 6.2356 6.04185H2.88489V2.26005ZM8.70851 10.8215C8.57306 11.0853 8.37202 11.3098 8.12473 11.4734C7.87808 11.6364 7.60216 11.75 7.31226 11.8079C7.0129 11.8725 6.70731 11.9037 6.40108 11.901H2.88489V7.54392H6.46002C7.17661 7.54392 7.76608 7.71508 8.2135 8.05455C8.68294 8.41604 8.9237 9.00267 8.9237 9.79809C8.9237 10.2107 8.85126 10.5559 8.70993 10.8215H8.70851Z" fill="#212121"/>
<path d="M22.226 9.35352C22.2481 8.72627 22.1824 8.09901 22.0307 7.48996C21.8727 6.84423 21.591 6.23525 21.2012 5.69671C20.8172 5.17621 20.3169 4.75257 19.7403 4.45955C19.1551 4.15416 18.4541 3.99934 17.6573 3.99934C16.9829 3.98911 16.3137 4.11923 15.6922 4.38142C15.1201 4.6263 14.6025 4.98265 14.1695 5.42968C13.7381 5.88119 13.4038 6.41633 13.1873 7.00206C12.9512 7.63652 12.8326 8.30868 12.8372 8.98564C12.8306 9.67498 12.9462 10.36 13.1788 11.009C13.3875 11.5885 13.7109 12.1199 14.1297 12.5714C14.554 13.0113 15.0687 13.354 15.6382 13.5757C16.2836 13.82 16.9694 13.9404 17.6594 13.9307C18.7297 13.9307 19.648 13.685 20.3909 13.2C21.0542 12.7738 21.5563 12.1013 21.9206 11.1517H20.1039C19.9619 11.45 19.7055 11.7291 19.3419 11.9841C18.8728 12.3017 18.3166 12.4655 17.7503 12.4528C16.908 12.4528 16.2454 12.2234 15.7824 11.7703C15.3193 11.3172 15.0189 10.492 15.0189 9.63334V9.34926L22.226 9.35352ZM14.999 8.19732L15.0189 7.89406C15.0385 7.65175 15.084 7.41223 15.1546 7.17961C15.2388 6.88548 15.3818 6.6115 15.575 6.37424C15.7907 6.11641 16.0565 5.905 16.3562 5.75282C16.6879 5.58095 17.087 5.49786 17.5756 5.49786C18.3327 5.49786 18.9577 5.72796 19.3355 6.14627C19.7346 6.59014 19.9747 7.17605 20.0379 7.88625L20.067 8.19732H14.999Z" fill="#212121"/>
<path d="M19.895 1.4071H15.1694C15.0909 1.4071 15.0273 1.4707 15.0273 1.54914V2.0548C15.0273 2.13325 15.0909 2.19684 15.1694 2.19684H19.895C19.9735 2.19684 20.0371 2.13325 20.0371 2.0548V1.54914C20.0371 1.4707 19.9735 1.4071 19.895 1.4071Z" fill="#212121"/>
</svg>
