<svg width="11" height="24" viewBox="0 0 11 24" fill="none" xmlns="http://www.w3.org/2000/svg">
<path d="M4.24551 23.3815C2.03916 23.3815 0.244141 21.5865 0.244141 19.3801V5.95333C0.244141 3.01152 2.63749 0.618164 5.5793 0.618164C8.52111 0.618164 10.9145 3.01152 10.9145 5.95333V19.3801H9.58067V5.95333C9.58067 3.74697 7.78566 1.95195 5.5793 1.95195C3.37295 1.95195 1.57793 3.74697 1.57793 5.95333V19.3801C1.57793 20.8511 2.77461 22.0477 4.24551 22.0477C5.71642 22.0477 6.91309 20.8511 6.91309 19.3801V8.62091C6.91309 7.88545 6.31475 7.28712 5.5793 7.28712C4.84385 7.28712 4.24551 7.88545 4.24551 8.62091V19.3801H2.91172V8.62091C2.91172 7.15 4.1084 5.95333 5.5793 5.95333C7.05021 5.95333 8.24688 7.15 8.24688 8.62091V19.3801C8.24688 21.5865 6.45187 23.3815 4.24551 23.3815Z" fill="#333333"/>
</svg>
