<svg width="18" height="18" viewBox="0 0 18 18" fill="none" xmlns="http://www.w3.org/2000/svg">
<path fill-rule="evenodd" clip-rule="evenodd" d="M17.2653 0.915669C17.6559 1.30619 17.6559 1.93936 17.2653 2.32988L2.70961 16.8856C2.31908 17.2761 1.68592 17.2761 1.29539 16.8856C0.904868 16.4951 0.904868 15.8619 1.29539 15.4714L15.8511 0.915669C16.2416 0.525145 16.8748 0.525145 17.2653 0.915669Z" fill="#858585"/>
<path fill-rule="evenodd" clip-rule="evenodd" d="M1.26653 0.915452C0.876002 1.30598 0.876002 1.93914 1.26653 2.32967L15.8223 16.8854C16.2128 17.2759 16.8459 17.2759 17.2365 16.8854C17.627 16.4949 17.627 15.8617 17.2365 15.4712L2.68074 0.915452C2.29022 0.524928 1.65705 0.524928 1.26653 0.915452Z" fill="#858585"/>
</svg>
