<svg width="9" height="9" viewBox="0 0 9 9" fill="none" xmlns="http://www.w3.org/2000/svg">
<g opacity="0.3">
<path d="M8.31108 6.39756C8.72244 6.80891 8.72244 7.47584 8.31108 7.8872C7.89973 8.29855 7.2328 8.29855 6.82145 7.8872L0.862897 1.92865C0.451544 1.51729 0.451544 0.850359 0.862896 0.439007C1.27425 0.0276552 1.94118 0.0276551 2.35253 0.439007L8.31108 6.39756Z" fill="#434343"/>
<path d="M2.35253 7.8872C1.94118 8.29855 1.27425 8.29855 0.862896 7.8872C0.451544 7.47584 0.451544 6.80891 0.862896 6.39756L6.82145 0.439008C7.2328 0.0276556 7.89973 0.0276559 8.31109 0.439008C8.72244 0.85036 8.72244 1.51729 8.31109 1.92865L2.35253 7.8872Z" fill="#434343"/>
</g>
</svg>
