<svg width="52" height="20" viewBox="0 0 52 20" fill="none" xmlns="http://www.w3.org/2000/svg">
<path d="M12.5769 0.382762V18.798C12.5776 18.84 12.5674 18.8813 12.5472 18.9181C12.527 18.9549 12.4977 18.9858 12.462 19.0077C12.4262 19.0297 12.3854 19.042 12.3435 19.0434C12.3016 19.0449 12.2601 19.0354 12.2229 19.0159L8.75262 17.2782C8.71232 17.2582 8.67838 17.2274 8.65463 17.1892C8.63087 17.151 8.61825 17.107 8.61816 17.062V2.12047C8.61825 2.0755 8.63087 2.03144 8.65463 1.99326C8.67838 1.95507 8.71232 1.92427 8.75262 1.90432L12.2229 0.166612C12.2599 0.14719 12.3013 0.137691 12.3431 0.139043C12.3848 0.140394 12.4255 0.152551 12.4612 0.174326C12.4969 0.1961 12.5263 0.226749 12.5466 0.263281C12.5668 0.299812 12.5773 0.340979 12.5769 0.382762Z" fill="#9DA4A7"/>
<path d="M39.909 6.98289V18.7996C39.909 18.8409 39.8985 18.8816 39.8784 18.9177C39.8583 18.9538 39.8293 18.9841 39.7941 19.0058C39.759 19.0274 39.7188 19.0398 39.6775 19.0415C39.6363 19.0433 39.5952 19.0344 39.5584 19.0158L36.0846 17.2781C36.0443 17.2581 36.0104 17.2273 35.9867 17.1891C35.9629 17.151 35.9503 17.1069 35.9502 17.0619V6.98289C35.9502 6.91879 35.9757 6.85732 36.021 6.812C36.0663 6.76667 36.1278 6.74121 36.1919 6.74121H39.6673C39.7314 6.74121 39.7929 6.76667 39.8382 6.812C39.8835 6.85732 39.909 6.91879 39.909 6.98289Z" fill="#9DA4A7"/>
<path d="M35.155 18.3845L35.0869 18.4355C34.8603 18.6006 34.6166 18.741 34.3602 18.8542C34.1638 18.9403 33.9605 19.0098 33.7526 19.0619C33.1679 19.2128 32.5564 19.2279 31.965 19.106C31.3736 18.9841 30.8179 18.7285 30.3405 18.3587C29.8631 17.9889 29.4767 17.5148 29.2108 16.9726C28.945 16.4304 28.8067 15.8346 28.8066 15.2307V7.01536C28.8066 6.95156 28.8319 6.89034 28.8768 6.84507C28.9218 6.79979 28.9828 6.77413 29.0466 6.77368L31.2762 6.80942H32.5169C32.5305 6.80811 32.5442 6.80811 32.5578 6.80942C32.6124 6.82042 32.6616 6.84998 32.697 6.8931C32.7324 6.93621 32.7517 6.99023 32.7518 7.046V9.90189C32.7506 9.91719 32.7506 9.93255 32.7518 9.94785V16.383C32.7506 16.3983 32.7506 16.4136 32.7518 16.4289C32.7642 16.9078 32.9631 17.363 33.3061 17.6974C33.6491 18.0318 34.1092 18.2191 34.5882 18.2194H34.9712H35.0682C35.0888 18.2151 35.1103 18.2177 35.1293 18.2266C35.1484 18.2356 35.164 18.2506 35.1738 18.2692C35.1836 18.2879 35.1871 18.3092 35.1837 18.33C35.1803 18.3508 35.1702 18.3699 35.155 18.3845Z" fill="#9DA4A7"/>
<path d="M7.74656 8.23381C7.53011 8.14697 7.299 8.10248 7.06578 8.10276H6.78836C6.54632 8.10275 6.30666 8.15051 6.0831 8.24329C5.85955 8.33607 5.65651 8.47205 5.4856 8.64343C5.31468 8.81482 5.17927 9.01824 5.08711 9.24205C4.99495 9.46585 4.94786 9.70565 4.94853 9.94768V16.3828C4.94943 16.8702 5.14367 17.3373 5.48861 17.6816C5.83354 18.0259 6.30099 18.2192 6.78836 18.2192H7.1713H7.26831C7.28889 18.2171 7.30962 18.2216 7.32748 18.232C7.34533 18.2425 7.35937 18.2584 7.36755 18.2774C7.37572 18.2964 7.3776 18.3175 7.37292 18.3377C7.36823 18.3578 7.35722 18.376 7.34149 18.3894L7.27342 18.4405C6.68278 18.8688 5.98522 19.1256 5.25781 19.1823C4.53041 19.239 3.80149 19.0935 3.1516 18.7618C2.50171 18.4302 1.95617 17.9254 1.57526 17.3031C1.19434 16.6808 0.99289 15.9653 0.993164 15.2357V10.8361C0.993164 8.64568 2.78704 6.79735 4.97576 6.80926C6.01602 6.81536 7.0118 7.2319 7.74656 7.9683C7.7823 8.00404 7.81975 8.04319 7.85379 8.08233C7.86651 8.09877 7.87362 8.11886 7.87406 8.13964C7.87451 8.16042 7.86827 8.1808 7.85626 8.19777C7.84425 8.21473 7.8271 8.22739 7.80736 8.23388C7.78761 8.24037 7.76629 8.24034 7.74656 8.23381Z" fill="#9DA4A7"/>
<path d="M51.0664 15.0621C51.0664 16.1469 50.7714 17.0449 50.1814 17.7563C50.0929 17.8585 50.0112 17.9538 49.9074 18.0491C49.2079 18.7299 48.3109 19.0958 47.2217 19.1656C47.2185 19.1672 47.215 19.1681 47.2115 19.1681C47.2079 19.1681 47.2044 19.1672 47.2012 19.1656L47.0991 19.1741C47.0276 19.1741 46.9545 19.1741 46.8813 19.1741H46.677C45.9759 19.1499 45.2782 19.0639 44.5921 18.9171L44.4934 18.8967C43.9741 18.7622 43.4659 18.5894 42.9727 18.3798C42.6355 18.2365 42.4228 17.9047 42.4076 17.5387L42.3103 15.2036C42.3072 15.1302 42.3659 15.0689 42.4394 15.0689C42.5373 15.0689 42.6265 15.1244 42.6718 15.2111C43.1539 16.135 43.7847 16.9737 44.5394 17.6934C45.177 18.2993 45.8442 18.6595 46.5409 18.7741C46.7023 18.8008 46.8657 18.8139 47.0293 18.8133C47.111 18.8133 47.1995 18.8133 47.2744 18.8031H47.3153C47.3444 18.8027 47.3734 18.7999 47.4021 18.7945C47.5547 18.7807 47.705 18.7481 47.8497 18.6975C47.9106 18.6806 47.9703 18.6596 48.0284 18.6346C48.0744 18.6158 48.1203 18.5971 48.1629 18.575C48.2343 18.5393 48.299 18.5018 48.3654 18.461C48.5535 18.3387 48.7212 18.1877 48.8624 18.0133C48.9005 17.9705 48.9363 17.9256 48.9696 17.8789C49.0019 17.8295 49.036 17.7836 49.0649 17.7359C49.1709 17.487 49.2226 17.2184 49.2164 16.9479C49.2301 16.6666 49.1716 16.3865 49.0465 16.1342C48.9214 15.8818 48.7338 15.6657 48.5015 15.5064C47.8729 15.1063 47.183 14.8119 46.4592 14.6349C45.8112 14.4663 45.1764 14.2507 44.5598 13.9899C44.244 13.8439 43.945 13.6642 43.668 13.4538C43.588 13.3959 43.508 13.3295 43.428 13.2649C42.7075 12.668 42.3472 11.7427 42.3472 10.489C42.3451 10.0842 42.4089 9.68181 42.5362 9.29758C42.5532 9.25163 42.5702 9.20567 42.5906 9.15972C42.6504 9.0041 42.7197 8.85233 42.7983 8.7053C42.7983 8.69679 42.8068 8.68657 42.8119 8.67636C42.9857 8.37605 43.198 8.0997 43.4433 7.85431C43.9653 7.33432 44.6331 6.9853 45.358 6.85356C45.7116 6.78347 46.0714 6.74926 46.432 6.75144C46.6345 6.75144 46.8455 6.76165 47.0549 6.78208C47.4184 6.81746 47.7789 6.87831 48.1339 6.96419C48.1471 6.96917 48.1608 6.9726 48.1748 6.9744C48.2633 6.99652 48.3637 7.02205 48.4709 7.05439C49.0689 7.23516 49.651 7.46476 50.2114 7.74087C50.217 7.74363 50.2205 7.74935 50.2205 7.7556L50.2699 9.16142L50.3081 10.3015C50.3105 10.3714 50.2544 10.4294 50.1845 10.4294C50.0935 10.4294 50.01 10.3793 49.9658 10.2997C49.6578 9.74442 49.3065 9.21413 48.9151 8.71381C48.7386 8.48818 48.55 8.27228 48.3501 8.06706L48.3041 8.02111C47.7005 7.41748 47.0447 7.11566 46.3366 7.11566C45.6286 7.11566 45.0789 7.27905 44.6874 7.60583C44.4987 7.7662 44.3489 7.96733 44.2492 8.19405C44.1496 8.42077 44.1027 8.66716 44.1122 8.91464C44.1036 9.16829 44.164 9.41951 44.2869 9.64158C44.4098 9.86366 44.5905 10.0483 44.81 10.1758C45.3451 10.497 45.9242 10.7384 46.529 10.8923C46.6481 10.923 46.7587 10.9536 46.8694 10.9842C47.3629 11.1187 47.6948 11.214 47.8718 11.2719C48.0851 11.3399 48.3501 11.4341 48.6666 11.5544C48.9381 11.653 49.1983 11.7802 49.4427 11.9339C49.668 12.0841 49.8814 12.2514 50.081 12.4343C50.2954 12.6222 50.4736 12.8477 50.6069 13.0998C50.927 13.7032 51.0853 14.3793 51.0664 15.0621Z" fill="#9DA4A7"/>
<path d="M26.8307 13.1185C26.8307 13.0726 26.8307 13.0266 26.8307 12.9807C26.8307 12.9347 26.8307 12.8581 26.8307 12.7969C26.8307 12.7356 26.8307 12.7084 26.8307 12.6641C26.8307 12.5705 26.8205 12.4752 26.8103 12.3816L26.8001 12.2778L26.7899 12.1978C26.7899 12.1467 26.7831 12.0956 26.7694 12.0446C26.7694 11.9935 26.7541 11.9425 26.7439 11.8931C26.7337 11.8438 26.732 11.8267 26.7252 11.7927C26.7184 11.7587 26.7082 11.7025 26.698 11.6565C26.6724 11.534 26.6418 11.4132 26.6078 11.2923L26.5669 11.1528L26.5193 11.0081C26.5039 10.9604 26.4869 10.9145 26.4699 10.8668C26.4359 10.7732 26.4001 10.6796 26.361 10.586L26.315 10.4771C26.2895 10.4175 26.2623 10.3579 26.2333 10.3069C26.2044 10.2558 26.1669 10.1673 26.1295 10.1009C26.0546 9.95457 25.9712 9.8099 25.8827 9.67034C25.8572 9.62779 25.83 9.58695 25.8027 9.5461C25.7551 9.47462 25.7074 9.40484 25.6564 9.33506L25.5832 9.23464L25.5372 9.17507C25.51 9.13933 25.4828 9.10359 25.4538 9.06955C25.3296 8.91637 25.2002 8.7683 25.0624 8.62874L24.9705 8.53683C24.8956 8.46365 24.8207 8.39217 24.7424 8.32409C24.7067 8.29005 24.6692 8.25771 24.6318 8.22708L24.6062 8.20495C24.5393 8.14822 24.4712 8.09149 24.402 8.03475L24.2846 7.94625C24.1654 7.85775 24.0429 7.77435 23.917 7.69606C23.8761 7.67053 23.8336 7.6433 23.791 7.61947L23.6634 7.54459C23.6191 7.51906 23.5766 7.49523 23.5323 7.47311C23.4881 7.45098 23.4455 7.42715 23.4013 7.40503C23.357 7.3829 23.311 7.36078 23.2668 7.33865C23.2225 7.31652 23.1766 7.2961 23.1306 7.27738L22.9945 7.21781C22.9009 7.17867 22.809 7.14292 22.7137 7.10888L22.5724 7.05953L22.4277 7.01357L22.2831 6.97103C22.1861 6.94379 22.0873 6.91826 21.9886 6.89614L21.8695 6.87061L21.6891 6.83657C21.587 6.81785 21.4865 6.80253 21.3827 6.79062L21.2295 6.7719L21.0049 6.75317H20.9538H20.7598H20.4807H20.3224C19.3497 6.79508 18.4003 7.06403 17.5502 7.53852C16.7 8.013 15.9727 8.67985 15.4264 9.48573C14.8801 10.2916 14.53 11.2141 14.404 12.1796C14.278 13.145 14.3798 14.1265 14.701 15.0455C15.0222 15.9646 15.5541 16.7957 16.254 17.4725C16.954 18.1492 17.8026 18.6527 18.732 18.9428C19.6613 19.2329 20.6457 19.3015 21.6063 19.143C22.5669 18.9846 23.4771 18.6036 24.2642 18.0304L24.3629 17.9555C24.4429 17.8942 24.5229 17.8347 24.5977 17.7717C24.6233 17.753 24.6471 17.7326 24.6726 17.7104L24.7339 17.6526L24.7526 17.6372C24.7593 17.6327 24.7655 17.6275 24.7713 17.6219C24.8496 17.5521 24.9262 17.479 25.0011 17.4041C25.3501 17.0548 25.6571 16.6658 25.9156 16.2451C25.9196 16.2385 25.9218 16.23 25.917 16.2239C25.9144 16.2208 25.9111 16.2183 25.9074 16.2168C25.9037 16.2152 25.8996 16.2147 25.8956 16.2152C25.8915 16.2156 25.8877 16.2171 25.8844 16.2195L25.864 16.2348L25.6683 16.4135C25.2674 16.816 24.7895 17.1334 24.2631 17.3469C23.7367 17.5604 23.1727 17.6655 22.6047 17.656C21.9379 17.6564 21.2805 17.4992 20.686 17.1972C20.0914 16.8952 19.5767 16.457 19.1838 15.9183C19.0303 15.7119 18.897 15.4913 18.7855 15.2596C18.5075 14.685 18.3637 14.0547 18.3651 13.4164V13.1185H26.8307ZM20.4892 7.32163C21.0507 7.32298 21.5888 7.547 21.9854 7.94456C22.382 8.34211 22.6047 8.88073 22.6047 9.44228V12.8751H18.3685V9.44228C18.3685 8.87985 18.592 8.34045 18.9897 7.94275C19.3874 7.54506 19.9268 7.32163 20.4892 7.32163Z" fill="#9DA4A7"/>
</svg>
