<svg width="17" height="15" viewBox="0 0 17 15" fill="none" xmlns="http://www.w3.org/2000/svg">
<path d="M8.02159 4.39946C5.97926 4.39946 4.25071 5.34099 3.1602 6.13096C1.86821 7.06686 1.20334 7.97214 1.03094 8.31743C1.20353 8.66269 1.86819 9.56797 3.1602 10.5039C4.25071 11.2938 5.97926 12.2354 8.02159 12.2354C10.0639 12.2354 11.7924 11.2938 12.883 10.5039C14.1752 9.56797 14.8398 8.66269 15.0125 8.31743C14.8398 7.97214 14.1752 7.06686 12.8832 6.13096C11.7924 5.34099 10.0639 4.39946 8.02159 4.39946ZM8.02159 3.41995C12.4343 3.41995 16.0117 7.33792 16.0117 8.31743C16.0117 9.29693 12.4343 13.2149 8.02159 13.2149C3.60884 13.2149 0.0314331 9.29691 0.0314331 8.31743C0.0314331 7.33795 3.60882 3.41995 8.02159 3.41995ZM8.02159 5.37896C9.62616 5.37896 10.9271 6.69465 10.9271 8.31743C10.9271 9.94017 9.62616 11.2559 8.02159 11.2559C6.41702 11.2559 5.11609 9.94017 5.11609 8.31743C5.11609 6.69465 6.41702 5.37896 8.02159 5.37896ZM8.80389 8.31743C9.48281 8.31743 10.0332 7.76082 10.0332 7.07419C10.0332 6.38757 9.48281 5.83099 8.80389 5.83099C8.12497 5.83099 7.57461 6.3876 7.57461 7.07419C7.57461 7.76082 8.12497 8.31743 8.80389 8.31743Z" fill="#333333"/>
</svg>
