<svg width="21" height="21" viewBox="0 0 21 21" fill="none" xmlns="http://www.w3.org/2000/svg">
<path d="M9.473 2.14047C9.8579 1.47381 10.8201 1.47381 11.205 2.14047L18.0886 14.0631C18.4735 14.7297 17.9923 15.5631 17.2225 15.5631H3.45551C2.68571 15.5631 2.20458 14.7297 2.58948 14.0631L9.473 2.14047Z" fill="#F38787"/>
<path d="M10.7289 11.2893H9.88958L9.8303 6.52467C9.82697 6.25657 10.0434 6.03745 10.3115 6.03745C10.5798 6.03745 10.7963 6.25685 10.7927 6.52513L10.7289 11.2893ZM9.78906 12.8875C9.78906 12.7368 9.83429 12.6111 9.92476 12.5106C10.0186 12.4067 10.1559 12.3548 10.3369 12.3548C10.5178 12.3548 10.6552 12.4067 10.749 12.5106C10.8428 12.6111 10.8897 12.7368 10.8897 12.8875C10.8897 13.0383 10.8428 13.1639 10.749 13.2645C10.6552 13.3616 10.5178 13.4102 10.3369 13.4102C10.1559 13.4102 10.0186 13.3616 9.92476 13.2645C9.83429 13.1639 9.78906 13.0383 9.78906 12.8875Z" fill="white"/>
</svg>
