<svg width="8" height="15" viewBox="0 0 8 15" fill="none" xmlns="http://www.w3.org/2000/svg">
<path d="M7.42426 2.55765C7.42426 2.66807 7.33477 2.7576 7.22435 2.75765L6.13448 2.7581C5.1235 2.7581 4.9277 3.2386 4.9277 3.94382V5.29867C4.9277 5.40912 5.01724 5.49867 5.1277 5.49867H7.13924C7.24972 5.49867 7.33927 5.58825 7.33924 5.69873L7.33864 7.73407C7.33861 7.84451 7.24908 7.93401 7.13864 7.93401H5.1277C5.01724 7.93401 4.9277 8.02356 4.9277 8.13401V13.9834C4.9277 14.0938 4.83815 14.1834 4.7277 14.1834H2.61256C2.50211 14.1834 2.41256 14.0938 2.41256 13.9834V8.13401C2.41256 8.02356 2.32302 7.93401 2.21256 7.93401H0.50957C0.399113 7.93401 0.30957 7.84447 0.30957 7.73401V5.69867C0.30957 5.58821 0.399113 5.49867 0.50957 5.49867H2.21256C2.32302 5.49867 2.41256 5.40912 2.41256 5.29867V3.70268C2.41256 1.61843 3.68575 0.483398 5.54474 0.483398L7.22459 0.48611C7.33492 0.486289 7.42426 0.575779 7.42426 0.68611V2.55765Z" fill="#212121"/>
</svg>
