<svg width="13" height="15" viewBox="0 0 13 15" fill="none" xmlns="http://www.w3.org/2000/svg">
<path d="M6.75446 7.51204C4.93707 7.51204 3.4585 6.01681 3.4585 4.1788C3.4585 2.3408 4.93707 0.845444 6.75446 0.845444C8.57184 0.845444 10.0504 2.3408 10.0504 4.1788C10.0504 6.01681 8.57184 7.51204 6.75446 7.51204ZM6.75446 1.84544C5.48228 1.84544 4.44727 2.89207 4.44727 4.1788C4.44727 5.46542 5.48228 6.51204 6.75446 6.51204C8.02664 6.51204 9.06164 5.46542 9.06164 4.1788C9.06164 2.89207 8.02664 1.84544 6.75446 1.84544Z" fill="#333333"/>
<path d="M12.1928 14.8454H1.31617C1.04326 14.8454 0.821777 14.6214 0.821777 14.3454V12.012C0.821777 10.2661 2.2265 8.84541 3.95288 8.84541H9.55606C11.2824 8.84541 12.6872 10.2661 12.6872 12.012V14.3454C12.6872 14.6214 12.4657 14.8454 12.1928 14.8454ZM1.81056 13.8454H11.6984V12.012C11.6984 10.8175 10.7372 9.84541 9.55606 9.84541H3.95288C2.7717 9.84541 1.81056 10.8175 1.81056 12.012V13.8454Z" fill="#333333"/>
</svg>
