<svg width="70" height="30" viewBox="0 0 70 30" fill="none" xmlns="http://www.w3.org/2000/svg">
<path d="M2.52476 2.0026V11.0946C2.52476 11.2783 2.43292 11.3702 2.24924 11.3702H0.288212C0.104534 11.3702 0.0126953 11.2783 0.0126953 11.0946V0.317084C0.0126953 0.122601 0.104534 0.0253601 0.288212 0.0253601H7.22475C7.41923 0.0253601 7.51647 0.117199 7.51647 0.300877V1.72708C7.51647 1.91076 7.41923 2.0026 7.22475 2.0026H2.52476Z" fill="#1EB795"/>
<path d="M6.75893 9.7981C6.75893 9.63603 6.83456 9.5658 6.98582 9.58741C7.19111 9.60902 7.38559 9.62522 7.56927 9.63603C7.75295 9.64683 7.93662 9.65223 8.1203 9.65223C8.55248 9.65223 8.828 9.55499 8.94685 9.36051C9.07651 9.15522 9.14133 8.8689 9.14133 8.50155V3.28294C9.14133 3.07765 9.23858 2.97501 9.43306 2.97501H15.2513C15.4458 2.97501 15.543 3.07765 15.543 3.28294V11.0946C15.543 11.2783 15.4512 11.3702 15.2675 11.3702H13.4524C13.2687 11.3702 13.1768 11.2783 13.1768 11.0946V4.82259H11.5075V8.06396C11.5075 8.50695 11.4913 8.93913 11.4589 9.36051C11.4265 9.77108 11.3185 10.1384 11.1348 10.4626C10.9619 10.7759 10.6864 11.0298 10.3082 11.2243C9.94087 11.408 9.41685 11.4998 8.73616 11.4998C8.47685 11.4998 8.20674 11.4782 7.92582 11.435C7.65571 11.3918 7.38019 11.3269 7.09927 11.2405C7.00203 11.2081 6.92099 11.1649 6.85617 11.1109C6.79134 11.046 6.75893 10.9596 6.75893 10.8515V9.7981Z" fill="#1EB795"/>
<path d="M22.5644 6.32983C22.5644 6.0273 22.5374 5.77339 22.4834 5.56811C22.4402 5.35201 22.3375 5.17914 22.1754 5.04949C22.0134 4.91983 21.7811 4.82799 21.4786 4.77397C21.176 4.71995 20.7709 4.69294 20.263 4.69294C19.9173 4.69294 19.5715 4.70914 19.2258 4.74156C18.8801 4.76317 18.5883 4.80098 18.3506 4.855C18.2642 4.87661 18.194 4.87121 18.1399 4.8388C18.0859 4.80638 18.0589 4.74156 18.0589 4.64431V3.54225C18.0589 3.39098 18.1345 3.29374 18.2858 3.25052C18.7612 3.11007 19.2204 3.00742 19.6634 2.94259C20.1064 2.87777 20.5277 2.84535 20.9275 2.84535C21.6622 2.84535 22.2835 2.91018 22.7913 3.03984C23.2991 3.15869 23.7097 3.35317 24.023 3.62328C24.3472 3.88259 24.5795 4.21753 24.7199 4.62811C24.8604 5.02788 24.9306 5.50868 24.9306 6.07052V10.3653C24.9306 10.8083 24.7739 11.0676 24.4606 11.1433C24.0068 11.2621 23.472 11.3486 22.8561 11.4026C22.2403 11.4674 21.6514 11.4998 21.0896 11.4998C20.3873 11.4998 19.793 11.4512 19.3068 11.354C18.8206 11.2459 18.4263 11.0838 18.1237 10.8677C17.8212 10.6517 17.5997 10.3761 17.4593 10.0412C17.3296 9.70626 17.2648 9.30109 17.2648 8.82568C17.2648 7.9289 17.5241 7.26442 18.0427 6.83224C18.5613 6.40006 19.2852 6.18397 20.2144 6.18397C20.6358 6.18397 21.0518 6.22178 21.4623 6.29741C21.8729 6.37305 22.2403 6.47569 22.5644 6.60534V6.32983ZM19.4689 8.80948C19.4689 9.11201 19.5823 9.3281 19.8092 9.45775C20.0469 9.58741 20.4845 9.65223 21.122 9.65223C21.3921 9.65223 21.6352 9.64683 21.8513 9.63603C22.0782 9.62522 22.3159 9.59821 22.5644 9.55499V8.03155C22.1106 7.96672 21.6028 7.93431 21.041 7.93431C20.7168 7.93431 20.4521 7.95592 20.2468 7.99913C20.0415 8.03155 19.8795 8.08557 19.7606 8.1612C19.6526 8.22603 19.5769 8.31787 19.5337 8.43672C19.4905 8.54477 19.4689 8.66902 19.4689 8.80948Z" fill="#1EB795"/>
<path d="M27.4948 11.2081C27.2031 11.1433 27.0573 10.9164 27.0573 10.5274V3.81777C27.0573 3.43961 27.2085 3.21811 27.511 3.15328C28.0189 3.03443 28.5861 2.9534 29.2128 2.91018C29.8502 2.86696 30.4283 2.84535 30.9469 2.84535C31.5195 2.84535 32.0382 2.89397 32.5028 2.99122C32.9782 3.08846 33.3779 3.23972 33.7021 3.44501C34.037 3.63949 34.2963 3.8934 34.48 4.20673C34.6637 4.52006 34.7555 4.89282 34.7555 5.325C34.7555 5.67075 34.6907 5.97328 34.561 6.23259C34.4314 6.48109 34.2099 6.69718 33.8965 6.88086C34.3287 7.09695 34.6421 7.37247 34.8365 7.70741C35.031 8.03155 35.1283 8.42051 35.1283 8.8743C35.1283 9.8035 34.7825 10.4734 34.091 10.884C33.3995 11.2945 32.4541 11.4998 31.2548 11.4998C30.9523 11.4998 30.6282 11.4944 30.2824 11.4836C29.9475 11.4728 29.6125 11.4566 29.2776 11.435C28.9535 11.4134 28.6347 11.3864 28.3214 11.354C28.0189 11.3107 27.7433 11.2621 27.4948 11.2081ZM30.9631 9.8143C31.5574 9.8143 32.0057 9.76568 32.3083 9.66844C32.6216 9.5712 32.7783 9.31189 32.7783 8.89051C32.7783 8.51235 32.6594 8.24764 32.4217 8.09638C32.184 7.94511 31.8383 7.86948 31.3845 7.86948H29.4235V9.73327C29.6828 9.75488 29.9475 9.77649 30.2176 9.7981C30.4985 9.8089 30.747 9.8143 30.9631 9.8143ZM30.5903 4.53087C30.4175 4.53087 30.223 4.53627 30.0069 4.54707C29.8016 4.55788 29.6071 4.57949 29.4235 4.6119V6.18397H30.9307C31.4169 6.18397 31.7789 6.12994 32.0166 6.0219C32.2651 5.90305 32.3893 5.67075 32.3893 5.325C32.3893 5.13052 32.3407 4.97926 32.2434 4.87121C32.157 4.76317 32.0328 4.68753 31.8707 4.64431C31.7194 4.59029 31.5303 4.55788 31.3035 4.54707C31.0874 4.53627 30.8497 4.53087 30.5903 4.53087Z" fill="#1EB795"/>
<path d="M44.4069 11.0946C44.4069 11.2783 44.3151 11.3702 44.1314 11.3702H42.3163C42.1326 11.3702 42.0407 11.2783 42.0407 11.0946V7.83707H39.2045V11.0946C39.2045 11.2783 39.1127 11.3702 38.929 11.3702H37.1139C36.9302 11.3702 36.8383 11.2783 36.8383 11.0946V3.26673C36.8383 3.07225 36.9302 2.97501 37.1139 2.97501H38.929C39.1127 2.97501 39.2045 3.07225 39.2045 3.26673V5.98948H42.0407V3.26673C42.0407 3.07225 42.1326 2.97501 42.3163 2.97501H44.1314C44.3151 2.97501 44.4069 3.07225 44.4069 3.26673V11.0946Z" fill="#1EB795"/>
<path d="M51.417 6.32983C51.417 6.0273 51.39 5.77339 51.336 5.56811C51.2928 5.35201 51.1901 5.17914 51.0281 5.04949C50.866 4.91983 50.6337 4.82799 50.3312 4.77397C50.0287 4.71995 49.6235 4.69294 49.1157 4.69294C48.7699 4.69294 48.4242 4.70914 48.0784 4.74156C47.7327 4.76317 47.441 4.80098 47.2033 4.855C47.1168 4.87661 47.0466 4.87121 46.9926 4.8388C46.9386 4.80638 46.9115 4.74156 46.9115 4.64431V3.54225C46.9115 3.39098 46.9872 3.29374 47.1384 3.25052C47.6138 3.11007 48.073 3.00742 48.516 2.94259C48.959 2.87777 49.3804 2.84535 49.7802 2.84535C50.5149 2.84535 51.1361 2.91018 51.6439 3.03984C52.1518 3.15869 52.5623 3.35317 52.8757 3.62328C53.1998 3.88259 53.4321 4.21753 53.5726 4.62811C53.713 5.02788 53.7832 5.50868 53.7832 6.07052V10.3653C53.7832 10.8083 53.6266 11.0676 53.3132 11.1433C52.8595 11.2621 52.3246 11.3486 51.7088 11.4026C51.0929 11.4674 50.5041 11.4998 49.9422 11.4998C49.2399 11.4998 48.6457 11.4512 48.1595 11.354C47.6733 11.2459 47.2789 11.0838 46.9764 10.8677C46.6738 10.6517 46.4523 10.3761 46.3119 10.0412C46.1822 9.70626 46.1174 9.30109 46.1174 8.82568C46.1174 7.9289 46.3767 7.26442 46.8953 6.83224C47.414 6.40006 48.1379 6.18397 49.0671 6.18397C49.4884 6.18397 49.9044 6.22178 50.315 6.29741C50.7256 6.37305 51.0929 6.47569 51.417 6.60534V6.32983ZM48.3215 8.80948C48.3215 9.11201 48.435 9.3281 48.6619 9.45775C48.8996 9.58741 49.3372 9.65223 49.9746 9.65223C50.2447 9.65223 50.4879 9.64683 50.7039 9.63603C50.9308 9.62522 51.1685 9.59821 51.417 9.55499V8.03155C50.9633 7.96672 50.4554 7.93431 49.8936 7.93431C49.5695 7.93431 49.3048 7.95592 49.0995 7.99913C48.8942 8.03155 48.7321 8.08557 48.6133 8.1612C48.5052 8.22603 48.4296 8.31787 48.3864 8.43672C48.3431 8.54477 48.3215 8.66902 48.3215 8.80948Z" fill="#1EB795"/>
<path d="M57.7737 10.965C57.6332 11.2351 57.4117 11.3702 57.1092 11.3702H55.4561C55.3481 11.3702 55.2832 11.3323 55.2616 11.2567C55.2508 11.1703 55.267 11.0838 55.3102 10.9974L56.9633 7.95051C56.6824 7.81005 56.4555 7.64258 56.2826 7.4481C56.1098 7.25362 55.9747 7.04833 55.8775 6.83224C55.791 6.61615 55.7316 6.39466 55.6992 6.16776C55.6776 5.93006 55.6668 5.69776 55.6668 5.47086C55.6668 4.59569 55.9693 3.94202 56.5744 3.50983C57.1902 3.06685 58.0978 2.84535 59.2971 2.84535C59.5348 2.84535 59.7941 2.85076 60.0751 2.86156C60.356 2.87236 60.6315 2.88857 60.9016 2.91018C61.1825 2.93179 61.4472 2.9588 61.6957 2.99122C61.955 3.01282 62.1819 3.04524 62.3764 3.08846C62.5601 3.13167 62.6844 3.20731 62.7492 3.31535C62.8248 3.4234 62.8626 3.57466 62.8626 3.76914V11.1595C62.8626 11.2999 62.787 11.3702 62.6357 11.3702H60.7071C60.5667 11.3702 60.4964 11.2999 60.4964 11.1595V8.32327C60.3128 8.34488 60.1075 8.36109 59.8806 8.37189C59.6537 8.37189 59.3782 8.37189 59.054 8.37189L57.7737 10.965ZM59.4106 6.70259C59.5618 6.70259 59.7401 6.69718 59.9454 6.68638C60.1507 6.67557 60.3344 6.65937 60.4964 6.63776V4.59569C60.3452 4.56328 60.1669 4.54167 59.9616 4.53087C59.7671 4.50926 59.5834 4.49845 59.4106 4.49845C58.8811 4.49845 58.5192 4.59029 58.3247 4.77397C58.1302 4.94684 58.033 5.23857 58.033 5.64914C58.033 6.00569 58.1248 6.2704 58.3085 6.44328C58.503 6.61615 58.8703 6.70259 59.4106 6.70259Z" fill="#1EB795"/>
<path d="M0.0126953 22.3862C0.0126953 21.812 0.0895927 21.2943 0.243387 20.8329C0.397182 20.3612 0.633001 19.9614 0.950843 19.6333C1.27894 19.2949 1.69931 19.0386 2.21196 18.8643C2.72461 18.6797 3.34491 18.5875 4.07288 18.5875C4.42148 18.5875 4.79058 18.6233 5.1802 18.6951C5.58006 18.7566 5.94917 18.8438 6.28752 18.9566C6.45157 19.0078 6.53359 19.1001 6.53359 19.2334V20.2792C6.53359 20.4433 6.45669 20.5099 6.3029 20.4791C5.99531 20.4279 5.69285 20.392 5.39551 20.3715C5.10843 20.351 4.79058 20.3407 4.44198 20.3407C3.66276 20.3407 3.10397 20.5202 2.76562 20.879C2.42727 21.2379 2.2581 21.7813 2.2581 22.5092V22.8937C2.2581 23.6217 2.42727 24.1651 2.76562 24.5239C3.10397 24.8725 3.66276 25.0468 4.44198 25.0468C5.10843 25.0468 5.76462 25.0007 6.41056 24.9084C6.5541 24.8982 6.62587 24.9648 6.62587 25.1084V26.1542C6.62587 26.2875 6.54384 26.3797 6.3798 26.431C5.68259 26.6771 4.91362 26.8001 4.07288 26.8001C3.34491 26.8001 2.72461 26.713 2.21196 26.5387C1.69931 26.3541 1.27894 26.0978 0.950843 25.7697C0.633001 25.4416 0.397182 25.0468 0.243387 24.5855C0.0895927 24.1138 0.0126953 23.5909 0.0126953 23.0168V22.3862Z" fill="#1EB795"/>
<path d="M7.59369 20.4638C7.40914 20.4638 7.31686 20.3766 7.31686 20.2023V18.9719C7.31686 18.7976 7.40914 18.7105 7.59369 18.7105H14.6529C14.8272 18.7105 14.9143 18.7976 14.9143 18.9719V20.2023C14.9143 20.3766 14.8272 20.4638 14.6529 20.4638H12.2383V26.4156C12.2383 26.5899 12.1511 26.6771 11.9768 26.6771H10.2543C10.08 26.6771 9.99289 26.5899 9.99289 26.4156V20.4638H7.59369Z" fill="#1EB795"/>
<path d="M20.246 26.8001C19.9179 26.8001 19.5795 26.7693 19.2309 26.7078C18.8823 26.6566 18.5901 26.5797 18.3543 26.4771V29.3992C18.3543 29.5633 18.2723 29.6453 18.1082 29.6453H16.3396C16.1858 29.6453 16.1089 29.5633 16.1089 29.3992V19.664C16.1089 19.2539 16.2575 19.013 16.5549 18.9412C17.4161 18.7054 18.3799 18.5875 19.4462 18.5875C20.1434 18.5875 20.7483 18.6849 21.261 18.8797C21.7839 19.0745 22.2197 19.3462 22.5683 19.6948C22.9169 20.0331 23.1732 20.4484 23.3372 20.9405C23.5115 21.4224 23.5987 21.9556 23.5987 22.54V23.1244C23.5987 23.6576 23.5218 24.1497 23.368 24.6008C23.2244 25.0417 23.0091 25.4262 22.722 25.7543C22.435 26.0824 22.0812 26.3387 21.6609 26.5233C21.2507 26.7078 20.7791 26.8001 20.246 26.8001ZM18.3543 24.9853C18.5081 25.0058 18.6824 25.0212 18.8772 25.0315C19.072 25.0417 19.2565 25.0468 19.4308 25.0468C20.0768 25.0468 20.5587 24.893 20.8765 24.5855C21.1944 24.2676 21.3533 23.7447 21.3533 23.0168V22.663C21.3533 21.9351 21.1944 21.366 20.8765 20.9559C20.5587 20.5458 20.0768 20.3407 19.4308 20.3407C19.2463 20.3407 19.0617 20.351 18.8772 20.3715C18.7029 20.3817 18.5286 20.4125 18.3543 20.4638V24.9853Z" fill="#1EB795"/>
<path d="M29.7931 21.894C29.7931 21.607 29.7675 21.366 29.7162 21.1712C29.6752 20.9662 29.5778 20.8021 29.424 20.6791C29.2702 20.556 29.0498 20.4689 28.7627 20.4176C28.4756 20.3664 28.0911 20.3407 27.6092 20.3407C27.2811 20.3407 26.953 20.3561 26.6249 20.3869C26.2969 20.4074 26.02 20.4433 25.7945 20.4945C25.7124 20.515 25.6458 20.5099 25.5945 20.4791C25.5433 20.4484 25.5176 20.3869 25.5176 20.2946V19.2488C25.5176 19.1052 25.5894 19.013 25.7329 18.9719C26.1841 18.8387 26.6198 18.7413 27.0402 18.6797C27.4606 18.6182 27.8604 18.5875 28.2398 18.5875C28.937 18.5875 29.5265 18.649 30.0084 18.772C30.4903 18.8848 30.8799 19.0694 31.1773 19.3257C31.4849 19.5717 31.7053 19.8896 31.8386 20.2792C31.9719 20.6586 32.0385 21.1148 32.0385 21.648V25.7235C32.0385 26.1439 31.8899 26.39 31.5925 26.4618C31.1619 26.5745 30.6544 26.6566 30.0699 26.7078C29.4855 26.7693 28.9267 26.8001 28.3936 26.8001C27.7271 26.8001 27.1632 26.754 26.7018 26.6617C26.2405 26.5592 25.8662 26.4054 25.5791 26.2003C25.2921 25.9952 25.0819 25.7338 24.9486 25.4159C24.8255 25.0981 24.764 24.7136 24.764 24.2625C24.764 23.4115 25.0101 22.7809 25.5022 22.3708C25.9944 21.9607 26.6813 21.7556 27.5631 21.7556C27.963 21.7556 28.3577 21.7915 28.7473 21.8633C29.1369 21.9351 29.4855 22.0325 29.7931 22.1555V21.894ZM26.8556 24.2471C26.8556 24.5342 26.9633 24.7393 27.1786 24.8623C27.4042 24.9853 27.8194 25.0468 28.4243 25.0468C28.6807 25.0468 28.9114 25.0417 29.1164 25.0315C29.3317 25.0212 29.5573 24.9956 29.7931 24.9546V23.5089C29.3625 23.4474 28.8806 23.4166 28.3474 23.4166C28.0399 23.4166 27.7887 23.4371 27.5939 23.4781C27.399 23.5089 27.2453 23.5602 27.1325 23.6319C27.0299 23.6934 26.9582 23.7806 26.9172 23.8934C26.8761 23.9959 26.8556 24.1138 26.8556 24.2471Z" fill="#1EB795"/>
<path d="M41.2388 26.4156C41.2388 26.5899 41.1517 26.6771 40.9774 26.6771H39.2549C39.0806 26.6771 38.9934 26.5899 38.9934 26.4156V23.3243H36.302V26.4156C36.302 26.5899 36.2148 26.6771 36.0405 26.6771H34.318C34.1437 26.6771 34.0566 26.5899 34.0566 26.4156V18.9873C34.0566 18.8028 34.1437 18.7105 34.318 18.7105H36.0405C36.2148 18.7105 36.302 18.8028 36.302 18.9873V21.5711H38.9934V18.9873C38.9934 18.8028 39.0806 18.7105 39.2549 18.7105H40.9774C41.1517 18.7105 41.2388 18.8028 41.2388 18.9873V26.4156Z" fill="#1EB795"/>
<path d="M50.7209 26.4156C50.7209 26.5899 50.6337 26.6771 50.4594 26.6771H48.7369C48.5626 26.6771 48.4754 26.5899 48.4754 26.4156V21.648L46.0609 26.431C46.0096 26.5233 45.9532 26.5899 45.8917 26.6309C45.8302 26.6617 45.7379 26.6771 45.6149 26.6771H43.5848C43.4105 26.6771 43.3233 26.5899 43.3233 26.4156V18.9873C43.3233 18.8028 43.4105 18.7105 43.5848 18.7105H45.3073C45.4816 18.7105 45.5687 18.8028 45.5687 18.9873V23.7396L47.9833 18.9719C48.0346 18.8797 48.091 18.813 48.1525 18.772C48.214 18.731 48.3063 18.7105 48.4293 18.7105H50.4594C50.6337 18.7105 50.7209 18.8028 50.7209 18.9873V26.4156Z" fill="#1EB795"/>
<path d="M59.8284 24.9238H61.3356C61.4894 24.9238 61.5663 25.0007 61.5663 25.1545V28.0458C61.5663 28.1996 61.4894 28.2765 61.3356 28.2765H59.5515C59.3978 28.2765 59.3209 28.1996 59.3209 28.0458V26.6771H53.0768C52.9025 26.6771 52.8153 26.5899 52.8153 26.4156V18.9873C52.8153 18.8028 52.9025 18.7105 53.0768 18.7105H54.7993C54.9736 18.7105 55.0607 18.8028 55.0607 18.9873V24.9238H57.583V18.9873C57.583 18.8028 57.6701 18.7105 57.8444 18.7105H59.5669C59.7412 18.7105 59.8284 18.8028 59.8284 18.9873V24.9238Z" fill="#1EB795"/>
<path d="M67.4608 21.894C67.4608 21.607 67.4352 21.366 67.3839 21.1712C67.3429 20.9662 67.2455 20.8021 67.0917 20.6791C66.9379 20.556 66.7175 20.4689 66.4304 20.4176C66.1433 20.3664 65.7588 20.3407 65.2769 20.3407C64.9488 20.3407 64.6207 20.3561 64.2926 20.3869C63.9645 20.4074 63.6877 20.4433 63.4621 20.4945C63.3801 20.515 63.3135 20.5099 63.2622 20.4791C63.2109 20.4484 63.1853 20.3869 63.1853 20.2946V19.2488C63.1853 19.1052 63.2571 19.013 63.4006 18.9719C63.8518 18.8387 64.2875 18.7413 64.7079 18.6797C65.1282 18.6182 65.5281 18.5875 65.9075 18.5875C66.6047 18.5875 67.1942 18.649 67.6761 18.772C68.158 18.8848 68.5476 19.0694 68.845 19.3257C69.1525 19.5717 69.373 19.8896 69.5063 20.2792C69.6396 20.6586 69.7062 21.1148 69.7062 21.648V25.7235C69.7062 26.1439 69.5575 26.39 69.2602 26.4618C68.8296 26.5745 68.3221 26.6566 67.7376 26.7078C67.1532 26.7693 66.5944 26.8001 66.0613 26.8001C65.3948 26.8001 64.8309 26.754 64.3695 26.6617C63.9081 26.5592 63.5339 26.4054 63.2468 26.2003C62.9597 25.9952 62.7496 25.7338 62.6163 25.4159C62.4932 25.0981 62.4317 24.7136 62.4317 24.2625C62.4317 23.4115 62.6778 22.7809 63.1699 22.3708C63.6621 21.9607 64.349 21.7556 65.2308 21.7556C65.6306 21.7556 66.0254 21.7915 66.415 21.8633C66.8046 21.9351 67.1532 22.0325 67.4608 22.1555V21.894ZM64.5233 24.2471C64.5233 24.5342 64.631 24.7393 64.8463 24.8623C65.0719 24.9853 65.4871 25.0468 66.092 25.0468C66.3484 25.0468 66.579 25.0417 66.7841 25.0315C66.9994 25.0212 67.225 24.9956 67.4608 24.9546V23.5089C67.0302 23.4474 66.5483 23.4166 66.0151 23.4166C65.7075 23.4166 65.4563 23.4371 65.2615 23.4781C65.0667 23.5089 64.9129 23.5602 64.8002 23.6319C64.6976 23.6934 64.6259 23.7806 64.5848 23.8934C64.5438 23.9959 64.5233 24.1138 64.5233 24.2471Z" fill="#1EB795"/>
</svg>
