<svg width="13" height="13" viewBox="0 0 13 13" fill="none" xmlns="http://www.w3.org/2000/svg">
<path d="M12.3136 4.12326C12.1251 4.12326 11.9721 3.97325 11.9721 3.78837V1.27171H9.40594C9.21742 1.27171 9.06445 1.12169 9.06445 0.936812C9.06445 0.75193 9.21742 0.601913 9.40594 0.601913H12.3136C12.5021 0.601913 12.6551 0.75193 12.6551 0.936812V3.78837C12.6551 3.97325 12.5021 4.12326 12.3136 4.12326Z" fill="#212121" stroke="#212121" stroke-width="0.3"/>
<path d="M6.92744 6.50771C6.83957 6.50771 6.75153 6.47457 6.68482 6.40847C6.55215 6.27714 6.55304 6.06502 6.68714 5.93491L11.8839 0.886261C12.0178 0.756147 12.2343 0.75737 12.3668 0.888531C12.4994 1.01987 12.4985 1.23198 12.3645 1.3621L7.16773 6.41074C7.10121 6.47546 7.01423 6.50771 6.92744 6.50771Z" fill="#212121" stroke="#212121" stroke-width="0.3"/>
<path d="M9.47693 11.99H3.09388C1.9641 11.99 1.04492 11.0886 1.04492 9.98058V3.72071C1.04492 2.61273 1.9641 1.71129 3.09388 1.71129H7.19177C7.38029 1.71129 7.53326 1.8613 7.53326 2.04619C7.53326 2.23107 7.38029 2.38109 7.19177 2.38109H3.09388C2.34064 2.38109 1.72792 2.982 1.72792 3.72068V9.98055C1.72792 10.7193 2.34066 11.3201 3.09388 11.3201H9.47693C10.2302 11.3201 10.8429 10.7192 10.8429 9.98055V5.81385C10.8429 5.62897 10.9959 5.47895 11.1844 5.47895C11.3729 5.47895 11.5259 5.62897 11.5259 5.81385V9.98058C11.5259 11.0886 10.6067 11.99 9.47693 11.99Z" fill="#212121" stroke="#212121" stroke-width="0.3"/>
</svg>
