<svg width="12" height="12" viewBox="0 0 12 12" fill="none" xmlns="http://www.w3.org/2000/svg">
<path d="M5.78546 0.700317C5.50484 0.700317 5.27734 0.927818 5.27734 1.20843V3.2409C5.27734 3.52152 5.50484 3.74902 5.78546 3.74902C6.06608 3.74902 6.29358 3.52152 6.29358 3.2409V1.20843C6.29358 0.927818 6.06608 0.700317 5.78546 0.700317Z" fill="#858585" fill-opacity="0.8"/>
<path d="M5.78546 9.33832C5.50484 9.33832 5.27734 9.56582 5.27734 9.84643V10.8627C5.27734 11.1433 5.50484 11.3708 5.78546 11.3708C6.06608 11.3708 6.29358 11.1433 6.29358 10.8627V9.84643C6.29358 9.56582 6.06608 9.33832 5.78546 9.33832Z" fill="#858585" fill-opacity="0.4"/>
<path d="M10.8668 5.78149H8.83429C8.55367 5.78149 8.32617 6.00899 8.32617 6.28961C8.32617 6.57023 8.55367 6.79773 8.83429 6.79773H10.8668C11.1474 6.79773 11.3749 6.57023 11.3749 6.28961C11.3749 6.00899 11.1474 5.78149 10.8668 5.78149Z" fill="#858585"/>
<path d="M3.24499 6.28961C3.24499 6.00899 3.01749 5.78149 2.73687 5.78149H0.704406C0.42379 5.78149 0.196289 6.00899 0.196289 6.28961C0.196289 6.57023 0.42379 6.79773 0.704406 6.79773H2.73687C3.01749 6.79773 3.24499 6.57023 3.24499 6.28961Z" fill="#858585" fill-opacity="0.6"/>
<path d="M9.73819 2.33737C9.53979 2.13893 9.21805 2.13893 9.01961 2.33737L7.58242 3.77456C7.38398 3.97299 7.38398 4.2947 7.58242 4.49314C7.68164 4.59235 7.81168 4.64198 7.94169 4.64198C8.07174 4.64198 8.20178 4.59239 8.301 4.49314L9.73819 3.05594C9.93663 2.85751 9.93663 2.5358 9.73819 2.33737Z" fill="#858585" fill-opacity="0.9"/>
<path d="M3.2705 8.08608L1.83337 9.52327C1.63497 9.72171 1.63497 10.0434 1.83337 10.2419C1.93259 10.3411 2.06263 10.3907 2.19268 10.3907C2.32272 10.3907 2.45277 10.3411 2.55198 10.2419L3.98914 8.80466C4.18755 8.60623 4.18755 8.28452 3.98914 8.08608C3.79067 7.88765 3.46897 7.88765 3.2705 8.08608Z" fill="#858585" fill-opacity="0.5"/>
<path d="M2.55198 2.33738C2.35354 2.13895 2.03183 2.13898 1.8334 2.33738C1.63496 2.53582 1.63496 2.85753 1.8334 3.05596L3.27056 4.49315C3.36981 4.59237 3.49982 4.642 3.62986 4.642C3.75987 4.642 3.88995 4.59237 3.98913 4.49319C4.18757 4.29475 4.18757 3.97304 3.98913 3.77461L2.55198 2.33738Z" fill="#858585" fill-opacity="0.7"/>
</svg>
