<svg width="20" height="21" viewBox="0 0 20 21" fill="none" xmlns="http://www.w3.org/2000/svg">
<path d="M7.56487 9.9005C10.1145 9.9005 12.1815 7.83367 12.1815 5.28387C12.1815 2.7342 10.1145 0.667236 7.56487 0.667236C5.01521 0.667236 2.94824 2.7342 2.94824 5.28387C2.9507 7.83272 5.01616 9.89804 7.56487 9.9005ZM7.56487 1.54075C9.63225 1.54075 11.308 3.21677 11.308 5.28387C11.308 7.35124 9.63225 9.02699 7.56487 9.02699C5.49764 9.02699 3.82189 7.35124 3.82189 5.28387C3.82421 3.21759 5.49859 1.54321 7.56487 1.54075Z" fill="#199075"/>
<path d="M19.5626 12.5105L15.7976 10.5058C15.6679 10.4351 15.5108 10.4368 15.3826 10.5101L11.9365 12.3969C10.6742 11.4579 9.16288 10.9688 7.55582 10.9688C5.55535 10.9731 3.69909 11.7506 2.3232 13.1657C0.929845 14.5939 0.165436 16.5463 0.169942 18.6646C0.170624 18.9056 0.365755 19.1007 0.60663 19.1014L12.7576 19.0796C13.3288 19.7888 14.0631 20.3492 14.8977 20.7131L15.4045 20.9358C15.4595 20.9604 15.5192 20.9723 15.5792 20.9708C15.6391 20.9697 15.6983 20.958 15.7539 20.9358L16.326 20.6869C18.4282 19.8049 19.7955 17.7473 19.794 15.4674V12.8992C19.7941 12.7369 19.7053 12.5877 19.5626 12.5105ZM1.05656 18.2235C1.14819 16.507 1.81647 14.9391 2.95216 13.7728C4.16186 12.528 5.79978 11.8423 7.56005 11.8423H7.57316C9.01895 11.8423 10.373 12.2966 11.4954 13.157V15.5198C11.4961 16.4579 11.7302 17.381 12.1767 18.2059L1.05656 18.2235ZM18.9205 15.4674C18.9213 17.3977 17.762 19.1392 15.981 19.8833H15.9766L15.5792 20.0536L15.2472 19.9094C13.5004 19.1462 12.3709 17.4219 12.3689 15.5156V13.1526L15.5966 11.3837L18.9205 13.157V15.4674Z" fill="#199075"/>
<path d="M14.3995 15.2073C14.2427 15.024 13.967 15.0026 13.7837 15.1593C13.6004 15.3161 13.579 15.5918 13.7357 15.775L14.7271 16.9324C14.8104 17.0293 14.9315 17.085 15.059 17.0854C15.1591 17.0862 15.2563 17.0523 15.3342 16.9893L17.6404 15.1156C17.8273 14.9624 17.8546 14.6867 17.7014 14.4997C17.5483 14.3127 17.2727 14.2854 17.0857 14.4386L15.1115 16.046L14.3995 15.2073Z" fill="#199075"/>
</svg>
