<svg width="111" height="44" viewBox="0 0 111 44" fill="none" xmlns="http://www.w3.org/2000/svg">
<path d="M26.3663 0.859147V42.3952C26.3666 42.4904 26.3436 42.5842 26.2995 42.6677C26.2551 42.7496 26.1912 42.8183 26.1139 42.8674C26.0366 42.9165 25.9484 42.9442 25.8578 42.948C25.7661 42.9528 25.675 42.9316 25.5942 42.8866L18.0262 38.9671C17.9374 38.9232 17.8627 38.854 17.8108 38.7676C17.7588 38.6812 17.7318 38.5813 17.7329 38.4796V4.77858C17.7324 4.67817 17.7594 4.57965 17.8109 4.49451C17.8626 4.40697 17.9372 4.33641 18.0262 4.29105L25.5942 0.371617C25.6735 0.325186 25.763 0.300781 25.8541 0.300781C25.9451 0.300781 26.0346 0.325186 26.1139 0.371617C26.1914 0.420571 26.2554 0.489416 26.2996 0.571472C26.3438 0.653529 26.3668 0.746013 26.3663 0.839953V0.859147Z" fill="#212121"/>
<path d="M85.9698 15.746V42.399C85.9704 42.492 85.9478 42.5836 85.9043 42.6649C85.8607 42.7463 85.7976 42.8147 85.7211 42.8635C85.6439 42.9128 85.5557 42.9406 85.465 42.9441C85.3751 42.948 85.2857 42.9282 85.2052 42.8865L77.6297 38.9671C77.5418 38.9221 77.4677 38.8526 77.4159 38.7665C77.3641 38.6803 77.3366 38.581 77.3364 38.4795V15.746C77.3364 15.6745 77.3501 15.6036 77.3765 15.5374C77.403 15.4713 77.4419 15.4112 77.4908 15.3606C77.5397 15.31 77.5978 15.2698 77.6618 15.2424C77.7257 15.215 77.7943 15.2009 77.8635 15.2009H85.4427C85.5119 15.2009 85.5805 15.215 85.6444 15.2424C85.7084 15.2698 85.7665 15.31 85.8154 15.3606C85.8643 15.4112 85.9032 15.4713 85.9297 15.5374C85.9561 15.6036 85.9698 15.6745 85.9698 15.746Z" fill="#212121"/>
<path d="M75.2893 41.4624L75.1409 41.5775C74.6467 41.95 74.1154 42.2666 73.556 42.5219C73.1278 42.7161 72.6845 42.8727 72.2309 42.9902C70.9546 43.334 69.6191 43.3707 68.3269 43.0974C67.0347 42.8241 65.8203 42.2481 64.777 41.4137C63.7336 40.5792 62.8891 39.5085 62.3082 38.2839C61.7274 37.0592 61.4257 35.7131 61.4263 34.349V15.819C61.4263 15.6751 61.4813 15.5371 61.5793 15.4349C61.6774 15.3328 61.8105 15.2749 61.9496 15.2739L66.8119 15.3545H69.6068C69.726 15.3793 69.8333 15.446 69.9104 15.5433C69.9875 15.6405 70.0297 15.7624 70.0299 15.8881V22.3297C70.0273 22.3642 70.0273 22.3988 70.0299 22.4333V36.9479C70.0273 36.9824 70.0273 37.0171 70.0299 37.0516C70.057 38.1337 70.4923 39.162 71.2428 39.9166C71.9932 40.6712 72.9993 41.0924 74.0459 41.09H75.0926C75.1402 41.075 75.1913 41.0778 75.2371 41.0978C75.2828 41.1179 75.3203 41.1541 75.3429 41.1999C75.3655 41.2457 75.3717 41.2982 75.3606 41.3483C75.3494 41.3984 75.3216 41.4429 75.2819 41.4739L75.2893 41.4624Z" fill="#212121"/>
<path d="M17.0999 39.0384C17.1155 39.0528 17.1187 39.0763 17.1075 39.0943C16.1203 40.6692 14.698 41.9011 13.0249 42.6294C11.3408 43.3626 9.4816 43.5513 7.69183 43.1707C6.82289 43.0214 5.98152 42.734 5.1976 42.3185C3.77633 41.5727 2.58253 40.4343 1.74853 39.0297C0.914528 37.625 0.472919 36.009 0.472656 34.3606V24.4373C0.472656 19.4967 4.38475 15.3277 9.15794 15.3546H9.52911C10.7165 15.3533 11.8925 15.5947 12.9894 16.0651C14.0863 16.5355 15.0825 17.2255 15.9206 18.0955C16.3165 18.5044 16.6743 18.9508 16.9891 19.4288C17.0491 19.5199 17.0364 19.6402 16.9606 19.7186C16.8616 19.8209 16.6955 19.8132 16.5998 19.7078C16.5605 19.6646 16.5208 19.6223 16.481 19.5812C16.0813 19.1653 15.6059 18.8355 15.0822 18.6108C14.5586 18.3861 13.997 18.271 13.4301 18.2721H13.1257C12.5959 18.2686 12.0706 18.3737 11.5803 18.5814C11.0899 18.7891 10.6443 19.0953 10.2691 19.4823C9.89393 19.8693 9.59664 20.3293 9.39444 20.8359C9.19225 21.3424 9.08916 21.8854 9.09113 22.4334V36.948C9.0931 38.0472 9.51669 39.1008 10.2689 39.8773C11.0212 40.6539 12.0406 41.0901 13.1034 41.0901H13.4078C14.1379 41.0911 14.8562 40.9 15.4952 40.5346C16.1187 40.1781 16.6466 39.6671 17.0318 39.0479C17.0465 39.0241 17.0793 39.0194 17.0999 39.0384Z" fill="#212121"/>
<path d="M110.305 33.9691C110.305 36.4157 109.662 38.4414 108.375 40.046C108.189 40.2781 107.989 40.4986 107.778 40.7063C106.252 42.2418 104.296 43.0671 101.921 43.2245H101.883H101.661H100.733C99.2036 43.1699 97.6822 42.9759 96.186 42.6449L95.9707 42.5988C94.4919 42.2024 93.0537 41.6585 91.6763 40.975C91.6166 40.9448 91.5658 40.8986 91.5292 40.8412C91.4927 40.7838 91.4717 40.7173 91.4685 40.6487L91.2086 34.1649C91.2076 34.1391 91.2117 34.1133 91.2206 34.0891C91.2295 34.0649 91.243 34.0428 91.2603 34.0242C91.2776 34.0055 91.2984 33.9907 91.3215 33.9806C91.3445 33.9705 91.3692 33.9653 91.3942 33.9653H91.6132C91.6824 33.9648 91.7503 33.9843 91.8093 34.0216C91.8684 34.0589 91.9161 34.1125 91.9473 34.1764C93.004 36.3051 94.3978 38.2358 96.0709 39.8886C97.4616 41.2552 98.9165 42.0678 100.436 42.3262C100.788 42.3865 101.144 42.416 101.501 42.4145C101.68 42.4187 101.858 42.411 102.036 42.3915H102.125C102.188 42.3971 102.251 42.3971 102.314 42.3915C102.647 42.3602 102.975 42.2867 103.29 42.1727C103.417 42.1338 103.541 42.0864 103.661 42.0306C103.761 41.9884 103.862 41.9462 103.954 41.8963C104.11 41.8157 104.251 41.7312 104.396 41.6391C104.806 41.3634 105.172 41.0227 105.48 40.6295C105.563 40.5327 105.641 40.4315 105.714 40.3262C105.784 40.2149 105.859 40.1112 105.922 40.0038C106.153 39.4424 106.265 38.8364 106.252 38.2264C106.282 37.5919 106.154 36.96 105.881 36.3909C105.609 35.8218 105.2 35.3343 104.693 34.9749C103.322 34.0724 101.818 33.4085 100.239 33.0094C98.8261 32.629 97.4417 32.1427 96.0969 31.5545C95.4083 31.2252 94.7562 30.8198 94.152 30.3453C93.9776 30.2148 93.8031 30.065 93.6287 29.9192C92.0574 28.573 91.2717 26.486 91.2717 23.6581C91.2671 22.7451 91.4062 21.8375 91.6837 20.9709C91.7209 20.8672 91.758 20.7636 91.8025 20.6599C91.9329 20.309 92.0841 19.9666 92.2553 19.635C92.2553 19.635 92.2553 19.5927 92.285 19.5697C92.6641 18.8924 93.127 18.269 93.6621 17.7156C94.8005 16.5427 96.2567 15.7555 97.8377 15.4583C98.6089 15.3003 99.3935 15.2231 100.18 15.228C100.621 15.228 101.082 15.251 101.538 15.2971C102.337 15.3748 103.13 15.5107 103.91 15.704C103.939 15.7153 103.969 15.723 103.999 15.7271C104.192 15.777 104.411 15.8345 104.645 15.9075C105.949 16.311 107.219 16.8245 108.442 17.443C108.448 17.4465 108.453 17.4515 108.456 17.4576C108.459 17.4637 108.461 17.4706 108.46 17.4776L108.568 20.6484L108.653 23.3087C108.654 23.3346 108.65 23.3604 108.642 23.3845C108.633 23.4087 108.619 23.4308 108.602 23.4494C108.584 23.4681 108.564 23.4829 108.541 23.493C108.518 23.5032 108.493 23.5084 108.468 23.5083H108.279C108.212 23.5085 108.146 23.4901 108.089 23.455C108.031 23.4198 107.984 23.3693 107.952 23.3087C107.269 22.0225 106.487 20.7952 105.614 19.6388C105.229 19.1298 104.817 18.6429 104.381 18.1801L104.281 18.0764C102.965 16.7149 101.534 16.0342 99.9904 16.0342C98.4464 16.0342 97.2475 16.4027 96.3938 17.1397C95.9823 17.5015 95.6555 17.9551 95.4382 18.4665C95.2209 18.9779 95.1187 19.5336 95.1393 20.0918C95.1207 20.6639 95.2524 21.2305 95.5204 21.7314C95.7883 22.2323 96.1825 22.6487 96.6611 22.9364C97.8239 23.6637 99.083 24.2121 100.399 24.564L101.141 24.7713C102.217 25.0746 102.941 25.2896 103.327 25.4201C103.792 25.5736 104.37 25.786 105.061 26.0573C105.653 26.2796 106.22 26.5666 106.753 26.9134C107.244 27.2521 107.71 27.6294 108.145 28.042C108.618 28.4644 109.012 28.9732 109.307 29.543C110.004 30.9044 110.348 32.4293 110.305 33.9691Z" fill="#212121"/>
<path d="M57.4508 29.585V28.56C57.447 28.3469 57.4322 28.1342 57.4063 27.9228L57.384 27.6886L57.3617 27.5082C57.3615 27.3915 57.3465 27.2753 57.3172 27.1627C57.3098 27.0471 57.2911 26.9327 57.2615 26.821C57.2392 26.7097 57.2355 26.6713 57.2207 26.5945C57.2058 26.5178 57.1836 26.3911 57.1613 26.2874C57.1056 26.011 57.0388 25.7385 56.9646 25.4659L56.8755 25.1511L56.7716 24.8248C56.7382 24.7174 56.701 24.6137 56.6639 24.5062C56.5897 24.2951 56.5117 24.0839 56.4264 23.8728L56.3262 23.6271C56.2735 23.496 56.214 23.3678 56.148 23.2432C56.0849 23.1281 56.0032 22.9285 55.9216 22.7787C55.7583 22.4486 55.5764 22.1223 55.3834 21.8075C55.3277 21.7116 55.2683 21.6194 55.209 21.5273C55.105 21.3661 55.0011 21.2087 54.8897 21.0513L54.7301 20.8248L54.6299 20.6904C54.5705 20.6098 54.5112 20.5292 54.4481 20.4524C54.1771 20.1069 53.895 19.7729 53.5944 19.4582L53.3939 19.2509C53.2306 19.0858 53.0673 18.9246 52.8966 18.771C52.8186 18.6942 52.737 18.6213 52.6553 18.5522L52.5997 18.5023L52.1543 18.1184L51.8981 17.9188C51.6383 17.7192 51.3711 17.5311 51.0964 17.3545C51.0073 17.2969 50.9146 17.2355 50.8218 17.1817L50.5434 17.0128C50.4469 16.9553 50.3541 16.9015 50.2576 16.8516L49.9718 16.6981L49.6786 16.5483C49.5821 16.4984 49.4819 16.4524 49.3816 16.4101L49.0847 16.2758C48.8806 16.1875 48.6801 16.1069 48.4723 16.0301L48.1642 15.9188L47.8487 15.8151L47.5332 15.7192C47.3217 15.6577 47.1064 15.6001 46.8911 15.5502L46.6313 15.4927L46.2379 15.4159C46.0152 15.3737 45.7962 15.3391 45.5698 15.3122L45.2357 15.27L44.7458 15.2278H43.2611C41.1386 15.32 39.0664 15.9249 37.2105 16.9941C35.3545 18.0634 33.7665 19.5672 32.5734 21.3852C31.3804 23.2032 30.6155 25.2849 30.34 27.4636C30.0645 29.6422 30.2861 31.8573 30.987 33.9315C31.6878 36.0057 32.8486 37.8813 34.3762 39.4082C35.9038 40.9351 37.7559 42.0708 39.7842 42.7245C41.8124 43.3781 43.9605 43.5315 46.0563 43.1723C48.1522 42.8132 50.1376 41.9514 51.8536 40.6561L52.0689 40.4872C52.2433 40.349 52.4178 40.2147 52.5811 40.0726C52.6368 40.0304 52.6887 39.9843 52.7444 39.9344L52.878 39.8039L52.9189 39.7694L52.9597 39.7348C53.1304 39.5774 53.2974 39.4124 53.4608 39.2435C54.2215 38.4555 54.8905 37.5781 55.4539 36.6292C55.4582 36.6224 55.4605 36.6144 55.4605 36.6062C55.4605 36.598 55.4582 36.59 55.4539 36.5831H55.4317H55.4057H55.3797L55.3351 36.6177L54.9083 37.0016C53.9556 37.9864 52.8084 38.7467 51.5451 39.2302C50.2819 39.7138 48.9325 39.9092 47.5895 39.8031C46.2464 39.697 44.9414 39.2919 43.7638 38.6156C42.5862 37.9392 41.5639 37.0076 40.7669 35.8845C40.4323 35.419 40.1415 34.9215 39.8983 34.3989C39.292 33.1028 38.9785 31.6812 38.9816 30.2414V29.585H57.4508ZM43.61 16.5099C44.8346 16.513 46.0081 17.0183 46.873 17.915C47.7379 18.8117 48.2236 20.0265 48.2236 21.2931V29.036H38.9964V21.2931C38.9964 20.0265 39.4821 18.8117 40.347 17.915C41.2119 17.0183 42.3854 16.513 43.61 16.5099Z" fill="#212121"/>
</svg>
