<svg width="116" height="33" viewBox="0 0 116 33" fill="none" xmlns="http://www.w3.org/2000/svg">
<path d="M30.9824 12.7406L30.9914 12.7332L30.9824 12.7205V12.7406Z" fill="#1EB795"/>
<path d="M30.9697 12.7507L30.9805 12.7392V12.7212V12.7205L30.9697 12.7507Z" fill="white"/>
<path d="M47.1804 1.74222V8.33221H47.7321C47.8742 8.33221 47.9438 8.40642 47.9438 8.55339V10.6643C47.9438 10.7954 47.8785 10.8639 47.7437 10.8639H46.3249C46.1923 10.8639 46.1249 10.7954 46.1249 10.6643V9.69747H42.6392V10.6643C42.6392 10.7954 42.574 10.8639 42.4406 10.8639H41.0197C40.8863 10.8639 40.8203 10.7954 40.8203 10.6643V8.55339C40.8203 8.40642 40.8907 8.33221 41.0328 8.33221H41.4177C41.7179 7.74864 41.9643 7.21695 42.1593 6.73929C42.3544 6.26235 42.5146 5.79693 42.6392 5.34593C42.764 4.89493 42.8626 4.4396 42.9387 3.98139C43.0126 3.52318 43.083 3.02463 43.1446 2.48789C43.1765 2.20043 43.2707 1.96772 43.4309 1.79337C43.5925 1.6183 43.8528 1.53113 44.2124 1.53113H46.9818C47.1144 1.53113 47.1804 1.60101 47.1804 1.74222ZM44.6227 4.45905C44.551 4.86467 44.4625 5.27172 44.3574 5.68526C44.2515 6.09664 44.1232 6.52099 43.9703 6.95614C43.818 7.3913 43.6332 7.85023 43.4121 8.33293H45.36V2.95402H45.0795C44.9787 2.95402 44.9098 2.97492 44.8743 3.01959C44.8395 3.06137 44.8141 3.12981 44.7967 3.22275C44.751 3.64206 44.6923 4.05416 44.6227 4.45905Z" fill="#1EB795"/>
<path d="M51.6295 9.72555C51.3627 9.6816 51.1401 9.6218 50.9604 9.54471V11.7601C50.9604 11.8855 50.8965 11.9467 50.7711 11.9467H49.422C49.3046 11.9467 49.2451 11.8855 49.2451 11.7601V4.37619C49.2451 4.06784 49.3582 3.88412 49.5858 3.82865C50.2434 3.64997 50.9777 3.56064 51.7933 3.56064C52.3247 3.56064 52.7879 3.63412 53.1823 3.7811C53.5781 3.93023 53.908 4.13412 54.1741 4.3942C54.4402 4.65357 54.6388 4.96913 54.7678 5.33944C54.8969 5.70975 54.9614 6.11537 54.9614 6.55701V7.0008C54.9614 7.4057 54.9041 7.77745 54.7917 8.11461C54.6779 8.45467 54.5119 8.74645 54.2937 8.99501C54.0726 9.245 53.8058 9.43809 53.4897 9.57857C53.1722 9.71906 52.8104 9.78967 52.403 9.78967C52.1537 9.79039 51.8948 9.76877 51.6295 9.72555ZM51.3584 8.44746C51.5077 8.45683 51.6491 8.46043 51.7802 8.46043C52.2733 8.46043 52.643 8.34083 52.8843 8.10381C53.1272 7.86607 53.2483 7.47342 53.2483 6.92084V6.65283C53.2483 6.10096 53.1272 5.66869 52.8843 5.35889C52.643 5.04765 52.2733 4.8906 51.7802 4.8906C51.6418 4.8906 51.5011 4.8978 51.3656 4.90861C51.2286 4.92013 51.0923 4.94463 50.9604 4.98425V8.41288C51.0771 8.42801 51.2097 8.44098 51.3584 8.44746Z" fill="#1EB795"/>
<path d="M57.8974 11.9582C57.5531 11.9128 57.2283 11.843 56.9224 11.7493C56.7962 11.7097 56.7368 11.6405 56.7368 11.5389V10.7327C56.7368 10.6095 56.8013 10.5584 56.9347 10.5822C57.171 10.6196 57.4298 10.6484 57.7162 10.6693C58.0003 10.6888 58.2933 10.6982 58.5912 10.6982C58.8732 10.6982 59.1052 10.6794 59.2878 10.6398C59.472 10.6009 59.6185 10.5389 59.7279 10.4546C59.8388 10.3689 59.9164 10.2608 59.9636 10.1319C60.0107 10.0044 60.0346 9.85018 60.0346 9.67151V9.45033C59.8308 9.52742 59.5945 9.58794 59.3249 9.63116C59.0544 9.67367 58.7783 9.69528 58.4976 9.69528C58.1294 9.69528 57.8017 9.65422 57.5161 9.57281C57.2304 9.49139 56.992 9.35595 56.8005 9.16503C56.6092 8.97483 56.4627 8.72267 56.3598 8.41216C56.2597 8.10236 56.209 7.71836 56.209 7.25871V3.85384C56.209 3.72056 56.2743 3.655 56.4083 3.655H57.7212C57.8561 3.655 57.9228 3.72056 57.9228 3.85384V7.17658C57.9228 7.58868 58.0098 7.88911 58.186 8.08075C58.3621 8.27095 58.6637 8.36605 59.0965 8.36605C59.2509 8.36605 59.4133 8.36388 59.5771 8.3538C59.741 8.34803 59.8947 8.33435 60.036 8.31922V3.85384C60.036 3.72056 60.1013 3.655 60.2347 3.655H61.5475C61.6824 3.655 61.7484 3.72056 61.7484 3.85384V9.68448C61.7484 10.0814 61.6998 10.4273 61.6034 10.7226C61.5034 11.0173 61.3439 11.263 61.1213 11.4582C60.8973 11.6513 60.6044 11.7961 60.2391 11.8898C59.8758 11.9827 59.4263 12.0303 58.8855 12.0303C58.5687 12.0303 58.2417 12.0065 57.8974 11.9582Z" fill="#1EB795"/>
<path d="M66.0427 6.88481L64.6928 9.53104C64.6298 9.64127 64.5341 9.69603 64.4101 9.69603H62.7804C62.6919 9.69603 62.6427 9.66721 62.6274 9.61462C62.6107 9.55914 62.6274 9.49286 62.6738 9.41577L64.5275 6.5109L62.9544 3.887C62.8616 3.73139 62.9007 3.6543 63.0718 3.6543H64.5275C64.6609 3.6543 64.7516 3.6968 64.7987 3.78254L66.0427 6.17372V3.86395C66.0427 3.72418 66.1079 3.6543 66.2413 3.6543H67.5549C67.6884 3.6543 67.755 3.72418 67.755 3.86395V6.17444L69.0005 3.78326C69.0389 3.69752 69.1288 3.65502 69.2695 3.65502H70.7252C70.8984 3.65502 70.9369 3.73139 70.8434 3.88772L69.2695 6.5109L71.1254 9.41649C71.171 9.49358 71.1862 9.55986 71.171 9.61534C71.1551 9.66793 71.1043 9.69675 71.0174 9.69675H69.3855C69.2636 9.69675 69.168 9.642 69.1064 9.53177L67.755 6.88553V9.4979C67.755 9.63119 67.6876 9.69747 67.5549 9.69747H66.2413C66.1072 9.69747 66.0427 9.63119 66.0427 9.4979V6.88481Z" fill="#1EB795"/>
<path d="M77.4962 9.69744H76.1821C76.0488 9.69744 75.9847 9.63044 75.9847 9.4986V5.88192L74.1404 9.50941C74.1 9.57857 74.0582 9.62828 74.0121 9.65566C73.9653 9.6816 73.8954 9.69744 73.7996 9.69744H72.2506C72.1166 9.69744 72.0518 9.63044 72.0518 9.4986V3.86465C72.0518 3.72488 72.1173 3.655 72.2506 3.655H73.5661C73.6994 3.655 73.7636 3.72488 73.7636 3.86465V7.46764L75.6065 3.85384C75.6461 3.78108 75.6886 3.73137 75.7354 3.70039C75.7844 3.67013 75.8529 3.655 75.948 3.655H77.4955C77.6288 3.655 77.6972 3.72488 77.6972 3.86465V9.4986C77.698 9.63044 77.6288 9.69744 77.4962 9.69744Z" fill="#1EB795"/>
<path d="M41.2877 16.3688C41.4066 16.0165 41.5886 15.7125 41.8343 15.4603C42.0801 15.2075 42.3991 15.0122 42.7905 14.8775C43.1813 14.7413 43.6547 14.6714 44.21 14.6714C44.4768 14.6714 44.7603 14.6981 45.0633 14.7485C45.3627 14.799 45.6425 14.866 45.9006 14.9524C46.0267 14.9913 46.0884 15.0627 46.0884 15.1628V15.956C46.0884 16.0785 46.0297 16.1304 45.9137 16.108C45.6788 16.0677 45.4482 16.0396 45.2264 16.0252C45.0017 16.0101 44.7581 16.0007 44.4927 16.0007C43.899 16.0007 43.4698 16.139 43.2139 16.4092C42.9552 16.6822 42.8253 17.0929 42.8253 17.6462V17.938C42.8253 18.4891 42.9544 18.9005 43.2139 19.1685C43.4706 19.4358 43.899 19.572 44.4927 19.572C45.0024 19.572 45.5026 19.5352 45.9956 19.4653C46.1043 19.4589 46.1602 19.5107 46.1602 19.6181V20.4113C46.1602 20.5122 46.0978 20.5813 45.9717 20.6195C45.4396 20.8068 44.8523 20.9012 44.2108 20.9012C43.6554 20.9012 43.182 20.832 42.7912 20.6966C42.3998 20.5604 42.0815 20.3695 41.8351 20.1195C41.5886 19.8702 41.4073 19.5698 41.2885 19.2146C41.1725 18.8623 41.1123 18.4675 41.1123 18.0309V17.5533C41.1123 17.1195 41.1717 16.724 41.2877 16.3688Z" fill="#1EB795"/>
<path d="M53.1676 14.7363C53.4351 14.7795 53.6562 14.8408 53.8359 14.9178V12.4777C53.8359 12.3552 53.8976 12.2925 54.023 12.2925H55.3729C55.491 12.2925 55.549 12.3545 55.549 12.4777V14.9178C55.7281 14.84 55.9514 14.7795 56.2182 14.7363C56.485 14.6945 56.743 14.6722 56.9939 14.6722C57.3999 14.6722 57.7616 14.7428 58.0791 14.8825C58.3967 15.023 58.662 15.2176 58.8839 15.4654C59.102 15.7139 59.2688 16.0086 59.3819 16.3465C59.4957 16.6851 59.5529 17.0554 59.5529 17.4596V17.9012C59.5529 18.3472 59.4885 18.7521 59.3572 19.1224C59.2282 19.4913 59.0332 19.8054 58.7671 20.0662C58.4996 20.3263 58.1676 20.5316 57.7739 20.6808C57.3788 20.8284 56.9149 20.9019 56.3842 20.9019C56.0862 20.9019 55.8078 20.8904 55.5505 20.8666V22.8717C55.5505 22.9963 55.4925 23.059 55.3743 23.059H54.0245C53.899 23.059 53.8374 22.9963 53.8374 22.8717V20.8666C53.5648 20.8904 53.2864 20.9019 53.0045 20.9019C52.4723 20.9019 52.0076 20.8284 51.6133 20.6808C51.2174 20.5323 50.8854 20.327 50.6215 20.0662C50.3554 19.8061 50.1575 19.4913 50.0292 19.1224C49.8994 18.7514 49.835 18.3472 49.835 17.9012V17.4596C49.835 17.0554 49.8914 16.6844 50.0031 16.3465C50.1177 16.0086 50.2829 15.7139 50.5033 15.4654C50.7215 15.2176 50.9905 15.023 51.3073 14.8825C51.6241 14.7428 51.9859 14.6722 52.3911 14.6722C52.6434 14.6722 52.9001 14.6952 53.1676 14.7363ZM53.4365 16.0144C53.2872 16.0043 53.1465 16 53.0139 16C52.5202 16 52.154 16.1203 51.9112 16.358C51.6691 16.5943 51.5473 16.9891 51.5473 17.541V17.8105C51.5473 18.3616 51.6684 18.7932 51.9112 19.1044C52.154 19.4164 52.5202 19.5727 53.0139 19.5727C53.156 19.5727 53.2952 19.5641 53.43 19.5547C53.5677 19.5432 53.7019 19.5165 53.8359 19.4776V16.0497C53.7171 16.0338 53.5851 16.0209 53.4365 16.0144ZM55.9536 19.5547C56.0899 19.5648 56.2298 19.5727 56.3697 19.5727C56.8641 19.5727 57.2309 19.4156 57.4731 19.1044C57.7167 18.7932 57.8362 18.3616 57.8362 17.8105V17.541C57.8362 16.9891 57.7159 16.5943 57.4731 16.358C57.2309 16.1203 56.8634 16 56.3697 16C56.2378 16 56.0971 16.0036 55.9471 16.0144C55.7984 16.0209 55.6672 16.0331 55.549 16.049V19.4769C55.6817 19.5172 55.8172 19.5439 55.9536 19.5547Z" fill="#1EB795"/>
<path d="M66.2417 20.8076H64.9267C64.794 20.8076 64.7273 20.7435 64.7273 20.6109V16.9949L62.8859 20.6224C62.846 20.6945 62.8026 20.7413 62.7562 20.7694C62.7091 20.7946 62.638 20.8083 62.5437 20.8083H60.9952C60.8604 20.8083 60.7959 20.7442 60.7959 20.6116V14.977C60.7959 14.8393 60.8611 14.7673 60.9952 14.7673H62.3096C62.4423 14.7673 62.5075 14.8393 62.5075 14.977V18.5792L64.3518 14.9654C64.391 14.8963 64.4337 14.8451 64.4801 14.8141C64.5272 14.7832 64.5998 14.7673 64.6918 14.7673H66.2417C66.3752 14.7673 66.4404 14.8393 66.4404 14.977V20.6116C66.4411 20.7435 66.3752 20.8076 66.2417 20.8076Z" fill="#1EB795"/>
<path d="M73.3187 20.8076H72.0046C71.8706 20.8076 71.8057 20.7435 71.8057 20.6109V18.2658H69.7516V20.6109C69.7516 20.7442 69.6842 20.8076 69.5515 20.8076H68.2372C68.103 20.8076 68.0371 20.7435 68.0371 20.6109V14.9762C68.0371 14.8386 68.1038 14.7666 68.2372 14.7666H69.5515C69.6849 14.7666 69.7516 14.8386 69.7516 14.9762V16.9366H71.8057V14.9762C71.8057 14.8386 71.8713 14.7666 72.0046 14.7666H73.3187C73.4534 14.7666 73.5168 14.8386 73.5168 14.9762V20.6109C73.5168 20.7435 73.4534 20.8076 73.3187 20.8076Z" fill="#1EB795"/>
<path d="M78.5472 16.6275C78.5127 16.4755 78.4363 16.3537 78.3196 16.2586C78.2021 16.1671 78.0321 16.0987 77.8145 16.0605C77.5948 16.0209 77.3016 16.0007 76.9334 16.0007C76.6827 16.0007 76.4334 16.0137 76.1834 16.0317C75.932 16.0511 75.7216 16.0785 75.548 16.1189C75.4875 16.1354 75.437 16.1318 75.3989 16.1088C75.3571 16.0835 75.3369 16.0374 75.3369 15.9683V15.1743C75.3369 15.0655 75.3953 14.9971 75.5019 14.9647C75.8477 14.8631 76.1805 14.7896 76.5012 14.7435C76.8225 14.696 77.1265 14.6722 77.4161 14.6722C77.9485 14.6722 78.3974 14.7168 78.7655 14.8055C79.133 14.897 79.4327 15.0353 79.6647 15.2276C79.8923 15.4171 80.0595 15.6585 80.1611 15.9503C80.2662 16.2428 80.3152 16.5886 80.3152 16.9935V20.0828C80.3152 20.4027 80.2021 20.59 79.9745 20.6447C79.6459 20.7283 79.2598 20.7932 78.8116 20.8364C78.3657 20.8789 77.9406 20.9012 77.5328 20.9012C77.0249 20.9012 76.5934 20.863 76.2411 20.791C75.8909 20.7161 75.6035 20.6015 75.383 20.4459C75.1669 20.2903 75.0062 20.0936 74.9089 19.8515C74.8102 19.6109 74.7627 19.3191 74.7627 18.9762C74.7627 18.3328 74.9515 17.853 75.3254 17.5432C75.7022 17.2305 76.2259 17.0749 76.8974 17.0749C77.2043 17.0749 77.504 17.1052 77.8009 17.157C78.1006 17.2125 78.365 17.2867 78.6005 17.3796V17.1822C78.5998 16.9625 78.584 16.7781 78.5472 16.6275ZM76.6114 19.4329C76.7785 19.5252 77.0934 19.5727 77.5573 19.5727C77.7511 19.5727 77.9298 19.5684 78.0897 19.5583C78.2497 19.5511 78.4219 19.5331 78.5998 19.4992V18.4041C78.2713 18.358 77.9046 18.3328 77.4961 18.3328C77.2627 18.3328 77.071 18.3465 76.9233 18.376C76.7735 18.4012 76.6589 18.4409 76.5761 18.492C76.4939 18.5425 76.4385 18.608 76.4053 18.6887C76.3751 18.7716 76.3585 18.8623 76.3585 18.9632C76.3578 19.1844 76.4442 19.3378 76.6114 19.4329Z" fill="#1EB795"/>
<path d="M87.1356 20.8076H85.8186C85.6875 20.8076 85.6212 20.7435 85.6212 20.6109V18.2658H83.5665V20.6109C83.5665 20.7442 83.4988 20.8076 83.3677 20.8076H82.0528C81.9188 20.8076 81.8525 20.7435 81.8525 20.6109V14.9762C81.8525 14.8386 81.9195 14.7666 82.0528 14.7666H83.3677C83.4995 14.7666 83.5665 14.8386 83.5665 14.9762V16.9366H85.6212V14.9762C85.6212 14.8386 85.6882 14.7666 85.8186 14.7666H87.1356C87.2675 14.7666 87.3338 14.8386 87.3338 14.9762V20.6109C87.3338 20.7435 87.2667 20.8076 87.1356 20.8076Z" fill="#1EB795"/>
<path d="M88.7546 16.3688C88.8699 16.0165 89.0536 15.7125 89.2993 15.4603C89.5464 15.2075 89.8649 15.0122 90.2568 14.8775C90.6458 14.7413 91.1206 14.6714 91.6761 14.6714C91.9412 14.6714 92.2265 14.6981 92.5284 14.7485C92.8281 14.799 93.1076 14.866 93.3663 14.9524C93.4931 14.9913 93.5536 15.0627 93.5536 15.1628V15.956C93.5536 16.0785 93.4952 16.1304 93.3792 16.108C93.1451 16.0677 92.9153 16.0396 92.6919 16.0252C92.4686 16.0101 92.2243 16.0007 91.9571 16.0007C91.3627 16.0007 90.9369 16.139 90.679 16.4092C90.4225 16.6822 90.2914 17.0929 90.2914 17.6462V17.938C90.2914 18.4891 90.4225 18.9005 90.679 19.1685C90.9362 19.4358 91.362 19.572 91.9571 19.572C92.4664 19.572 92.9686 19.5352 93.4606 19.4653C93.5687 19.4589 93.6242 19.5107 93.6242 19.6181V20.4113C93.6242 20.5122 93.5629 20.5813 93.4376 20.6195C92.9037 20.8068 92.3173 20.9012 91.6761 20.9012C91.1206 20.9012 90.6458 20.832 90.2568 20.6966C89.8649 20.5604 89.5464 20.3695 89.2993 20.1195C89.0536 19.8702 88.8699 19.5698 88.7546 19.2146C88.6365 18.8623 88.5781 18.4675 88.5781 18.0309V17.5533C88.5781 17.1195 88.6365 16.724 88.7546 16.3688Z" fill="#1EB795"/>
<path d="M98.0326 16.6275C97.9966 16.4755 97.9216 16.3537 97.8035 16.2586C97.6861 16.1671 97.5182 16.0987 97.2992 16.0605C97.0794 16.0209 96.7869 16.0007 96.418 16.0007C96.1681 16.0007 95.9181 16.0137 95.6673 16.0317C95.4173 16.0511 95.2055 16.0785 95.0341 16.1189C94.9707 16.1354 94.9209 16.1318 94.8828 16.1088C94.8424 16.0835 94.8215 16.0374 94.8215 15.9683V15.1743C94.8215 15.0655 94.8784 14.9971 94.9858 14.9647C95.3316 14.8631 95.6645 14.7896 95.9851 14.7435C96.3071 14.696 96.6097 14.6722 96.9008 14.6722C97.4303 14.6722 97.8827 14.7168 98.2494 14.8055C98.6169 14.897 98.9173 15.0353 99.1493 15.2276C99.3777 15.4171 99.5448 15.6585 99.6471 15.9503C99.7494 16.2428 99.7991 16.5886 99.7991 16.9935V20.0828C99.7991 20.4027 99.686 20.59 99.4584 20.6447C99.1298 20.7283 98.743 20.7932 98.2963 20.8364C97.8496 20.8789 97.4245 20.9012 97.0182 20.9012C96.5096 20.9012 96.0773 20.863 95.7264 20.791C95.3748 20.7161 95.0895 20.6015 94.8691 20.4459C94.6501 20.2903 94.4923 20.0936 94.3943 19.8515C94.2963 19.6109 94.248 19.3191 94.248 18.9762C94.248 18.3328 94.4354 17.853 94.8114 17.5432C95.1868 17.2305 95.7098 17.0749 96.3849 17.0749C96.6904 17.0749 96.9901 17.1052 97.2862 17.157C97.5845 17.2125 97.8489 17.2867 98.0837 17.3796V17.1822C98.083 16.9625 98.0665 16.7781 98.0326 16.6275ZM96.096 19.4329C96.2632 19.5252 96.5787 19.5727 97.0405 19.5727C97.2365 19.5727 97.4144 19.5684 97.5758 19.5583C97.7329 19.5511 97.9058 19.5331 98.083 19.4992V18.4041C97.7552 18.358 97.3878 18.3328 96.9815 18.3328C96.7473 18.3328 96.5542 18.3465 96.4072 18.376C96.2581 18.4012 96.1414 18.4409 96.0607 18.492C95.9771 18.5425 95.9202 18.608 95.8892 18.6887C95.859 18.7716 95.8424 18.8623 95.8424 18.9632C95.8424 19.1844 95.9289 19.3378 96.096 19.4329Z" fill="#1EB795"/>
<path d="M106.149 14.964C106.21 14.8328 106.324 14.7651 106.489 14.7651H107.897C108.03 14.7651 108.096 14.8379 108.096 14.9769V20.6087C108.096 20.7406 108.03 20.8068 107.897 20.8068H106.582C106.447 20.8068 106.383 20.7398 106.383 20.6087V16.9827L105.362 18.8839C105.324 18.9452 105.284 18.9927 105.245 19.023C105.206 19.054 105.15 19.0684 105.08 19.0684H104.352C104.282 19.0684 104.226 19.054 104.188 19.023C104.148 18.9927 104.11 18.9452 104.071 18.8839L103.05 16.9827V20.6087C103.05 20.7406 102.981 20.8068 102.85 20.8068H101.536C101.404 20.8068 101.336 20.7398 101.336 20.6087V14.9769C101.336 14.8372 101.404 14.7651 101.536 14.7651H102.944C103.1 14.7651 103.215 14.8336 103.285 14.964L104.716 17.6462L106.149 14.964Z" fill="#1EB795"/>
<path d="M115.14 20.8076H113.824C113.693 20.8076 113.624 20.7435 113.624 20.6109V16.9949L111.784 20.6224C111.745 20.6945 111.702 20.7413 111.655 20.7694C111.607 20.7946 111.537 20.8083 111.442 20.8083H109.892C109.759 20.8083 109.694 20.7442 109.694 20.6116V14.977C109.694 14.8393 109.76 14.7673 109.892 14.7673H111.208C111.342 14.7673 111.408 14.8393 111.408 14.977V18.5792L113.25 14.9654C113.289 14.8963 113.331 14.8451 113.378 14.8141C113.425 14.7832 113.497 14.7673 113.59 14.7673H115.14C115.272 14.7673 115.338 14.8393 115.338 14.977V20.6116C115.338 20.7435 115.271 20.8076 115.14 20.8076Z" fill="#1EB795"/>
<path d="M26.4654 2.92519L22.0171 3.74146L22.0156 3.74291L26.4799 8.84659V2.92087L26.4654 2.92519Z" fill="#1EB795"/>
<path d="M31.5596 1.98714L34.7559 5.67587V1.4007L31.5596 1.98714Z" fill="#1EB795"/>
<path d="M6.95354 8.75006L0.0693359 27.0287L1.37136 28.533L4.18854 31.783H6.95354V27.1757V15.0461V8.75006Z" fill="#1EB795"/>
<path d="M14.1963 12.0649L25.2308 16.5266L25.3432 16.2298L26.0174 14.4388H26.0181L17.4724 4.57575L16.9519 3.97561L14.1963 0.795532V12.0649Z" fill="#1EB795"/>
<path d="M13 15.0482L16.7111 31.7829H19.4847L24.1013 19.5266L13 15.0482Z" fill="#1EB795"/>
<path d="M6.95312 15.0461V27.1742H6.95529L15.6881 27.1677L13 15.0468V15.0483V15.0461H6.95312Z" fill="#A2D296"/>
<path d="M14.1955 12.0649L13 15.0483L24.1013 19.5266L24.9531 17.2608L25.2301 16.5267L14.1955 12.0649Z" fill="#A2D296"/>
<path d="M26.2106 2.97201V8.44386L22.0855 3.72849L18.2454 4.43381L17.4697 4.57574L26.017 14.4388L27.8366 16.5374H34.7564V5.67732L31.56 1.98715L26.2106 2.97201Z" fill="#A2D296"/>
<path d="M42.4533 24.7729H42.673C42.7057 24.7729 42.7224 24.7881 42.7224 24.8219V27.1829C42.7224 27.2153 42.7057 27.2333 42.673 27.2333H42.4533C42.4208 27.2333 42.4041 27.2153 42.4041 27.1829V26.1051H41.305V27.1829C41.305 27.2153 41.2884 27.2333 41.2536 27.2333H41.0361C41.0027 27.2333 40.9854 27.2153 40.9854 27.1829V24.8219C40.9854 24.7881 41.002 24.7729 41.0361 24.7729H41.2536C41.2884 24.7729 41.305 24.7881 41.305 24.8219V25.8313H42.4041V24.8219C42.4041 24.7888 42.4208 24.7729 42.4533 24.7729Z" fill="#505050"/>
<path d="M43.5326 27.234H43.2977C43.2608 27.234 43.2477 27.2131 43.2608 27.1757L43.9676 24.8457C43.9821 24.7989 44.014 24.7744 44.0669 24.7744H44.3932C44.4446 24.7744 44.478 24.7982 44.491 24.8457L45.1986 27.1757C45.2116 27.2131 45.1986 27.234 45.1609 27.234H44.9268C44.8934 27.234 44.8731 27.221 44.8651 27.1944L44.7005 26.6368H43.7603L43.5928 27.1944C43.5856 27.2218 43.566 27.234 43.5326 27.234ZM44.6179 26.3623L44.2286 25.0438L43.8393 26.3623H44.6179Z" fill="#505050"/>
<path d="M47.795 27.6339H47.5753C47.5427 27.6339 47.5246 27.6187 47.5246 27.5856V27.2347H45.7144C45.681 27.2347 45.665 27.2167 45.665 27.1843V24.8219C45.665 24.791 45.681 24.7744 45.7144 24.7744H45.9333C45.9666 24.7744 45.9833 24.791 45.9833 24.8219V26.961H47.2505V24.8219C47.2505 24.791 47.2672 24.7744 47.3013 24.7744H47.5173C47.5507 24.7744 47.5666 24.791 47.5666 24.8219V26.9588H47.7935C47.8262 26.9588 47.8421 26.9739 47.8421 27.0056V27.5863C47.8436 27.6195 47.8269 27.6339 47.795 27.6339Z" fill="#505050"/>
<path d="M48.7454 27.2218C48.7352 27.229 48.7178 27.2347 48.6938 27.2347H48.3901C48.3567 27.2347 48.3408 27.2167 48.3408 27.1857V24.8219C48.3408 24.7909 48.3567 24.7744 48.3901 24.7744H48.6098C48.6417 24.7744 48.6583 24.7909 48.6583 24.8219V26.7837L49.6958 24.8219C49.7037 24.8054 49.7146 24.7938 49.7262 24.7852C49.7363 24.7765 49.7523 24.7737 49.777 24.7737H50.0807C50.1133 24.7737 50.1307 24.7902 50.1307 24.8212V27.185C50.1307 27.216 50.1133 27.234 50.0807 27.234H49.8625C49.8291 27.234 49.8132 27.216 49.8132 27.185V25.2218L48.7758 27.185C48.7656 27.2009 48.7562 27.2131 48.7454 27.2218Z" fill="#505050"/>
<path d="M52.4632 26.9631C52.3023 27.1735 52.0478 27.2758 51.7021 27.2758C51.3548 27.2758 51.1011 27.1735 50.9387 26.9631C50.777 26.7549 50.6973 26.4531 50.6973 26.0575V25.9516C50.6973 25.5554 50.777 25.2506 50.9387 25.0453C51.1011 24.8349 51.3548 24.7297 51.7021 24.7297C52.0486 24.7297 52.3023 24.8349 52.4632 25.0453C52.6249 25.2506 52.7054 25.5554 52.7054 25.9516V26.0575C52.7054 26.4523 52.6249 26.7542 52.4632 26.9631ZM52.2197 25.2319C52.1088 25.0806 51.9348 25.0042 51.7021 25.0042C51.4679 25.0042 51.2947 25.0806 51.183 25.2319C51.0713 25.3832 51.0141 25.626 51.0141 25.9617V26.046C51.0141 26.3803 51.0706 26.6231 51.183 26.7744C51.2954 26.9257 51.4679 27.0006 51.7021 27.0006C51.9348 27.0006 52.1088 26.9257 52.2197 26.7744C52.3306 26.6231 52.3864 26.3803 52.3864 26.046V25.9617C52.3864 25.626 52.3306 25.3832 52.2197 25.2319Z" fill="#505050"/>
<path d="M54.7412 24.7729H54.9594C54.9928 24.7729 55.0109 24.7881 55.0109 24.8219V27.1829C55.0109 27.2153 54.9928 27.2333 54.9594 27.2333H54.7412C54.7072 27.2333 54.6905 27.2153 54.6905 27.1829V26.1051H53.5914V27.1829C53.5914 27.2153 53.5755 27.2333 53.5407 27.2333H53.3217C53.2869 27.2333 53.2725 27.2153 53.2725 27.1829V24.8219C53.2725 24.7881 53.2869 24.7729 53.3217 24.7729H53.5407C53.5748 24.7729 53.5914 24.7881 53.5914 24.8219V25.8313H54.6905V24.8219C54.6905 24.7888 54.7072 24.7729 54.7412 24.7729Z" fill="#505050"/>
<path d="M55.7483 27.234H55.5149C55.4779 27.234 55.4656 27.2131 55.4765 27.1757L56.1826 24.8457C56.1992 24.7989 56.2311 24.7744 56.2834 24.7744H56.6074C56.6603 24.7744 56.6937 24.7982 56.7067 24.8457L57.4143 27.1757C57.4273 27.2131 57.4143 27.234 57.3766 27.234H57.1432C57.1091 27.234 57.0888 27.221 57.0815 27.1944L56.9169 26.6368H55.9752L55.8092 27.1944C55.802 27.2218 55.7824 27.234 55.7483 27.234ZM56.8357 26.3623L56.4465 25.0438L56.0564 26.3623H56.8357Z" fill="#505050"/>
<path d="M58.2071 24.7729H59.6868C59.718 24.7729 59.736 24.7881 59.736 24.8219V27.1829C59.736 27.2153 59.718 27.2333 59.6868 27.2333H59.4664C59.4337 27.2333 59.4171 27.2153 59.4171 27.1829V25.0467H58.4754V26.7902C58.4754 26.8529 58.4688 26.9149 58.4572 26.9718C58.4456 27.0309 58.4224 27.0834 58.3876 27.1288C58.3521 27.1728 58.3028 27.2081 58.2397 27.2347C58.1745 27.2614 58.0926 27.2744 57.9904 27.2744C57.9505 27.2744 57.8976 27.2715 57.8258 27.2628C57.757 27.2556 57.6975 27.2434 57.6511 27.2333C57.617 27.2247 57.5996 27.2038 57.5996 27.1735V27.0337C57.5996 26.9955 57.617 26.9819 57.6511 26.9876C57.6634 26.9891 57.6808 26.9919 57.7018 26.9919C57.7229 26.9934 57.7461 26.9948 57.7707 26.9977C57.7961 26.9977 57.8186 26.9977 57.8432 26.9992C57.8628 27.0006 57.8809 27.0006 57.8939 27.0006C57.9512 27.0006 57.9991 26.9977 58.0361 26.9855C58.0701 26.9754 58.0962 26.9602 58.1136 26.9401C58.1317 26.9177 58.1433 26.8911 58.1491 26.8615C58.1564 26.8327 58.1593 26.7974 58.1593 26.7556V24.8234C58.1585 24.7888 58.1745 24.7729 58.2071 24.7729Z" fill="#505050"/>
<path d="M60.5281 24.7744H60.7477C60.7832 24.7744 60.7992 24.7888 60.7992 24.8205V25.7081C60.9471 25.693 61.0994 25.6872 61.2494 25.6872C61.5539 25.6872 61.7743 25.7528 61.9156 25.8824C62.0541 26.0143 62.1244 26.2138 62.1244 26.4797C62.1244 26.7419 62.0541 26.9415 61.9156 27.0733C61.7743 27.2088 61.5626 27.2751 61.2784 27.2751C61.145 27.2751 61.0211 27.2708 60.9079 27.2571C60.7941 27.2455 60.6825 27.2261 60.5781 27.1951C60.5121 27.1807 60.4795 27.1281 60.4795 27.0359V24.8198C60.4795 24.7888 60.4969 24.7744 60.5281 24.7744ZM61.4974 26.9638C61.5728 26.9408 61.6337 26.9069 61.6786 26.8601C61.7228 26.8154 61.7554 26.7607 61.7757 26.6966C61.7953 26.6317 61.8055 26.5618 61.8055 26.4855C61.8055 26.4012 61.7953 26.3284 61.7757 26.2614C61.7561 26.1966 61.7206 26.1396 61.6728 26.0971C61.6249 26.0525 61.5604 26.0179 61.4792 25.9948C61.3988 25.9696 61.2994 25.9595 61.1791 25.9595C61.1255 25.9595 61.0631 25.9595 60.9928 25.9653C60.9225 25.9682 60.8572 25.9725 60.7978 25.9804V26.9602C60.8703 26.9732 60.9399 26.9811 61.0073 26.9883C61.0769 26.9955 61.1479 26.9984 61.2204 26.9984C61.3314 27.0006 61.4234 26.9898 61.4974 26.9638Z" fill="#505050"/>
<path d="M64.1233 24.7729H64.3422C64.3763 24.7729 64.3916 24.7881 64.3916 24.8219V27.1829C64.3916 27.2153 64.3763 27.2333 64.3422 27.2333H64.1233C64.0893 27.2333 64.074 27.2153 64.074 27.1829V26.1051H62.9728V27.1829C62.9728 27.2153 62.9576 27.2333 62.9235 27.2333H62.7038C62.6719 27.2333 62.6553 27.2153 62.6553 27.1829V24.8219C62.6553 24.7881 62.6719 24.7729 62.7038 24.7729H62.9235C62.9576 24.7729 62.9728 24.7881 62.9728 24.8219V25.8313H64.074V24.8219C64.074 24.7888 64.09 24.7729 64.1233 24.7729Z" fill="#505050"/>
<path d="M65.1307 27.234H64.898C64.861 27.234 64.8487 27.2131 64.8589 27.1757L65.5664 24.8457C65.5802 24.7989 65.6136 24.7744 65.6657 24.7744H65.9898C66.0427 24.7744 66.0768 24.7982 66.0906 24.8457L66.7989 27.1757C66.8119 27.2131 66.7967 27.234 66.759 27.234H66.5263C66.4929 27.234 66.4719 27.221 66.4661 27.1944L66.3001 26.6368H65.3591L65.1924 27.1951C65.1851 27.2218 65.1648 27.234 65.1307 27.234ZM66.2167 26.3623L65.8281 25.0438L65.4389 26.3623H66.2167Z" fill="#505050"/>
<path d="M68.445 24.7492C68.5559 24.7636 68.6632 24.783 68.769 24.8126C68.8335 24.8306 68.8676 24.8824 68.8676 24.9703V27.185C68.8676 27.216 68.8509 27.234 68.8169 27.234H68.5979C68.566 27.234 68.5494 27.216 68.5494 27.185V26.2347C68.395 26.2499 68.2442 26.2571 68.0963 26.2571H68.0035L67.4938 27.1951C67.4793 27.2218 67.4517 27.2347 67.4141 27.2347H67.1683C67.1517 27.2347 67.1364 27.229 67.1306 27.2167C67.1234 27.2081 67.1248 27.1944 67.1335 27.1792L67.6671 26.1973C67.5163 26.1461 67.409 26.064 67.3409 25.9523C67.2734 25.8406 67.2394 25.7038 67.2394 25.5417V25.4422C67.2394 25.3306 67.2546 25.2326 67.2858 25.1432C67.317 25.0553 67.3655 24.9819 67.4344 24.9206C67.5011 24.8601 67.5895 24.8133 67.6997 24.7794C67.8084 24.747 67.9389 24.7304 68.0955 24.7304C68.2159 24.7297 68.334 24.7369 68.445 24.7492ZM68.3522 25.9768C68.4232 25.9739 68.487 25.9667 68.5486 25.9617V25.0474C68.4863 25.033 68.4232 25.0222 68.3579 25.015C68.2942 25.0078 68.2282 25.0035 68.1666 25.0035C68.0477 25.0035 67.9491 25.0136 67.873 25.0345C67.7947 25.0539 67.7309 25.0827 67.6837 25.1238C67.6381 25.1649 67.6048 25.2117 67.5845 25.2693C67.5649 25.3262 67.5577 25.3932 67.5577 25.4703V25.5092C67.5577 25.5842 67.5649 25.6461 67.5845 25.7066C67.604 25.7636 67.6366 25.8118 67.683 25.8529C67.728 25.8925 67.7911 25.9264 67.8679 25.9487C67.9462 25.9689 68.0455 25.9819 68.1666 25.9819C68.221 25.9826 68.2833 25.9811 68.3522 25.9768Z" fill="#505050"/>
<path d="M72.4898 27.234H72.2723C72.2355 27.234 72.2211 27.216 72.2211 27.185V25.0474H70.954V27.185C70.954 27.216 70.938 27.234 70.904 27.234H70.6865C70.6539 27.234 70.6357 27.216 70.6357 27.185V24.8212C70.6357 24.7888 70.6539 24.7737 70.6865 24.7737H72.4898C72.523 24.7737 72.5395 24.7888 72.5395 24.8212V27.185C72.5403 27.216 72.523 27.234 72.4898 27.234Z" fill="#505050"/>
<path d="M73.7044 24.7492C73.8161 24.7362 73.9335 24.7297 74.0546 24.7297C74.3636 24.7297 74.5877 24.7917 74.7239 24.9135C74.86 25.0323 74.9263 25.2182 74.9263 25.4632V25.6015C74.9263 25.8472 74.8564 26.0323 74.7181 26.1555C74.5783 26.2744 74.3586 26.3342 74.0546 26.3342C73.8997 26.3342 73.7476 26.327 73.6007 26.3133V27.1843C73.6007 27.2167 73.5834 27.2348 73.5502 27.2348H73.3327C73.2981 27.2348 73.2822 27.2167 73.2822 27.1843V24.9711C73.2822 24.8832 73.3139 24.832 73.3816 24.8133C73.484 24.783 73.5935 24.7622 73.7044 24.7492ZM73.7966 26.0546C73.8665 26.0604 73.9299 26.0604 73.9825 26.0604C74.1028 26.0604 74.2022 26.0489 74.2837 26.0294C74.3622 26.0071 74.4263 25.9761 74.476 25.9372C74.5257 25.8933 74.5589 25.8428 74.579 25.7816C74.6007 25.7232 74.6093 25.6483 74.6093 25.5691V25.4941C74.6093 25.4084 74.5985 25.3356 74.579 25.2744C74.5553 25.2124 74.5214 25.1598 74.4739 25.1217C74.4249 25.0806 74.3615 25.0503 74.2801 25.0323C74.2001 25.0143 74.1007 25.0042 73.9832 25.0042C73.9198 25.0042 73.8564 25.0086 73.7916 25.0172C73.7246 25.023 73.6619 25.0323 73.6014 25.0482V26.0395C73.6619 26.0446 73.7275 26.0503 73.7966 26.0546Z" fill="#505050"/>
<path d="M77.1196 26.9631C76.9575 27.1735 76.7046 27.2758 76.358 27.2758C76.0108 27.2758 75.7557 27.1735 75.5944 26.9631C75.4323 26.7549 75.3516 26.4531 75.3516 26.0575V25.9516C75.3516 25.5554 75.4323 25.2506 75.5944 25.0453C75.7557 24.8349 76.0101 24.7297 76.358 24.7297C76.7046 24.7297 76.9575 24.8349 77.1196 25.0453C77.2817 25.2506 77.3609 25.5554 77.3609 25.9516V26.0575C77.3609 26.4523 77.2817 26.7542 77.1196 26.9631ZM76.8753 25.2319C76.7644 25.0806 76.59 25.0042 76.358 25.0042C76.1224 25.0042 75.9503 25.0806 75.8386 25.2319C75.7276 25.3832 75.67 25.626 75.67 25.9617V26.046C75.67 26.3803 75.7276 26.6231 75.8386 26.7744C75.9503 26.9257 76.1224 27.0006 76.358 27.0006C76.59 27.0006 76.7644 26.9257 76.8753 26.7744C76.9863 26.6231 77.0425 26.3803 77.0425 26.046V25.9617C77.0432 25.626 76.987 25.3832 76.8753 25.2319Z" fill="#505050"/>
<path d="M78.0473 24.7729H79.499C79.5315 24.7729 79.5466 24.7881 79.5466 24.8219V24.9977C79.5466 25.0302 79.5315 25.0467 79.499 25.0467H78.3175V27.1829C78.3175 27.2153 78.3002 27.2333 78.2671 27.2333H78.0473C78.0156 27.2333 77.999 27.2153 77.999 27.1829V24.8219C77.9983 24.7888 78.0156 24.7729 78.0473 24.7729Z" fill="#505050"/>
<path d="M80.3607 24.7492C80.4738 24.7362 80.5883 24.7297 80.7086 24.7297C81.0206 24.7297 81.2439 24.7917 81.3794 24.9135C81.5141 25.0323 81.5833 25.2182 81.5833 25.4632V25.6015C81.5833 25.8472 81.5134 26.0323 81.3751 26.1555C81.2353 26.2744 81.0127 26.3342 80.7086 26.3342C80.5559 26.3342 80.4061 26.327 80.2562 26.3133V27.1843C80.2562 27.2167 80.2396 27.2348 80.2072 27.2348H79.9867C79.9543 27.2348 79.9385 27.2167 79.9385 27.1843V24.9711C79.9385 24.8832 79.9716 24.832 80.0379 24.8133C80.1402 24.783 80.249 24.7622 80.3607 24.7492ZM80.4522 26.0546C80.5228 26.0604 80.584 26.0604 80.6388 26.0604C80.7591 26.0604 80.8607 26.0489 80.9392 26.0294C81.0192 26.0071 81.0847 25.9761 81.1337 25.9372C81.1805 25.8933 81.2151 25.8428 81.2353 25.7816C81.2555 25.7232 81.2648 25.6483 81.2648 25.5691V25.4941C81.2648 25.4084 81.2547 25.3356 81.2331 25.2744C81.2122 25.2124 81.1769 25.1598 81.1294 25.1217C81.0811 25.0806 81.0163 25.0503 80.9356 25.0323C80.8556 25.0143 80.7569 25.0042 80.6388 25.0042C80.5754 25.0042 80.5098 25.0086 80.4457 25.0172C80.3823 25.023 80.3167 25.0323 80.2562 25.0482V26.0395C80.3167 26.0446 80.383 26.0503 80.4522 26.0546Z" fill="#505050"/>
<path d="M82.1457 27.234H81.9115C81.8741 27.234 81.8625 27.2131 81.8726 27.1757L82.5815 24.8457C82.5952 24.7989 82.6284 24.7744 82.6795 24.7744H83.0052C83.0585 24.7744 83.0895 24.7982 83.1046 24.8457L83.8121 27.1757C83.825 27.2131 83.8114 27.234 83.7732 27.234H83.5412C83.5073 27.234 83.4864 27.221 83.4792 27.1944L83.3135 26.6368H82.3733L82.2048 27.1944C82.1983 27.2218 82.1795 27.234 82.1457 27.234ZM83.2314 26.3623L82.8431 25.0438L82.4519 26.3623H83.2314Z" fill="#505050"/>
<path d="M86.195 24.7729H86.4702C86.5055 24.7729 86.5206 24.7881 86.5206 24.8219V27.1829C86.5206 27.2153 86.5055 27.2333 86.4702 27.2333H86.2541C86.2209 27.2333 86.2029 27.2153 86.2029 27.1829V25.2521L85.566 26.4898C85.5574 26.5092 85.5473 26.5229 85.5358 26.533C85.5214 26.5402 85.5048 26.5445 85.4817 26.5445H85.3297C85.2822 26.5445 85.2497 26.5237 85.2296 26.4862L84.5963 25.2528V27.1836C84.5963 27.216 84.5797 27.234 84.548 27.234H84.3283C84.2944 27.234 84.2793 27.216 84.2793 27.1836V24.8227C84.2793 24.7888 84.2944 24.7737 84.3283 24.7737H84.6028C84.6467 24.7737 84.677 24.7917 84.6957 24.8284L85.401 26.1901L86.1085 24.8234C86.1251 24.7888 86.1554 24.7729 86.195 24.7729Z" fill="#505050"/>
<path d="M89.1809 24.7729H89.4575C89.4914 24.7729 89.5079 24.7881 89.5079 24.8219V27.1829C89.5079 27.2153 89.4914 27.2333 89.4575 27.2333H89.2399C89.2061 27.2333 89.1895 27.2153 89.1895 27.1829V25.2521L88.5526 26.4898C88.5447 26.5092 88.5324 26.5229 88.5209 26.533C88.5101 26.5402 88.4907 26.5445 88.469 26.5445H88.3149C88.2695 26.5445 88.2363 26.5237 88.2154 26.4862L87.5836 25.2528V27.1836C87.5836 27.216 87.567 27.234 87.5332 27.234H87.3142C87.2803 27.234 87.2666 27.216 87.2666 27.1836V24.8227C87.2666 24.7888 87.281 24.7737 87.3142 24.7737H87.5894C87.6319 24.7737 87.6643 24.7917 87.6823 24.8284L88.3862 26.1901L89.0944 24.8234C89.1124 24.7888 89.1412 24.7729 89.1809 24.7729Z" fill="#505050"/>
<path d="M90.2474 27.234H90.0147C89.9758 27.234 89.9622 27.2131 89.9737 27.1757L90.6819 24.8457C90.697 24.7989 90.7302 24.7744 90.7813 24.7744H91.107C91.1581 24.7744 91.1927 24.7982 91.2064 24.8457L91.9139 27.1757C91.9261 27.2131 91.9117 27.234 91.8764 27.234H91.6423C91.6077 27.234 91.5882 27.221 91.581 27.1944L91.4167 26.6368H90.4751L90.3072 27.1944C90.2993 27.2218 90.2791 27.234 90.2474 27.234ZM91.3325 26.3623L90.9449 25.0438L90.5551 26.3623H91.3325Z" fill="#505050"/>
<path d="M95.3298 27.234H95.113C95.0784 27.234 95.0618 27.216 95.0618 27.185V25.0474H93.796V27.185C93.796 27.216 93.7787 27.234 93.7477 27.234H93.528C93.4941 27.234 93.4775 27.216 93.4775 27.185V24.8212C93.4775 24.7888 93.4941 24.7737 93.528 24.7737H95.3298C95.3637 24.7737 95.3803 24.7888 95.3803 24.8212V27.185C95.381 27.216 95.3637 27.234 95.3298 27.234Z" fill="#505050"/>
<path d="M97.7157 26.9631C97.5522 27.1735 97.2986 27.2758 96.9506 27.2758C96.6041 27.2758 96.3512 27.1735 96.1891 26.9631C96.027 26.7549 95.9463 26.4531 95.9463 26.0575V25.9516C95.9463 25.5554 96.027 25.2506 96.1891 25.0453C96.3512 24.8349 96.6041 24.7297 96.9506 24.7297C97.2979 24.7297 97.5522 24.8349 97.7157 25.0453C97.8757 25.2506 97.9571 25.5554 97.9571 25.9516V26.0575C97.9571 26.4523 97.8757 26.7542 97.7157 26.9631ZM97.4708 25.2319C97.3591 25.0806 97.1862 25.0042 96.9513 25.0042C96.7186 25.0042 96.5471 25.0806 96.434 25.2319C96.3216 25.3832 96.2655 25.626 96.2655 25.9617V26.046C96.2655 26.3803 96.3216 26.6231 96.434 26.7744C96.5471 26.9257 96.7186 27.0006 96.9513 27.0006C97.1862 27.0006 97.3591 26.9257 97.4708 26.7744C97.5817 26.6231 97.6365 26.3803 97.6365 26.046V25.9617C97.6365 25.626 97.5817 25.3832 97.4708 25.2319Z" fill="#505050"/>
<path d="M98.5225 27.0373V24.9718C98.5225 24.8825 98.5549 24.8313 98.6226 24.8126C98.7314 24.7787 98.8409 24.7593 98.9511 24.7477C99.0628 24.7362 99.1795 24.7312 99.2969 24.7312C99.5974 24.7312 99.815 24.7902 99.9482 24.9106C100.084 25.0309 100.151 25.1995 100.151 25.4178C100.151 25.5323 100.13 25.6303 100.087 25.7146C100.043 25.7996 99.9612 25.8738 99.8366 25.9372C99.9144 25.9603 99.9821 25.9912 100.037 26.0323C100.091 26.0741 100.133 26.1216 100.167 26.175C100.198 26.2276 100.22 26.2852 100.234 26.3493C100.248 26.4149 100.252 26.4826 100.252 26.5532C100.252 26.6706 100.236 26.7729 100.205 26.8623C100.174 26.9538 100.123 27.0287 100.054 27.0899C99.9864 27.1519 99.8964 27.1973 99.784 27.2283C99.673 27.2607 99.5369 27.2744 99.3776 27.2744C99.2436 27.2744 99.1096 27.27 98.9785 27.26C98.8459 27.2484 98.7285 27.2275 98.6219 27.1966C98.5549 27.1814 98.5225 27.1267 98.5225 27.0373ZM98.8402 25.0474V25.8277H99.325C99.5008 25.8277 99.6284 25.7938 99.7105 25.7276C99.7905 25.6606 99.8315 25.5561 99.8315 25.417C99.8315 25.265 99.7804 25.1562 99.6795 25.0957C99.5772 25.0345 99.4273 25.0035 99.2271 25.0035C99.0902 25.0042 98.9612 25.0179 98.8402 25.0474ZM99.8034 26.8875C99.8899 26.8133 99.9338 26.6987 99.9338 26.5489C99.9338 26.4819 99.9259 26.4228 99.9093 26.3702C99.8928 26.314 99.8654 26.2679 99.8279 26.229C99.7912 26.1879 99.7429 26.1562 99.6853 26.1368C99.6276 26.113 99.5563 26.1015 99.472 26.1015H98.8409V26.9624C98.9259 26.9775 99.008 26.9862 99.0859 26.992C99.1637 26.9977 99.2458 27.0006 99.3344 27.0006C99.5585 27.0006 99.717 26.9639 99.8034 26.8875Z" fill="#505050"/>
<path d="M100.819 24.7729H101.038C101.07 24.7729 101.087 24.7881 101.087 24.8219V25.7081C101.236 25.693 101.387 25.6872 101.541 25.6872C101.842 25.6872 102.064 25.7513 102.205 25.8824C102.344 26.0143 102.415 26.2139 102.415 26.4811C102.415 26.7434 102.344 26.943 102.205 27.0734C102.064 27.2081 101.851 27.2736 101.569 27.2736C101.434 27.2736 101.31 27.2693 101.196 27.2571C101.085 27.2441 100.973 27.2261 100.868 27.1951C100.802 27.1807 100.768 27.1281 100.768 27.0359V24.8212C100.768 24.7888 100.784 24.7729 100.819 24.7729ZM101.782 26.9638C101.858 26.9408 101.916 26.9055 101.964 26.8601C102.009 26.8154 102.041 26.7607 102.064 26.6966C102.087 26.6317 102.095 26.5618 102.095 26.4855C102.095 26.4012 102.087 26.3284 102.065 26.2614C102.046 26.198 102.013 26.1411 101.964 26.0971C101.915 26.0525 101.85 26.0179 101.77 25.9948C101.69 25.9696 101.589 25.9595 101.47 25.9595C101.416 25.9595 101.353 25.9595 101.283 25.9639C101.214 25.9682 101.148 25.9725 101.087 25.9804V26.9617C101.16 26.9732 101.229 26.9797 101.299 26.9883C101.367 26.9955 101.438 26.9984 101.511 26.9984C101.62 27.0006 101.708 26.9898 101.782 26.9638ZM102.773 24.7729H102.99C103.024 24.7729 103.04 24.7881 103.04 24.8219V27.1829C103.04 27.2153 103.024 27.2333 102.99 27.2333H102.773C102.738 27.2333 102.721 27.2153 102.721 27.1829V24.8219C102.721 24.7888 102.738 24.7729 102.773 24.7729Z" fill="#505050"/>
<path d="M105.772 26.9602V24.8212C105.772 24.7902 105.789 24.7737 105.821 24.7737H106.042C106.074 24.7737 106.09 24.7902 106.09 24.8212V27.185C106.09 27.216 106.074 27.234 106.042 27.234H103.762C103.729 27.234 103.714 27.216 103.714 27.185V24.8212C103.714 24.7902 103.729 24.7737 103.762 24.7737H103.982C104.014 24.7737 104.03 24.7902 104.03 24.8212V26.9602H104.741V24.8212C104.741 24.7902 104.758 24.7737 104.791 24.7737H105.011C105.042 24.7737 105.058 24.7902 105.058 24.8212V26.9602H105.772Z" fill="#505050"/>
<path d="M106.788 24.9913C106.803 24.9286 106.834 24.8767 106.877 24.8371C106.921 24.7996 106.979 24.7744 107.056 24.755C107.131 24.7398 107.227 24.7297 107.347 24.7297C107.495 24.7297 107.641 24.7341 107.773 24.7427C107.911 24.7485 108.041 24.7593 108.162 24.7708C108.193 24.7751 108.208 24.7903 108.208 24.8212V24.9545C108.208 24.9884 108.19 25.0035 108.159 25.0035H107.281C107.204 25.0035 107.15 25.023 107.121 25.0604C107.095 25.0986 107.079 25.1519 107.079 25.2218V25.832H108.088C108.12 25.832 108.137 25.8479 108.137 25.8803V26.0568C108.137 26.0885 108.12 26.1051 108.088 26.1051H107.079V26.7816C107.079 26.8529 107.095 26.9062 107.121 26.9444C107.15 26.9819 107.203 26.9999 107.281 26.9999H108.195C108.226 26.9999 108.244 27.0165 108.244 27.0503V27.1843C108.244 27.2153 108.229 27.2333 108.198 27.2362C108.052 27.2506 107.913 27.2614 107.78 27.2672C107.649 27.2729 107.503 27.2744 107.347 27.2744C107.227 27.2744 107.131 27.2672 107.056 27.2506C106.979 27.234 106.92 27.2067 106.877 27.167C106.834 27.1303 106.802 27.077 106.788 27.0143C106.77 26.9502 106.762 26.8688 106.762 26.7737V25.2341C106.762 25.1382 106.77 25.0568 106.788 24.9913Z" fill="#505050"/>
<path d="M110.279 24.7729H110.498C110.529 24.7729 110.549 24.7881 110.549 24.8219V27.1829C110.549 27.2153 110.529 27.2333 110.498 27.2333H110.279C110.245 27.2333 110.23 27.2153 110.23 27.1829V26.1051H109.128V27.1829C109.128 27.2153 109.111 27.2333 109.078 27.2333H108.861C108.827 27.2333 108.812 27.2153 108.812 27.1829V24.8219C108.812 24.7881 108.828 24.7729 108.861 24.7729H109.078C109.111 24.7729 109.128 24.7881 109.128 24.8219V25.8313H110.23V24.8219C110.23 24.7888 110.246 24.7729 110.279 24.7729Z" fill="#505050"/>
<path d="M111.624 27.2218C111.613 27.229 111.597 27.2347 111.574 27.2347H111.269C111.237 27.2347 111.221 27.2167 111.221 27.1857V24.8219C111.221 24.7909 111.237 24.7744 111.269 24.7744H111.489C111.523 24.7744 111.539 24.7909 111.539 24.8219V26.7837L112.575 24.8219C112.585 24.8054 112.595 24.7938 112.604 24.7852C112.616 24.7765 112.633 24.7737 112.657 24.7737H112.96C112.995 24.7737 113.01 24.7902 113.01 24.8212V27.185C113.01 27.216 112.994 27.234 112.96 27.234H112.741C112.707 27.234 112.693 27.216 112.693 27.185V25.2218L111.657 27.185C111.645 27.2009 111.635 27.2131 111.624 27.2218Z" fill="#505050"/>
<path d="M114.862 24.7492C114.973 24.7636 115.083 24.783 115.187 24.8126C115.251 24.8306 115.284 24.8824 115.284 24.9703V27.185C115.284 27.216 115.268 27.234 115.236 27.234H115.016C114.983 27.234 114.966 27.216 114.966 27.185V26.2347C114.813 26.2499 114.663 26.2571 114.514 26.2571H114.422L113.913 27.1951C113.898 27.2218 113.872 27.2347 113.832 27.2347H113.589C113.57 27.2347 113.556 27.229 113.548 27.2167C113.54 27.2081 113.542 27.1944 113.553 27.1792L114.084 26.1973C113.934 26.1461 113.825 26.064 113.76 25.9523C113.692 25.8406 113.656 25.7038 113.656 25.5417V25.4422C113.656 25.3306 113.674 25.2326 113.703 25.1432C113.734 25.0553 113.782 24.9819 113.852 24.9206C113.921 24.8601 114.01 24.8133 114.117 24.7794C114.225 24.747 114.358 24.7304 114.513 24.7304C114.634 24.7297 114.749 24.7369 114.862 24.7492ZM114.77 25.9768C114.84 25.9739 114.904 25.9667 114.966 25.9617V25.0474C114.904 25.033 114.842 25.0222 114.777 25.015C114.712 25.0078 114.648 25.0035 114.584 25.0035C114.466 25.0035 114.37 25.0136 114.291 25.0345C114.213 25.0539 114.152 25.0827 114.102 25.1238C114.056 25.1649 114.025 25.2117 114.003 25.2693C113.985 25.3262 113.976 25.3932 113.976 25.4703V25.5092C113.976 25.5842 113.985 25.6461 114.003 25.7066C114.024 25.7636 114.055 25.8118 114.101 25.8529C114.148 25.8925 114.209 25.9264 114.288 25.9487C114.365 25.9689 114.465 25.9819 114.584 25.9819C114.638 25.9826 114.701 25.9811 114.77 25.9768Z" fill="#505050"/>
<path d="M42.4636 29.8147C42.5811 29.8471 42.6847 29.8954 42.7703 29.9631C42.8587 30.0301 42.9283 30.1166 42.982 30.2268C43.0313 30.3327 43.0573 30.4631 43.0573 30.6216C43.0573 30.7794 43.0313 30.9119 42.982 31.0186C42.9283 31.1259 42.8587 31.2153 42.7703 31.2801C42.6847 31.3485 42.5811 31.399 42.4636 31.4299C42.3462 31.4616 42.2215 31.4768 42.0917 31.484V31.8024C42.0917 31.8363 42.0751 31.8529 42.0424 31.8529H41.8242C41.7901 31.8529 41.7742 31.8363 41.7742 31.8024V31.484C41.6415 31.4768 41.5176 31.4616 41.4009 31.4299C41.2849 31.399 41.1819 31.3485 41.0927 31.2801C41.0043 31.2153 40.9362 31.1259 40.8847 31.0186C40.8332 30.9127 40.8086 30.7794 40.8086 30.6216C40.8086 30.4631 40.8332 30.3334 40.8847 30.2268C40.9362 30.1166 41.005 30.0301 41.0927 29.9631C41.1819 29.8954 41.2849 29.8471 41.4009 29.8147C41.5183 29.7852 41.6422 29.7657 41.7742 29.7599V29.4415C41.7742 29.4098 41.7901 29.3918 41.8242 29.3918H42.0424C42.0751 29.3918 42.0917 29.4098 42.0917 29.4415V29.7599C42.2215 29.765 42.3462 29.7844 42.4636 29.8147ZM41.1798 30.9076C41.2153 30.9825 41.2617 31.0423 41.3211 31.0827C41.3827 31.1281 41.4502 31.1591 41.5285 31.1778C41.606 31.1958 41.6886 31.2073 41.7728 31.2088V30.0337C41.6886 30.0366 41.606 30.0481 41.5285 30.0661C41.4502 30.0841 41.3827 30.1158 41.3211 30.1612C41.2617 30.2045 41.2153 30.2664 41.1798 30.3413C41.145 30.4163 41.1261 30.5092 41.1261 30.6216C41.1261 30.7376 41.145 30.8327 41.1798 30.9076ZM42.6869 30.3413C42.6492 30.2664 42.6021 30.2045 42.5419 30.1612C42.4832 30.1158 42.4143 30.0849 42.3353 30.0661C42.2577 30.0481 42.1765 30.0366 42.0917 30.0337V31.2088C42.1765 31.2073 42.2577 31.1958 42.3353 31.1778C42.4136 31.1598 42.4832 31.1288 42.5419 31.0827C42.6021 31.0416 42.6492 30.9818 42.6869 30.9076C42.7217 30.8327 42.7398 30.7376 42.7398 30.6216C42.7398 30.5092 42.7217 30.4155 42.6869 30.3413Z" fill="#505050"/>
<path d="M43.9585 31.8406C43.9469 31.8478 43.931 31.8536 43.9078 31.8536H43.6032C43.5692 31.8536 43.5547 31.837 43.5547 31.8031V29.4386C43.5547 29.4083 43.57 29.3932 43.6032 29.3932H43.8229C43.8555 29.3932 43.8723 29.4083 43.8723 29.4386V31.4026L44.9096 29.4386C44.9191 29.4242 44.9278 29.4141 44.9386 29.4055C44.9488 29.3968 44.9676 29.3925 44.9916 29.3925H45.2939C45.3287 29.3925 45.3431 29.4076 45.3431 29.4379V31.8024C45.3431 31.8363 45.3279 31.8528 45.2939 31.8528H45.0742C45.0423 31.8528 45.0256 31.8363 45.0256 31.8024V29.842L43.9883 31.8024C43.9795 31.8211 43.9694 31.8319 43.9585 31.8406Z" fill="#505050"/>
<path d="M47.4837 29.3911H47.7019C47.7353 29.3911 47.7526 29.4062 47.7526 29.4394V31.8024C47.7526 31.8363 47.736 31.8529 47.7019 31.8529H47.4837C47.4518 31.8529 47.4337 31.8363 47.4337 31.8024V30.7232H46.3339V31.8024C46.3339 31.8363 46.3179 31.8529 46.2846 31.8529H46.0664C46.0323 31.8529 46.0156 31.8363 46.0156 31.8024V29.4394C46.0156 29.4062 46.0323 29.3911 46.0664 29.3911H46.2846C46.3179 29.3911 46.3339 29.4062 46.3339 29.4394V30.4487H47.4337V29.4394C47.4337 29.4062 47.4518 29.3911 47.4837 29.3911Z" fill="#505050"/>
<path d="M48.4922 31.8507H48.2588C48.2211 31.8507 48.2087 31.8327 48.2196 31.793L48.9272 29.4667C48.9424 29.4184 48.9743 29.3925 49.0272 29.3925H49.3506C49.4027 29.3925 49.4368 29.4177 49.4513 29.4667L50.1589 31.793C50.1697 31.8327 50.1581 31.8507 50.1205 31.8507H49.887C49.853 31.8507 49.8334 31.8391 49.8254 31.8139L49.6594 31.2563H48.7206L48.5531 31.8139C48.5451 31.8391 48.5249 31.8507 48.4922 31.8507ZM49.579 30.9825L49.1889 29.6634L48.7996 30.9825H49.579Z" fill="#505050"/>
<path d="M52.0942 29.3911H52.3125C52.3465 29.3911 52.364 29.4062 52.364 29.4394V31.8024C52.364 31.8363 52.3465 31.8529 52.3125 31.8529H52.0942C52.0609 31.8529 52.0457 31.8363 52.0457 31.8024V30.7232H50.9452V31.8024C50.9452 31.8363 50.9264 31.8529 50.8945 31.8529H50.6762C50.6414 31.8529 50.627 31.8363 50.627 31.8024V29.4394C50.627 29.4062 50.6422 29.3911 50.6762 29.3911H50.8945C50.9264 29.3911 50.9452 29.4062 50.9452 29.4394V30.4487H52.0457V29.4394C52.045 29.4062 52.0609 29.3911 52.0942 29.3911Z" fill="#505050"/>
<path d="M53.2863 31.0784C53.3131 31.2001 53.3552 31.2981 53.4132 31.3788C53.4698 31.4566 53.5444 31.5186 53.6386 31.5575C53.7314 31.6 53.8474 31.6209 53.9845 31.6209C54.0678 31.6209 54.1541 31.618 54.2433 31.6108C54.331 31.605 54.4187 31.5964 54.5071 31.5841C54.5442 31.5841 54.563 31.5971 54.563 31.6281V31.783C54.563 31.8068 54.5492 31.8226 54.5253 31.8291C54.4332 31.8457 54.3368 31.8615 54.2346 31.8752C54.1331 31.8889 54.036 31.8925 53.9417 31.8925C53.7569 31.8925 53.601 31.8651 53.4748 31.806C53.3443 31.7477 53.2414 31.6648 53.1587 31.5568C53.079 31.4508 53.0188 31.3233 52.9826 31.1756C52.9464 31.0272 52.9268 30.8608 52.9268 30.6792V30.5661C52.9268 30.3846 52.9456 30.2182 52.9826 30.069C53.0181 29.9206 53.079 29.7916 53.1587 29.6857C53.2407 29.5798 53.3443 29.4955 53.4748 29.4365C53.601 29.3781 53.7569 29.35 53.9417 29.35C54.036 29.35 54.1273 29.3558 54.2172 29.3666C54.3085 29.3781 54.4013 29.3947 54.4891 29.417C54.5137 29.4235 54.5275 29.4372 54.5275 29.4617V29.6173C54.5275 29.6519 54.5079 29.6656 54.4709 29.6576C54.3825 29.6476 54.3013 29.6389 54.2237 29.6331C54.1483 29.6259 54.0671 29.6231 53.983 29.6231C53.8467 29.6231 53.73 29.6447 53.6372 29.6857C53.543 29.7268 53.4683 29.7866 53.4118 29.8666C53.3531 29.9458 53.3117 30.0467 53.2849 30.1656C53.2581 30.2844 53.2465 30.4228 53.2465 30.582V30.6641C53.2479 30.8226 53.2595 30.9609 53.2863 31.0784Z" fill="#505050"/>
<path d="M56.6676 31.5834C56.5045 31.7916 56.2508 31.8954 55.9042 31.8954C55.5591 31.8954 55.3032 31.7916 55.1416 31.5834C54.9792 31.3723 54.8994 31.0704 54.8994 30.6742V30.5719C54.8994 30.1735 54.9799 29.8694 55.1416 29.6627C55.3032 29.4516 55.5591 29.3493 55.9042 29.3493C56.2508 29.3493 56.5045 29.4516 56.6676 29.6627C56.8293 29.8694 56.909 30.1735 56.909 30.5719V30.6742C56.909 31.0704 56.8293 31.3723 56.6676 31.5834ZM56.4225 29.8507C56.3109 29.6994 56.1377 29.623 55.905 29.623C55.6715 29.623 55.4983 29.6994 55.3866 29.8507C55.275 30.0013 55.2191 30.2448 55.2191 30.582V30.6641C55.2191 31.0013 55.275 31.2433 55.3866 31.3946C55.499 31.5445 55.6715 31.6209 55.905 31.6209C56.1384 31.6209 56.3109 31.5445 56.4225 31.3946C56.5349 31.2433 56.5907 31.0013 56.5907 30.6641V30.582C56.5907 30.2448 56.5349 30.0013 56.4225 29.8507Z" fill="#505050"/>
<path d="M57.4756 31.6562V29.5921C57.4756 29.5027 57.5068 29.4494 57.5735 29.4293C57.6829 29.4004 57.7932 29.3781 57.9019 29.3666C58.0128 29.355 58.1288 29.35 58.2506 29.35C58.5486 29.35 58.7668 29.4091 58.9001 29.528C59.0343 29.649 59.1024 29.8183 59.1024 30.0366C59.1024 30.1497 59.0821 30.2477 59.0393 30.3341C58.9944 30.4184 58.9125 30.4926 58.787 30.5553C58.8661 30.5777 58.9349 30.6101 58.9872 30.6504C59.043 30.6944 59.0857 30.7405 59.1176 30.7931C59.1488 30.8464 59.1735 30.9033 59.1858 30.971C59.2003 31.0323 59.2039 31.1007 59.2039 31.1692C59.2039 31.288 59.1887 31.3932 59.156 31.4811C59.1256 31.5719 59.0748 31.6475 59.0053 31.7088C58.9371 31.7686 58.848 31.8161 58.7356 31.8471C58.6239 31.8795 58.4884 31.8939 58.3311 31.8939C58.1962 31.8939 58.0628 31.8882 57.9294 31.8788C57.7997 31.8687 57.6801 31.8464 57.5728 31.8168C57.5068 31.7981 57.4756 31.7455 57.4756 31.6562ZM57.7932 29.667V30.4473H58.2775C58.4529 30.4473 58.5798 30.4127 58.6609 30.345C58.7429 30.2794 58.7827 30.1778 58.7827 30.0359C58.7827 29.8831 58.7334 29.7744 58.6312 29.7146C58.5304 29.654 58.3789 29.6238 58.1781 29.6238C58.0432 29.6245 57.9142 29.6382 57.7932 29.667ZM58.7559 31.5078C58.8436 31.4314 58.8871 31.3176 58.8871 31.1677C58.8871 31.1 58.8784 31.0431 58.8617 30.9883C58.8465 30.9343 58.8175 30.886 58.7798 30.8478C58.7436 30.8068 58.6957 30.7758 58.6392 30.7542C58.5812 30.7304 58.5086 30.7217 58.4231 30.7217H57.7939V31.5841C57.8801 31.5971 57.9606 31.6079 58.0375 31.6108C58.1165 31.618 58.1991 31.6209 58.2868 31.6209C58.5123 31.6209 58.6674 31.5849 58.7559 31.5078Z" fill="#505050"/>
<path d="M61.3826 31.5834C61.221 31.7916 60.9665 31.8954 60.6207 31.8954C60.2734 31.8954 60.0198 31.7916 59.8574 31.5834C59.695 31.3723 59.6152 31.0704 59.6152 30.6742V30.5719C59.6152 30.1735 59.695 29.8694 59.8574 29.6627C60.0198 29.4516 60.2727 29.3493 60.6207 29.3493C60.9665 29.3493 61.221 29.4516 61.3826 29.6627C61.5443 29.8694 61.6255 30.1735 61.6255 30.5719V30.6742C61.6255 31.0704 61.5443 31.3723 61.3826 31.5834ZM61.1391 29.8507C61.0282 29.6994 60.8527 29.623 60.6207 29.623C60.3873 29.623 60.2147 29.6994 60.1017 29.8507C59.9907 30.0013 59.9349 30.2448 59.9349 30.582V30.6641C59.9349 31.0013 59.9907 31.2433 60.1017 31.3946C60.2147 31.5445 60.3873 31.6209 60.6207 31.6209C60.8527 31.6209 61.0282 31.5445 61.1391 31.3946C61.25 31.2433 61.3073 31.0013 61.3073 30.6641V30.582C61.308 30.2448 61.2507 30.0013 61.1391 29.8507Z" fill="#505050"/>
<path d="M63.6635 29.8428L62.6254 31.8031C62.6153 31.8211 62.6066 31.8327 62.5957 31.8413C62.5862 31.8485 62.5682 31.8543 62.545 31.8543H62.2412C62.2086 31.8543 62.1904 31.8377 62.1904 31.8038V29.4408C62.1904 29.4091 62.2086 29.3939 62.2412 29.3939H62.4608C62.492 29.3939 62.5094 29.4091 62.5094 29.4408V31.4047L63.5461 29.4408C63.5548 29.4256 63.5649 29.4148 63.5765 29.4062C63.5867 29.3975 63.6019 29.3932 63.628 29.3932H63.9325C63.963 29.3932 63.9818 29.4083 63.9818 29.44V31.8031C63.9818 31.837 63.963 31.8536 63.9325 31.8536H63.7114C63.6787 31.8536 63.6635 31.837 63.6635 31.8031V29.8428ZM63.085 29.1627C63.1705 29.1627 63.2488 29.1497 63.317 29.1259C63.388 29.1007 63.4482 29.069 63.499 29.0222C63.5519 28.9811 63.5911 28.9271 63.62 28.8651C63.6483 28.8039 63.6635 28.734 63.6635 28.6555C63.6635 28.6281 63.6483 28.6137 63.62 28.6137H63.4939C63.4605 28.6137 63.446 28.6288 63.4446 28.6583C63.4294 28.747 63.3902 28.8111 63.33 28.8543C63.2656 28.8975 63.1851 28.9184 63.085 28.9184C62.9879 28.9184 62.906 28.8975 62.8429 28.8543C62.7806 28.8104 62.7414 28.747 62.7283 28.6583C62.7269 28.6295 62.7102 28.6137 62.6798 28.6137H62.5514C62.5239 28.6137 62.5094 28.6281 62.5094 28.6555C62.5094 28.734 62.5239 28.8039 62.5514 28.8651C62.5805 28.9271 62.6203 28.9811 62.6718 29.0222C62.724 29.0683 62.7849 29.1 62.8545 29.1259C62.9233 29.1504 63.0002 29.1627 63.085 29.1627Z" fill="#505050"/>
<path d="M65.7986 29.3911H67.2492C67.2833 29.3911 67.2985 29.4062 67.2985 29.4394V29.6173C67.2985 29.6504 67.2833 29.667 67.2492 29.667H66.0689V31.8024C66.0689 31.8363 66.0523 31.8529 66.0182 31.8529H65.7986C65.7645 31.8529 65.75 31.8363 65.75 31.8024V29.4394C65.75 29.4062 65.7645 29.3911 65.7986 29.3911Z" fill="#505050"/>
<path d="M68.1114 29.368C68.223 29.355 68.3405 29.3485 68.4586 29.3485C68.7732 29.3485 68.9936 29.4105 69.1299 29.5308C69.2655 29.6519 69.3337 29.8356 69.3337 30.082V30.2181C69.3337 30.466 69.2641 30.6504 69.1242 30.7707C68.9857 30.8925 68.7631 30.9515 68.4586 30.9515C68.3064 30.9515 68.1563 30.9443 68.0062 30.9335V31.8031C68.0062 31.837 67.991 31.8536 67.9577 31.8536H67.7387C67.7047 31.8536 67.6895 31.837 67.6895 31.8031V29.5899C67.6895 29.5034 67.7199 29.4501 67.7881 29.43C67.8917 29.4033 68.0005 29.3824 68.1114 29.368ZM68.2034 30.6727C68.273 30.6771 68.3361 30.6799 68.3897 30.6799C68.5094 30.6799 68.6108 30.6655 68.6906 30.6468C68.7704 30.6245 68.8342 30.5935 68.8827 30.5539C68.932 30.5121 68.9661 30.4616 68.9864 30.4004C69.0059 30.3399 69.0161 30.2671 69.0161 30.1864V30.1115C69.0161 30.0265 69.0052 29.9537 68.9843 29.8918C68.9625 29.8305 68.9277 29.7801 68.8783 29.7412C68.8312 29.6987 68.7667 29.6691 68.6856 29.6511C68.6051 29.6338 68.5072 29.6223 68.3897 29.6223C68.3245 29.6223 68.2614 29.6252 68.1962 29.6338C68.1324 29.6425 68.0679 29.6511 68.0062 29.667V30.6583C68.0686 30.6626 68.1346 30.6684 68.2034 30.6727Z" fill="#505050"/>
<path d="M69.8972 31.8507H69.6645C69.6247 31.8507 69.6124 31.8327 69.6247 31.793L70.3337 29.4667C70.346 29.4184 70.3794 29.3925 70.4323 29.3925H70.7563C70.8078 29.3925 70.8412 29.4177 70.8557 29.4667L71.5632 31.793C71.5763 31.8327 71.5632 31.8507 71.5255 31.8507H71.2906C71.2595 31.8507 71.2384 31.8391 71.2312 31.8139L71.0659 31.2563H70.1227L69.9567 31.8139C69.9502 31.8391 69.9306 31.8507 69.8972 31.8507ZM70.9833 30.9825L70.5939 29.6634L70.2039 30.9825H70.9833Z" fill="#505050"/>
<path d="M73.9472 29.3911H74.2246C74.257 29.3911 74.2728 29.4062 74.2728 29.4394V31.8024C74.2728 31.8363 74.257 31.8529 74.2246 31.8529H74.0048C73.971 31.8529 73.9544 31.8363 73.9544 31.8024V29.8709L73.319 31.1101C73.3074 31.1295 73.2988 31.1425 73.2873 31.1512C73.275 31.1598 73.2563 31.1641 73.2339 31.1641H73.0805C73.0344 31.1641 73.0027 31.1432 72.9811 31.105L72.3499 29.8716V31.8032C72.3499 31.837 72.3334 31.8536 72.3002 31.8536H72.0798C72.0466 31.8536 72.0322 31.837 72.0322 31.8032V29.4401C72.0322 29.4069 72.0474 29.3918 72.0798 29.3918H72.3514C72.3975 29.3918 72.4278 29.4113 72.4479 29.4487L73.1525 30.8097L73.8593 29.4408C73.8788 29.4062 73.909 29.3911 73.9472 29.3911Z" fill="#505050"/>
<path d="M76.6064 31.5834C76.4465 31.7916 76.1921 31.8954 75.8449 31.8954C75.4976 31.8954 75.2433 31.7916 75.0812 31.5834C74.9184 31.3723 74.8398 31.0704 74.8398 30.6742V30.5719C74.8398 30.1735 74.9184 29.8694 75.0812 29.6627C75.2433 29.4516 75.4969 29.3493 75.8449 29.3493C76.1921 29.3493 76.4465 29.4516 76.6064 29.6627C76.7678 29.8694 76.8492 30.1735 76.8492 30.5719V30.6742C76.8492 31.0704 76.7678 31.3723 76.6064 31.5834ZM76.3629 29.8507C76.2505 29.6994 76.0769 29.623 75.8449 29.623C75.6107 29.623 75.4378 29.6994 75.3254 29.8507C75.2138 30.0013 75.1568 30.2448 75.1568 30.582V30.6641C75.1568 31.0013 75.2138 31.2433 75.3254 31.3946C75.4378 31.5445 75.6107 31.6209 75.8449 31.6209C76.0769 31.6209 76.2505 31.5445 76.3629 31.3946C76.4746 31.2433 76.53 31.0013 76.53 30.6641V30.582C76.5307 30.2448 76.4753 30.0013 76.3629 29.8507Z" fill="#505050"/>
<path d="M77.1454 29.667C77.1123 29.667 77.0957 29.6504 77.0957 29.6173V29.4394C77.0957 29.4077 77.1123 29.3911 77.1454 29.3911H78.8003C78.8334 29.3911 78.8507 29.4077 78.8507 29.4394V29.6173C78.8507 29.6504 78.8334 29.667 78.8003 29.667H78.1332V31.8024C78.1332 31.8363 78.1166 31.8529 78.0834 31.8529H77.8637C77.8313 31.8529 77.814 31.8363 77.814 31.8024V29.667H77.1454Z" fill="#505050"/>
<path d="M80.7266 29.3911H80.9464C80.9809 29.3911 80.9953 29.4062 80.9953 29.4394V31.8024C80.9953 31.8363 80.9802 31.8529 80.9464 31.8529H80.7266C80.6942 31.8529 80.6769 31.8363 80.6769 31.8024V30.7232H79.5782V31.8024C79.5782 31.8363 79.5595 31.8529 79.5278 31.8529H79.3095C79.2756 31.8529 79.2598 31.8363 79.2598 31.8024V29.4394C79.2598 29.4062 79.2756 29.3911 79.3095 29.3911H79.5278C79.5595 29.3911 79.5782 29.4062 79.5782 29.4394V30.4487H80.6769V29.4394C80.6762 29.4062 80.6942 29.3911 80.7266 29.3911Z" fill="#505050"/>
<path d="M83.3298 31.5834C83.167 31.7916 82.9126 31.8954 82.5654 31.8954C82.2174 31.8954 81.9652 31.7916 81.8039 31.5834C81.641 31.3723 81.5625 31.0704 81.5625 30.6742V30.5719C81.5625 30.1735 81.641 29.8694 81.8039 29.6627C81.9652 29.4516 82.2167 29.3493 82.5654 29.3493C82.9126 29.3493 83.167 29.4516 83.3298 29.6627C83.4904 29.8694 83.5704 30.1735 83.5704 30.5719V30.6742C83.5704 31.0704 83.4897 31.3723 83.3298 31.5834ZM83.0863 29.8507C82.9724 29.6994 82.7995 29.623 82.5654 29.623C82.3327 29.623 82.1598 29.6994 82.0481 29.8507C81.935 30.0013 81.8795 30.2448 81.8795 30.582V30.6641C81.8795 31.0013 81.935 31.2433 82.0481 31.3946C82.1598 31.5445 82.3327 31.6209 82.5654 31.6209C82.7995 31.6209 82.9724 31.5445 83.0863 31.3946C83.1972 31.2433 83.252 31.0013 83.252 30.6641V30.582C83.2512 30.2448 83.1972 30.0013 83.0863 29.8507Z" fill="#505050"/>
<path d="M84.3879 31.0784C84.4145 31.2001 84.4563 31.2981 84.514 31.3788C84.5716 31.4566 84.6465 31.5186 84.7409 31.5575C84.8324 31.6 84.9477 31.6209 85.0846 31.6209C85.1703 31.6209 85.2567 31.618 85.3439 31.6108C85.4333 31.605 85.5204 31.5964 85.6076 31.5841C85.6458 31.5841 85.666 31.5971 85.666 31.6281V31.783C85.666 31.8068 85.6523 31.8226 85.6271 31.8291C85.5341 31.8457 85.4354 31.8615 85.3367 31.8752C85.233 31.8889 85.1357 31.8925 85.0442 31.8925C84.8583 31.8925 84.7034 31.8651 84.5759 31.806C84.4491 31.7477 84.3446 31.6648 84.2625 31.5568C84.1811 31.4508 84.122 31.3233 84.086 31.1756C84.0493 31.0272 84.0312 30.8608 84.0312 30.6792V30.5661C84.0312 30.3846 84.0493 30.2182 84.086 30.069C84.122 29.9206 84.1811 29.7916 84.2625 29.6857C84.3439 29.5798 84.4491 29.4955 84.5759 29.4365C84.7042 29.3781 84.8591 29.35 85.0442 29.35C85.1357 29.35 85.2279 29.3558 85.3201 29.3666C85.4116 29.3781 85.5017 29.3947 85.5903 29.417C85.6177 29.4235 85.6299 29.4372 85.6299 29.4617V29.6173C85.6299 29.6519 85.6112 29.6656 85.573 29.6576C85.4851 29.6476 85.4037 29.6389 85.3281 29.6331C85.2503 29.6259 85.1703 29.6231 85.0846 29.6231C84.9484 29.6231 84.8324 29.6447 84.7409 29.6857C84.6458 29.7268 84.5716 29.7866 84.514 29.8666C84.4563 29.9458 84.4145 30.0467 84.3879 30.1656C84.3619 30.2844 84.349 30.4228 84.349 30.582V30.6641C84.349 30.8226 84.3612 30.9609 84.3879 31.0784Z" fill="#505050"/>
<path d="M85.9452 29.667C85.9135 29.667 85.8955 29.6504 85.8955 29.6173V29.4394C85.8955 29.4077 85.9135 29.3911 85.9452 29.3911H87.6015C87.634 29.3911 87.6505 29.4077 87.6505 29.4394V29.6173C87.6505 29.6504 87.634 29.667 87.6015 29.667H86.9322V31.8024C86.9322 31.8363 86.9157 31.8529 86.8833 31.8529H86.6628C86.6311 31.8529 86.6124 31.8363 86.6124 31.8024V29.667H85.9452Z" fill="#505050"/>
<path d="M88.4625 31.8406C88.4524 31.8478 88.4337 31.8536 88.4121 31.8536H88.1066C88.0735 31.8536 88.0576 31.837 88.0576 31.8031V29.4386C88.0576 29.4083 88.0735 29.3932 88.1066 29.3932H88.3271C88.3609 29.3932 88.3761 29.4083 88.3761 29.4386V31.4026L89.4113 29.4386C89.4214 29.4242 89.433 29.4141 89.4416 29.4055C89.4539 29.3968 89.4704 29.3925 89.4956 29.3925H89.7968C89.8321 29.3925 89.8458 29.4076 89.8458 29.4379V31.8024C89.8458 31.8363 89.8314 31.8528 89.7968 31.8528H89.5799C89.5461 31.8528 89.5288 31.8363 89.5288 31.8024V29.842L88.4928 31.8024C88.4834 31.8211 88.4712 31.8319 88.4625 31.8406Z" fill="#505050"/>
<path d="M91.6652 29.3911H93.1162C93.1486 29.3911 93.1652 29.4062 93.1652 29.4394V29.6173C93.1652 29.6504 93.1486 29.667 93.1162 29.667H91.9347V31.8024C91.9347 31.8363 91.9188 31.8529 91.885 31.8529H91.6652C91.6335 31.8529 91.6162 31.8363 91.6162 31.8024V29.4394C91.6155 29.4062 91.6335 29.3911 91.6652 29.3911Z" fill="#505050"/>
<path d="M93.9776 29.368C94.0907 29.355 94.2053 29.3485 94.3256 29.3485C94.6383 29.3485 94.8602 29.4105 94.997 29.5308C95.1325 29.6519 95.1995 29.8356 95.1995 30.082V30.2181C95.1995 30.466 95.1296 30.6504 94.9898 30.7707C94.8522 30.8925 94.6296 30.9515 94.3256 30.9515C94.1721 30.9515 94.0201 30.9443 93.8724 30.9335V31.8031C93.8724 31.837 93.8566 31.8536 93.8227 31.8536H93.6051C93.5698 31.8536 93.5547 31.837 93.5547 31.8031V29.5899C93.5547 29.5034 93.5878 29.4501 93.6548 29.43C93.7579 29.4033 93.8666 29.3824 93.9776 29.368ZM94.0705 30.6727C94.1397 30.6771 94.2031 30.6799 94.255 30.6799C94.3753 30.6799 94.4776 30.6655 94.5576 30.6468C94.6361 30.6245 94.6995 30.5935 94.7478 30.5539C94.7982 30.5121 94.8321 30.4616 94.8501 30.4004C94.8738 30.3399 94.8825 30.2671 94.8825 30.1864V30.1115C94.8825 30.0265 94.871 29.9537 94.8501 29.8918C94.8277 29.8305 94.7946 29.7801 94.7442 29.7412C94.6959 29.6987 94.6339 29.6691 94.5532 29.6511C94.4718 29.6338 94.3717 29.6223 94.255 29.6223C94.1923 29.6223 94.1267 29.6252 94.0619 29.6338C93.9978 29.6425 93.9337 29.6511 93.8724 29.667V30.6583C93.9344 30.6626 93.9999 30.6684 94.0705 30.6727Z" fill="#505050"/>
<path d="M95.7625 31.8507H95.529C95.4916 31.8507 95.4801 31.8327 95.4916 31.793L96.1976 29.4667C96.2128 29.4184 96.2459 29.3925 96.297 29.3925H96.6213C96.6753 29.3925 96.707 29.4177 96.7214 29.4667L97.4274 31.793C97.4426 31.8327 97.4274 31.8507 97.3885 31.8507H97.158C97.1249 31.8507 97.1047 31.8391 97.0975 31.8139L96.9325 31.2563H95.9901L95.823 31.8139C95.8151 31.8391 95.7942 31.8507 95.7625 31.8507ZM96.8489 30.9825L96.4592 29.6634L96.0694 30.9825H96.8489Z" fill="#505050"/>
<path d="M99.1798 29.4393V30.5524L99.9204 29.4091C99.9298 29.3975 99.9434 29.3925 99.9658 29.3925H100.217C100.234 29.3925 100.245 29.3983 100.25 29.4069C100.253 29.4199 100.25 29.4299 100.242 29.44L99.4982 30.5769L100.42 31.8031C100.428 31.8161 100.43 31.8269 100.425 31.837C100.42 31.8471 100.411 31.8536 100.394 31.8536H100.119C100.091 31.8536 100.073 31.8449 100.065 31.8327L99.1798 30.6021V31.8031C99.1798 31.837 99.1639 31.8536 99.1308 31.8536H98.9096C98.8793 31.8536 98.8628 31.837 98.8628 31.8031V30.6021L97.9773 31.8327C97.9658 31.8456 97.9478 31.8536 97.9247 31.8536H97.6481C97.6322 31.8536 97.62 31.8464 97.6164 31.837C97.612 31.8269 97.6142 31.8161 97.6243 31.8031L98.5429 30.5769L97.8001 29.44C97.7914 29.4299 97.79 29.4199 97.795 29.4069C97.7994 29.3983 97.8102 29.3925 97.826 29.3925H98.0767C98.0984 29.3925 98.1149 29.3982 98.1221 29.4091L98.8628 30.5524V29.4393C98.8628 29.4076 98.8793 29.3925 98.9096 29.3925H99.1308C99.1639 29.3925 99.1798 29.4076 99.1798 29.4393Z" fill="#505050"/>
<path d="M102.379 29.4393V31.5805H102.601C102.639 31.5805 102.66 31.5985 102.66 31.6338V32.1569C102.66 32.1893 102.641 32.2044 102.609 32.2044H102.391C102.357 32.2044 102.34 32.1893 102.34 32.1569V31.8536H100.889V32.1569C100.889 32.1893 100.873 32.2044 100.84 32.2044H100.621C100.588 32.2044 100.57 32.1893 100.57 32.1569V31.6338C100.57 31.5985 100.589 31.5805 100.628 31.5805H100.745C100.843 31.3975 100.926 31.2268 100.992 31.0733C101.058 30.9177 101.113 30.7664 101.16 30.6173C101.206 30.4674 101.243 30.3175 101.273 30.1641C101.302 30.0114 101.33 29.8428 101.354 29.6576C101.366 29.5812 101.399 29.5186 101.448 29.4674C101.5 29.4177 101.574 29.3925 101.673 29.3925H102.328C102.363 29.3925 102.379 29.4091 102.379 29.4393ZM101.569 30.2224C101.537 30.3723 101.503 30.5193 101.459 30.6641C101.419 30.8125 101.371 30.9609 101.317 31.1086C101.262 31.2585 101.194 31.417 101.116 31.5798H102.059V29.6655H101.771C101.701 29.6655 101.663 29.6965 101.654 29.7578C101.626 29.9191 101.601 30.0762 101.569 30.2224Z" fill="#505050"/>
<path d="M103.185 31.8507H102.951C102.912 31.8507 102.901 31.8327 102.912 31.793L103.621 29.4667C103.634 29.4184 103.667 29.3925 103.719 29.3925H104.044C104.098 29.3925 104.13 29.4177 104.144 29.4667L104.851 31.793C104.866 31.8327 104.85 31.8507 104.813 31.8507H104.58C104.548 31.8507 104.526 31.8391 104.519 31.8139L104.354 31.2563H103.411L103.245 31.8139C103.239 31.8391 103.219 31.8507 103.185 31.8507ZM104.272 30.9825L103.881 29.6634L103.492 30.9825H104.272Z" fill="#505050"/>
<path d="M106.788 29.3911H107.006C107.04 29.3911 107.056 29.4062 107.056 29.4394V31.8024C107.056 31.8363 107.04 31.8529 107.006 31.8529H106.788C106.755 31.8529 106.736 31.8363 106.736 31.8024V30.7232H105.637V31.8024C105.637 31.8363 105.62 31.8529 105.589 31.8529H105.367C105.336 31.8529 105.318 31.8363 105.318 31.8024V29.4394C105.318 29.4062 105.336 29.3911 105.367 29.3911H105.589C105.62 29.3911 105.637 29.4062 105.637 29.4394V30.4487H106.736V29.4394C106.736 29.4062 106.755 29.3911 106.788 29.3911Z" fill="#505050"/>
</svg>
