<?xml version="1.0" encoding="utf-8"?>
<!-- Generator: Adobe Illustrator 21.1.0, SVG Export Plug-In . SVG Version: 6.00 Build 0)  -->
<svg version="1.1" id="Слой_1" xmlns="http://www.w3.org/2000/svg" xmlns:xlink="http://www.w3.org/1999/xlink" x="0px" y="0px"
	 viewBox="0 0 296.9 113.2" style="enable-background:new 0 0 296.9 113.2;" xml:space="preserve">
<style type="text/css">
	.st0{fill:#F0F0F0;stroke:#F0F0F0;stroke-miterlimit:10;}
	.st1{fill:none;stroke:#F0F0F0;stroke-miterlimit:10;}
</style>
<title>Монтажная область 1 копия 4</title>
<path class="st0" d="M70.3,2v108.2c0,0.2-0.1,0.5-0.2,0.7c-0.2,0.4-0.7,0.7-1.2,0.7c-0.2,0-0.5,0-0.7-0.2l-20.4-10.2
	c-0.5-0.2-0.8-0.7-0.8-1.3V12.2c0-0.3,0.1-0.5,0.2-0.7c0.1-0.2,0.3-0.4,0.6-0.5L68.2,0.7c0.4-0.2,1-0.2,1.4,0
	C70,0.9,70.3,1.4,70.3,2L70.3,2z"/>
<path class="st1" d="M230.9,40.7v69.4c0,0.5-0.3,1-0.7,1.2c-0.2,0.1-0.4,0.2-0.7,0.2c-0.2,0-0.5,0-0.7-0.2l-20.4-10.2
	c-0.5-0.2-0.8-0.7-0.8-1.3V40.7c0-0.8,0.6-1.4,1.4-1.4h20.4C230.2,39.3,230.9,40,230.9,40.7z"/>
<path class="st1" d="M202.1,107.7l-0.4,0.3c-1.3,1-2.8,1.8-4.3,2.5c-1.2,0.5-2.3,0.9-3.6,1.2c-12.4,3.2-25.1-4.2-28.4-16.6
	c-0.5-1.9-0.8-3.9-0.8-5.9V40.9c0-0.8,0.6-1.4,1.4-1.4l13.1,0.2h7.5c0.7,0.1,1.1,0.7,1.1,1.4v16.8c0,0.1,0,0.2,0,0.3V96
	c0,0.1,0,0.2,0,0.3c0.2,5.9,5,10.5,10.8,10.5h2.8c0.3-0.1,0.6,0.1,0.7,0.4C202.3,107.4,202.2,107.6,202.1,107.7L202.1,107.7z"/>
<path class="st0" d="M45.4,101.5c-5.4,8.5-15.5,12.7-25.4,10.7l0,0c-2.3-0.4-4.6-1.1-6.7-2.2C5.4,106,0.5,98,0.5,89.2V63.4
	c0-12.9,10.5-23.7,23.4-23.7h1c6.5,0,12.7,2.6,17.2,7.1c1.2,1.2,2.2,2.5,3.2,3.9l-0.8,0.8c-0.3-0.3-0.5-0.6-0.8-0.9
	c-2.2-2.2-5.1-3.4-8.2-3.4h-0.8c-6,0-10.8,4.8-10.9,10.7c0,0,0,0.1,0,0.1V96c0,6,4.8,10.8,10.8,10.8h0.8c4,0,7.7-2.1,9.8-5.4
	L45.4,101.5z"/>
<path class="st1" d="M296.4,88.2c0,6.4-1.7,11.7-5.2,15.8c-0.5,0.6-1,1.2-1.6,1.7c-4.1,4-9.4,6.1-15.8,6.6h-0.1h-0.6h-2.5
	c-4.1-0.1-8.2-0.6-12.3-1.5l-0.6-0.1c-4-1-7.9-2.4-11.6-4.2c-0.3-0.2-0.5-0.5-0.6-0.8L245,88.7c0-0.3,0.2-0.5,0.5-0.5c0,0,0,0,0,0
	h0.6c0.4,0,0.7,0.2,0.9,0.6c2.8,5.5,6.6,10.6,11.1,14.9c3.7,3.6,7.7,5.7,11.8,6.3c0.9,0.2,1.9,0.2,2.9,0.2c0.5,0,1,0,1.4-0.1h0.2
	c0.2,0,0.3,0,0.5,0c0.9-0.1,1.8-0.3,2.6-0.6c0.3-0.1,0.7-0.2,1-0.4c0.3-0.1,0.5-0.2,0.8-0.3c0.4-0.2,0.8-0.4,1.2-0.7
	c1.1-0.7,2.1-1.6,2.9-2.6c0.2-0.3,0.4-0.5,0.6-0.8c0.2-0.3,0.4-0.6,0.6-0.8c0.6-1.5,0.9-3,0.9-4.6c0.2-3.4-1.4-6.6-4.2-8.5
	c-3.7-2.4-7.7-4.1-12-5.1c-3.8-1-7.5-2.3-11.2-3.8c-1.9-0.9-3.6-1.9-5.2-3.2c-0.5-0.3-0.9-0.7-1.4-1.1c-4.2-3.5-6.4-8.9-6.4-16.3
	c0-2.4,0.4-4.7,1.1-7c0.1-0.3,0.2-0.5,0.3-0.8c0.4-0.9,0.8-1.8,1.2-2.7c0,0,0-0.1,0.1-0.2c1-1.8,2.3-3.4,3.7-4.8
	c3.1-3.1,7-5.1,11.3-5.9c2.1-0.4,4.2-0.6,6.3-0.6c1.2,0,2.4,0.1,3.7,0.2c2.2,0.2,4.3,0.6,6.4,1.1c0.1,0,0.2,0,0.2,0.1
	c0.5,0.1,1.1,0.3,1.7,0.5c3.5,1.1,6.9,2.4,10.2,4c0,0,0.1,0.1,0,0.1l0,0l0.3,8.3l0.2,6.9c0,0.3-0.2,0.5-0.5,0.5c0,0,0,0,0,0h-0.5
	c-0.4,0-0.7-0.2-0.9-0.5c-1.8-3.4-3.9-6.5-6.3-9.6c-1-1.3-2.1-2.6-3.3-3.8l-0.3-0.3c-3.5-3.5-7.4-5.3-11.6-5.3c-4.2,0-7.4,1-9.7,2.9
	c-2.2,1.9-3.5,4.7-3.4,7.7c-0.1,3,1.5,5.9,4.1,7.4c3.1,1.9,6.5,3.3,10.1,4.2l2,0.5c2.9,0.8,4.9,1.3,5.9,1.7c1.3,0.4,2.8,1,4.7,1.7
	c1.6,0.6,3.1,1.3,4.6,2.2c1.3,0.9,2.6,1.9,3.8,2.9c1.3,1.1,2.3,2.4,3.1,3.9C295.6,80.2,296.5,84.2,296.4,88.2z"/>
<path class="st0" d="M154,76.8v-2.7c0-0.6-0.1-1.1-0.1-1.7l-0.1-0.6l-0.1-0.5c0-0.3,0-0.6-0.1-0.9c0-0.3-0.1-0.6-0.1-0.9
	c-0.1-0.3-0.1-0.4-0.1-0.6s-0.1-0.5-0.2-0.8c-0.1-0.7-0.3-1.4-0.5-2.1l-0.2-0.8l-0.3-0.8c-0.1-0.3-0.2-0.6-0.3-0.8
	c-0.2-0.6-0.4-1.1-0.6-1.7l-0.3-0.6c-0.1-0.3-0.3-0.7-0.5-1c-0.2-0.3-0.4-0.8-0.6-1.2c-0.4-0.9-0.9-1.7-1.4-2.5
	c-0.1-0.3-0.3-0.5-0.5-0.7c-0.3-0.4-0.6-0.8-0.9-1.2l-0.4-0.6l-0.3-0.3c-0.2-0.2-0.3-0.4-0.5-0.6c-0.7-0.9-1.5-1.8-2.3-2.6l-0.5-0.5
	c-0.4-0.4-0.9-0.8-1.3-1.3c-0.2-0.2-0.4-0.4-0.6-0.6l-0.1-0.1l-1.2-1l-0.7-0.5c-0.7-0.5-1.4-1-2.2-1.5c-0.2-0.2-0.5-0.3-0.7-0.4
	l-0.8-0.4c-0.3-0.2-0.5-0.3-0.8-0.4l-0.8-0.4l-0.8-0.4c-0.3-0.1-0.5-0.3-0.8-0.4l-0.8-0.3c-0.6-0.2-1.1-0.4-1.6-0.6l-0.8-0.3
	l-0.9-0.3l-0.9-0.3c-0.6-0.2-1.1-0.3-1.7-0.4l-0.7-0.2l-1.1-0.2c-0.6-0.1-1.2-0.2-1.8-0.3l-0.9-0.1l-1.3-0.1h-4
	c-20.2,0.8-35.9,17.9-35.1,38.2c0.8,20.2,17.9,35.9,38.2,35.1c7.2-0.3,14.2-2.7,20.1-7l0.6-0.4c0.5-0.4,0.9-0.7,1.4-1.1
	c0.1-0.1,0.3-0.2,0.4-0.4l0.4-0.3l0.1-0.1l0.1-0.1c0.5-0.4,0.9-0.8,1.4-1.3c2-2.1,3.9-4.3,5.4-6.8c0,0,0-0.1,0-0.1l0,0h-0.1h-0.1
	h-0.1l-0.1,0.1l-1.1,1c-9.8,9.8-25.8,9.8-35.6,0c-0.9-0.9-1.7-1.9-2.5-2.9c-0.9-1.2-1.7-2.5-2.3-3.9c-1.6-3.4-2.5-7.1-2.5-10.8v-1.7
	H154z M116.7,42.7c6.9,0,12.4,5.6,12.4,12.5v20.2h-24.9V55.2C104.3,48.3,109.9,42.7,116.7,42.7z"/>
</svg>
