<svg width="16" height="13" viewBox="0 0 16 13" fill="none" xmlns="http://www.w3.org/2000/svg">
<path d="M14.3311 0.787109H1.96777C1.24174 0.787109 0.649414 1.37879 0.649414 2.10547V10.8945C0.649414 11.6187 1.2391 12.2129 1.96777 12.2129H14.3311C15.0553 12.2129 15.6494 11.6232 15.6494 10.8945V2.10547C15.6494 1.38125 15.0597 0.787109 14.3311 0.787109ZM14.149 1.66602L8.17736 7.63769L2.15407 1.66602H14.149ZM1.52832 10.7125V2.28327L5.7611 6.47976L1.52832 10.7125ZM2.14979 11.334L6.38524 7.09854L7.86934 8.56988C8.04113 8.74022 8.31837 8.73966 8.48946 8.56853L9.93652 7.12148L14.149 11.334H2.14979ZM14.7705 10.7125L10.558 6.5L14.7705 2.28746V10.7125Z" fill="#333333" stroke="white" stroke-width="0.2"/>
</svg>
