<svg width="242" height="42" viewBox="0 0 242 42" fill="none" xmlns="http://www.w3.org/2000/svg">
<path d="M59.6406 14.5953H58.6982V8.25739H55.1924V14.5953H54.2549V7.4859H59.6406V14.5953ZM62.6387 11.8121V14.5953H61.7012V7.4859H64.3232C65.1012 7.4859 65.71 7.68447 66.1494 8.0816C66.5921 8.47874 66.8135 9.00446 66.8135 9.65875C66.8135 10.3489 66.597 10.8811 66.1641 11.2554C65.7344 11.6265 65.1175 11.8121 64.3135 11.8121H62.6387ZM62.6387 11.0455H64.3232C64.8245 11.0455 65.2087 10.9283 65.4756 10.6939C65.7425 10.4563 65.876 10.1145 65.876 9.66852C65.876 9.24534 65.7425 8.9068 65.4756 8.65289C65.2087 8.39899 64.8424 8.26715 64.377 8.25739H62.6387V11.0455ZM73.8301 11.2701C73.8301 11.9667 73.7129 12.5754 73.4785 13.0963C73.2441 13.6138 72.9121 14.0093 72.4824 14.2828C72.0527 14.5562 71.5514 14.6929 70.9785 14.6929C70.4186 14.6929 69.9222 14.5562 69.4893 14.2828C69.0563 14.0061 68.7194 13.6138 68.4785 13.106C68.2409 12.595 68.1188 12.0041 68.1123 11.3336V10.8209C68.1123 10.1373 68.2311 9.53343 68.4688 9.00934C68.7064 8.48525 69.0417 8.08486 69.4746 7.80817C69.9108 7.52822 70.4089 7.38824 70.9688 7.38824C71.5384 7.38824 72.0397 7.52659 72.4727 7.80328C72.9089 8.07672 73.2441 8.47548 73.4785 8.99957C73.7129 9.52041 73.8301 10.1275 73.8301 10.8209V11.2701ZM72.8975 10.8111C72.8975 9.968 72.7282 9.32184 72.3896 8.87262C72.0511 8.42015 71.5775 8.19391 70.9688 8.19391C70.3763 8.19391 69.9092 8.42015 69.5674 8.87262C69.2288 9.32184 69.0547 9.94684 69.0449 10.7476V11.2701C69.0449 12.0871 69.2158 12.73 69.5576 13.1988C69.9027 13.6643 70.3763 13.897 70.9785 13.897C71.584 13.897 72.0527 13.6773 72.3848 13.2379C72.7168 12.7951 72.8877 12.162 72.8975 11.3384V10.8111ZM79.6064 11.3091H76.5254V13.8287H80.1045V14.5953H75.5879V7.4859H80.0557V8.25739H76.5254V10.5425H79.6064V11.3091ZM83.4688 11.4019H82.6045V14.5953H81.667V7.4859H82.6045V10.6207H83.3369L85.8223 7.4859H86.9893L84.2744 10.9332L87.1895 14.5953H86.042L83.4688 11.4019ZM93.3125 8.25739H91.0273V14.5953H90.0947V8.25739H87.8145V7.4859H93.3125V8.25739ZM98.2148 7.4859L100.539 13.2867L102.863 7.4859H104.079V14.5953H103.142V11.8267L103.229 8.83844L100.896 14.5953H100.178L97.8486 8.85309L97.9414 11.8267V14.5953H97.0039V7.4859H98.2148ZM110.568 7.4859H111.506V14.5953H110.568V9.11676L107.067 14.5953H106.125V7.4859H107.067V12.9644L110.568 7.4859ZM119.03 14.5953H118.088V11.3091H114.504V14.5953H113.566V7.4859H114.504V10.5425H118.088V7.4859H119.03V14.5953ZM125.529 7.4859H126.467V14.5953H125.529V9.11676L122.028 14.5953H121.086V7.4859H122.028V12.9644L125.529 7.4859ZM133.757 12.3394C133.669 13.0914 133.391 13.6724 132.922 14.0826C132.456 14.4895 131.836 14.6929 131.062 14.6929C130.222 14.6929 129.548 14.3918 129.04 13.7896C128.535 13.1874 128.283 12.3817 128.283 11.3726V10.689C128.283 10.0282 128.4 9.44716 128.635 8.94586C128.872 8.44456 129.208 8.06045 129.641 7.79352C130.074 7.52334 130.575 7.38824 131.145 7.38824C131.9 7.38824 132.505 7.59983 132.961 8.02301C133.417 8.44293 133.682 9.02561 133.757 9.77106H132.814C132.733 9.20465 132.556 8.79449 132.282 8.54059C132.012 8.28668 131.633 8.15973 131.145 8.15973C130.546 8.15973 130.075 8.38108 129.733 8.82379C129.395 9.2665 129.226 9.89638 129.226 10.7134V11.4019C129.226 12.1734 129.387 12.787 129.709 13.2427C130.031 13.6985 130.482 13.9263 131.062 13.9263C131.582 13.9263 131.981 13.8091 132.258 13.5748C132.538 13.3371 132.723 12.9254 132.814 12.3394H133.757ZM140.158 8.25739H137.873V14.5953H136.94V8.25739H134.66V7.4859H140.158V8.25739ZM145.583 11.3091H142.502V13.8287H146.081V14.5953H141.564V7.4859H146.032V8.25739H142.502V10.5425H145.583V11.3091ZM148.537 11.8121V14.5953H147.6V7.4859H150.222C151 7.4859 151.608 7.68447 152.048 8.0816C152.491 8.47874 152.712 9.00446 152.712 9.65875C152.712 10.3489 152.495 10.8811 152.062 11.2554C151.633 11.6265 151.016 11.8121 150.212 11.8121H148.537ZM148.537 11.0455H150.222C150.723 11.0455 151.107 10.9283 151.374 10.6939C151.641 10.4563 151.774 10.1145 151.774 9.66852C151.774 9.24534 151.641 8.9068 151.374 8.65289C151.107 8.39899 150.741 8.26715 150.275 8.25739H148.537V11.0455ZM159.489 12.3394C159.401 13.0914 159.123 13.6724 158.654 14.0826C158.189 14.4895 157.569 14.6929 156.794 14.6929C155.954 14.6929 155.28 14.3918 154.772 13.7896C154.268 13.1874 154.016 12.3817 154.016 11.3726V10.689C154.016 10.0282 154.133 9.44716 154.367 8.94586C154.605 8.44456 154.94 8.06045 155.373 7.79352C155.806 7.52334 156.307 7.38824 156.877 7.38824C157.632 7.38824 158.238 7.59983 158.693 8.02301C159.149 8.44293 159.414 9.02561 159.489 9.77106H158.547C158.465 9.20465 158.288 8.79449 158.015 8.54059C157.744 8.28668 157.365 8.15973 156.877 8.15973C156.278 8.15973 155.808 8.38108 155.466 8.82379C155.127 9.2665 154.958 9.89638 154.958 10.7134V11.4019C154.958 12.1734 155.119 12.787 155.441 13.2427C155.764 13.6985 156.215 13.9263 156.794 13.9263C157.315 13.9263 157.714 13.8091 157.99 13.5748C158.27 13.3371 158.456 12.9254 158.547 12.3394H159.489ZM165.891 8.25739H163.605V14.5953H162.673V8.25739H160.393V7.4859H165.891V8.25739ZM167.297 14.5953V7.4859H169.621C170.393 7.4859 170.972 7.64541 171.359 7.96442C171.75 8.28343 171.945 8.75543 171.945 9.38043C171.945 9.71246 171.851 10.0071 171.662 10.2642C171.473 10.5181 171.216 10.7151 170.891 10.855C171.275 10.9625 171.577 11.1675 171.799 11.4703C172.023 11.7698 172.136 12.1278 172.136 12.5445C172.136 13.1825 171.929 13.6838 171.516 14.0484C171.102 14.413 170.518 14.5953 169.763 14.5953H167.297ZM168.234 11.2701V13.8287H169.782C170.218 13.8287 170.562 13.7164 170.812 13.4918C171.066 13.2639 171.193 12.9514 171.193 12.5543C171.193 11.6981 170.728 11.2701 169.797 11.2701H168.234ZM168.234 10.5181H169.65C170.061 10.5181 170.388 10.4156 170.632 10.2105C170.879 10.0054 171.003 9.72711 171.003 9.37555C171.003 8.98492 170.889 8.70172 170.661 8.52594C170.433 8.3469 170.087 8.25739 169.621 8.25739H168.234V10.5181ZM177.805 12.7398H174.826L174.157 14.5953H173.19L175.905 7.4859H176.726L179.445 14.5953H178.483L177.805 12.7398ZM175.109 11.9683H177.526L176.315 8.64313L175.109 11.9683ZM186.745 8.19879H186.896C187.434 8.20205 187.924 8.32737 188.366 8.57477C188.809 8.82216 189.152 9.16396 189.396 9.60016C189.644 10.0331 189.768 10.5181 189.768 11.0552C189.768 11.5956 189.644 12.0855 189.396 12.525C189.149 12.9644 188.807 13.3078 188.371 13.5552C187.935 13.7994 187.45 13.9247 186.916 13.9312H186.745V14.8882H185.837V13.9312H185.7C185.157 13.9312 184.662 13.8075 184.216 13.5601C183.773 13.3127 183.428 12.9709 183.181 12.5347C182.937 12.0985 182.814 11.6086 182.814 11.065C182.814 10.5214 182.937 10.0315 183.181 9.59528C183.428 9.15908 183.773 8.81728 184.216 8.56989C184.662 8.32249 185.157 8.19879 185.7 8.19879H185.837V7.19293H186.745V8.19879ZM185.7 8.9361C185.088 8.9361 184.603 9.1249 184.245 9.5025C183.89 9.87685 183.713 10.3977 183.713 11.065C183.713 11.7356 183.89 12.258 184.245 12.6324C184.6 13.0035 185.088 13.189 185.71 13.189H185.837V8.9361H185.7ZM186.745 8.9361V13.189H186.882C187.504 13.189 187.989 12.9986 188.337 12.6177C188.688 12.2336 188.864 11.7128 188.864 11.0552C188.864 10.4042 188.688 9.88824 188.337 9.50739C187.989 9.12653 187.497 8.9361 186.862 8.9361H186.745ZM195.783 7.4859H196.721V14.5953H195.783V9.11676L192.282 14.5953H191.34V7.4859H192.282V12.9644L195.783 7.4859ZM204.245 14.5953H203.303V11.3091H199.719V14.5953H198.781V7.4859H199.719V10.5425H203.303V7.4859H204.245V14.5953ZM210.275 12.7398H207.297L206.628 14.5953H205.661L208.376 7.4859H209.196L211.916 14.5953H210.954L210.275 12.7398ZM207.58 11.9683H209.997L208.786 8.64313L207.58 11.9683ZM218.688 14.5953H217.746V11.3091H214.162V14.5953H213.225V7.4859H214.162V10.5425H217.746V7.4859H218.688V14.5953ZM225.935 12.3394C225.847 13.0914 225.568 13.6724 225.1 14.0826C224.634 14.4895 224.014 14.6929 223.239 14.6929C222.399 14.6929 221.726 14.3918 221.218 13.7896C220.713 13.1874 220.461 12.3817 220.461 11.3726V10.689C220.461 10.0282 220.578 9.44716 220.812 8.94586C221.05 8.44456 221.385 8.06045 221.818 7.79352C222.251 7.52334 222.753 7.38824 223.322 7.38824C224.077 7.38824 224.683 7.59983 225.139 8.02301C225.594 8.44293 225.86 9.02561 225.935 9.77106H224.992C224.911 9.20465 224.733 8.79449 224.46 8.54059C224.19 8.28668 223.811 8.15973 223.322 8.15973C222.723 8.15973 222.253 8.38108 221.911 8.82379C221.573 9.2665 221.403 9.89638 221.403 10.7134V11.4019C221.403 12.1734 221.564 12.787 221.887 13.2427C222.209 13.6985 222.66 13.9263 223.239 13.9263C223.76 13.9263 224.159 13.8091 224.436 13.5748C224.715 13.3371 224.901 12.9254 224.992 12.3394H225.935ZM233.039 11.2701C233.039 11.9667 232.922 12.5754 232.688 13.0963C232.453 13.6138 232.121 14.0093 231.691 14.2828C231.262 14.5562 230.76 14.6929 230.188 14.6929C229.628 14.6929 229.131 14.5562 228.698 14.2828C228.265 14.0061 227.928 13.6138 227.688 13.106C227.45 12.595 227.328 12.0041 227.321 11.3336V10.8209C227.321 10.1373 227.44 9.53343 227.678 9.00934C227.915 8.48525 228.251 8.08486 228.684 7.80817C229.12 7.52822 229.618 7.38824 230.178 7.38824C230.747 7.38824 231.249 7.52659 231.682 7.80328C232.118 8.07672 232.453 8.47548 232.688 8.99957C232.922 9.52041 233.039 10.1275 233.039 10.8209V11.2701ZM232.106 10.8111C232.106 9.968 231.937 9.32184 231.599 8.87262C231.26 8.42015 230.786 8.19391 230.178 8.19391C229.585 8.19391 229.118 8.42015 228.776 8.87262C228.438 9.32184 228.264 9.94684 228.254 10.7476V11.2701C228.254 12.0871 228.425 12.73 228.767 13.1988C229.112 13.6643 229.585 13.897 230.188 13.897C230.793 13.897 231.262 13.6773 231.594 13.2379C231.926 12.7951 232.097 12.162 232.106 11.3384V10.8111ZM234.797 14.5953V7.4859H237.121C237.893 7.4859 238.472 7.64541 238.859 7.96442C239.25 8.28343 239.445 8.75543 239.445 9.38043C239.445 9.71246 239.351 10.0071 239.162 10.2642C238.973 10.5181 238.716 10.7151 238.391 10.855C238.775 10.9625 239.077 11.1675 239.299 11.4703C239.523 11.7698 239.636 12.1278 239.636 12.5445C239.636 13.1825 239.429 13.6838 239.016 14.0484C238.602 14.413 238.018 14.5953 237.263 14.5953H234.797ZM235.734 11.2701V13.8287H237.282C237.718 13.8287 238.062 13.7164 238.312 13.4918C238.566 13.2639 238.693 12.9514 238.693 12.5543C238.693 11.6981 238.228 11.2701 237.297 11.2701H235.734ZM235.734 10.5181H237.15C237.561 10.5181 237.888 10.4156 238.132 10.2105C238.379 10.0054 238.503 9.72711 238.503 9.37555C238.503 8.98492 238.389 8.70172 238.161 8.52594C237.933 8.3469 237.587 8.25739 237.121 8.25739H235.734V10.5181ZM55.1484 23.8121V26.5953H54.2109V19.4859H56.833C57.611 19.4859 58.2197 19.6845 58.6592 20.0816C59.1019 20.4787 59.3232 21.0045 59.3232 21.6588C59.3232 22.3489 59.1068 22.8811 58.6738 23.2554C58.2441 23.6265 57.6273 23.8121 56.8232 23.8121H55.1484ZM55.1484 23.0455H56.833C57.3343 23.0455 57.7184 22.9283 57.9854 22.6939C58.2523 22.4563 58.3857 22.1145 58.3857 21.6685C58.3857 21.2453 58.2523 20.9068 57.9854 20.6529C57.7184 20.399 57.3522 20.2672 56.8867 20.2574H55.1484V23.0455ZM66.3398 23.2701C66.3398 23.9667 66.2227 24.5754 65.9883 25.0963C65.7539 25.6138 65.4219 26.0093 64.9922 26.2828C64.5625 26.5562 64.0612 26.6929 63.4883 26.6929C62.9284 26.6929 62.432 26.5562 61.999 26.2828C61.5661 26.0061 61.2292 25.6138 60.9883 25.106C60.7507 24.595 60.6286 24.0041 60.6221 23.3336V22.8209C60.6221 22.1373 60.7409 21.5334 60.9785 21.0093C61.2161 20.4852 61.5514 20.0849 61.9844 19.8082C62.4206 19.5282 62.9186 19.3882 63.4785 19.3882C64.0482 19.3882 64.5495 19.5266 64.9824 19.8033C65.4186 20.0767 65.7539 20.4755 65.9883 20.9996C66.2227 21.5204 66.3398 22.1275 66.3398 22.8209V23.2701ZM65.4072 22.8111C65.4072 21.968 65.238 21.3218 64.8994 20.8726C64.5609 20.4201 64.0872 20.1939 63.4785 20.1939C62.8861 20.1939 62.4189 20.4201 62.0771 20.8726C61.7386 21.3218 61.5645 21.9468 61.5547 22.7476V23.2701C61.5547 24.0871 61.7256 24.73 62.0674 25.1988C62.4124 25.6643 62.8861 25.897 63.4883 25.897C64.0938 25.897 64.5625 25.6773 64.8945 25.2379C65.2266 24.7951 65.3975 24.162 65.4072 23.3384V22.8111ZM73.3271 24.3394C73.2393 25.0914 72.9609 25.6724 72.4922 26.0826C72.0267 26.4895 71.4066 26.6929 70.6318 26.6929C69.792 26.6929 69.1182 26.3918 68.6104 25.7896C68.1058 25.1874 67.8535 24.3817 67.8535 23.3726V22.689C67.8535 22.0282 67.9707 21.4472 68.2051 20.9459C68.4427 20.4446 68.778 20.0604 69.2109 19.7935C69.6439 19.5233 70.1452 19.3882 70.7148 19.3882C71.4701 19.3882 72.0755 19.5998 72.5312 20.023C72.987 20.4429 73.2523 21.0256 73.3271 21.7711H72.3848C72.3034 21.2047 72.126 20.7945 71.8525 20.5406C71.5824 20.2867 71.2031 20.1597 70.7148 20.1597C70.1159 20.1597 69.6455 20.3811 69.3037 20.8238C68.9652 21.2665 68.7959 21.8964 68.7959 22.7134V23.4019C68.7959 24.1734 68.957 24.787 69.2793 25.2427C69.6016 25.6985 70.0524 25.9263 70.6318 25.9263C71.1527 25.9263 71.5514 25.8091 71.8281 25.5748C72.1081 25.3371 72.2936 24.9254 72.3848 24.3394H73.3271ZM80.1924 24.3394C80.1045 25.0914 79.8262 25.6724 79.3574 26.0826C78.8919 26.4895 78.2718 26.6929 77.4971 26.6929C76.6572 26.6929 75.9834 26.3918 75.4756 25.7896C74.971 25.1874 74.7188 24.3817 74.7188 23.3726V22.689C74.7188 22.0282 74.8359 21.4472 75.0703 20.9459C75.3079 20.4446 75.6432 20.0604 76.0762 19.7935C76.5091 19.5233 77.0104 19.3882 77.5801 19.3882C78.3353 19.3882 78.9408 19.5998 79.3965 20.023C79.8522 20.4429 80.1175 21.0256 80.1924 21.7711H79.25C79.1686 21.2047 78.9912 20.7945 78.7178 20.5406C78.4476 20.2867 78.0684 20.1597 77.5801 20.1597C76.9811 20.1597 76.5107 20.3811 76.1689 20.8238C75.8304 21.2665 75.6611 21.8964 75.6611 22.7134V23.4019C75.6611 24.1734 75.8223 24.787 76.1445 25.2427C76.4668 25.6985 76.9176 25.9263 77.4971 25.9263C78.0179 25.9263 78.4167 25.8091 78.6934 25.5748C78.9733 25.3371 79.1589 24.9254 79.25 24.3394H80.1924ZM86.3105 19.4859H87.248V26.5953H86.3105V21.1168L82.8096 26.5953H81.8672V19.4859H82.8096V24.9644L86.3105 19.4859ZM93.791 19.4859H94.7285V26.5953H93.791V21.1168L90.29 26.5953H89.3477V19.4859H90.29V24.9644L93.791 19.4859ZM102.019 24.3394C101.931 25.0914 101.652 25.6724 101.184 26.0826C100.718 26.4895 100.098 26.6929 99.3232 26.6929C98.4834 26.6929 97.8096 26.3918 97.3018 25.7896C96.7972 25.1874 96.5449 24.3817 96.5449 23.3726V22.689C96.5449 22.0282 96.6621 21.4472 96.8965 20.9459C97.1341 20.4446 97.4694 20.0604 97.9023 19.7935C98.3353 19.5233 98.8366 19.3882 99.4062 19.3882C100.161 19.3882 100.767 19.5998 101.223 20.023C101.678 20.4429 101.944 21.0256 102.019 21.7711H101.076C100.995 21.2047 100.817 20.7945 100.544 20.5406C100.274 20.2867 99.8945 20.1597 99.4062 20.1597C98.8073 20.1597 98.3369 20.3811 97.9951 20.8238C97.6566 21.2665 97.4873 21.8964 97.4873 22.7134V23.4019C97.4873 24.1734 97.6484 24.787 97.9707 25.2427C98.293 25.6985 98.7438 25.9263 99.3232 25.9263C99.8441 25.9263 100.243 25.8091 100.52 25.5748C100.799 25.3371 100.985 24.9254 101.076 24.3394H102.019ZM105.5 23.4019H104.636V26.5953H103.698V19.4859H104.636V22.6207H105.368L107.854 19.4859H109.021L106.306 22.9332L109.221 26.5953H108.073L105.5 23.4019ZM115.744 23.2701C115.744 23.9667 115.627 24.5754 115.393 25.0963C115.158 25.6138 114.826 26.0093 114.396 26.2828C113.967 26.5562 113.465 26.6929 112.893 26.6929C112.333 26.6929 111.836 26.5562 111.403 26.2828C110.97 26.0061 110.633 25.6138 110.393 25.106C110.155 24.595 110.033 24.0041 110.026 23.3336V22.8209C110.026 22.1373 110.145 21.5334 110.383 21.0093C110.62 20.4852 110.956 20.0849 111.389 19.8082C111.825 19.5282 112.323 19.3882 112.883 19.3882C113.452 19.3882 113.954 19.5266 114.387 19.8033C114.823 20.0767 115.158 20.4755 115.393 20.9996C115.627 21.5204 115.744 22.1275 115.744 22.8209V23.2701ZM114.812 22.8111C114.812 21.968 114.642 21.3218 114.304 20.8726C113.965 20.4201 113.492 20.1939 112.883 20.1939C112.29 20.1939 111.823 20.4201 111.481 20.8726C111.143 21.3218 110.969 21.9468 110.959 22.7476V23.2701C110.959 24.0871 111.13 24.73 111.472 25.1988C111.817 25.6643 112.29 25.897 112.893 25.897C113.498 25.897 113.967 25.6773 114.299 25.2379C114.631 24.7951 114.802 24.162 114.812 23.3384V22.8111ZM121.984 19.4859H122.922V26.5953H121.984V21.1168L118.483 26.5953H117.541V19.4859H118.483V24.9644L121.984 19.4859ZM121.721 17.7183C121.721 18.1122 121.586 18.4296 121.315 18.6705C121.049 18.9081 120.697 19.0269 120.261 19.0269C119.825 19.0269 119.471 18.9065 119.201 18.6656C118.931 18.4247 118.796 18.1089 118.796 17.7183H119.533C119.533 17.9462 119.595 18.1252 119.719 18.2554C119.842 18.3824 120.023 18.4459 120.261 18.4459C120.489 18.4459 120.666 18.3824 120.793 18.2554C120.923 18.1285 120.988 17.9494 120.988 17.7183H121.721ZM130.974 20.1988H131.125C131.662 20.202 132.152 20.3274 132.595 20.5748C133.037 20.8222 133.381 21.164 133.625 21.6002C133.872 22.0331 133.996 22.5181 133.996 23.0552C133.996 23.5956 133.872 24.0855 133.625 24.525C133.378 24.9644 133.036 25.3078 132.6 25.5552C132.163 25.7994 131.678 25.9247 131.145 25.9312H130.974V26.8882H130.065V25.9312H129.929C129.385 25.9312 128.89 25.8075 128.444 25.5601C128.002 25.3127 127.657 24.9709 127.409 24.5347C127.165 24.0985 127.043 23.6086 127.043 23.065C127.043 22.5214 127.165 22.0315 127.409 21.5953C127.657 21.1591 128.002 20.8173 128.444 20.5699C128.89 20.3225 129.385 20.1988 129.929 20.1988H130.065V19.1929H130.974V20.1988ZM129.929 20.9361C129.317 20.9361 128.832 21.1249 128.474 21.5025C128.119 21.8769 127.941 22.3977 127.941 23.065C127.941 23.7356 128.119 24.258 128.474 24.6324C128.828 25.0035 129.317 25.189 129.938 25.189H130.065V20.9361H129.929ZM130.974 20.9361V25.189H131.11C131.732 25.189 132.217 24.9986 132.565 24.6177C132.917 24.2336 133.093 23.7128 133.093 23.0552C133.093 22.4042 132.917 21.8882 132.565 21.5074C132.217 21.1265 131.726 20.9361 131.091 20.9361H130.974ZM139.548 23.3091H136.467V25.8287H140.046V26.5953H135.529V19.4859H139.997V20.2574H136.467V22.5425H139.548V23.3091ZM147.961 28.3384H147.028V26.5953H141.926V28.3433H140.988L140.983 25.8287H141.564C141.87 25.4836 142.113 25.0214 142.292 24.442C142.474 23.8593 142.588 23.2213 142.634 22.5279L142.79 19.4859H147.043V25.8287H147.971L147.961 28.3384ZM142.634 25.8287H146.101V20.2574H143.693L143.591 22.3472C143.549 23.1643 143.439 23.8609 143.264 24.4371C143.091 25.0132 142.881 25.4771 142.634 25.8287ZM153.454 23.3091H150.373V25.8287H153.952V26.5953H149.436V19.4859H153.903V20.2574H150.373V22.5425H153.454V23.3091ZM156.408 23.8121V26.5953H155.471V19.4859H158.093C158.871 19.4859 159.479 19.6845 159.919 20.0816C160.362 20.4787 160.583 21.0045 160.583 21.6588C160.583 22.3489 160.367 22.8811 159.934 23.2554C159.504 23.6265 158.887 23.8121 158.083 23.8121H156.408ZM156.408 23.0455H158.093C158.594 23.0455 158.978 22.9283 159.245 22.6939C159.512 22.4563 159.646 22.1145 159.646 21.6685C159.646 21.2453 159.512 20.9068 159.245 20.6529C158.978 20.399 158.612 20.2672 158.146 20.2574H156.408V23.0455ZM165.383 24.7398H162.404L161.735 26.5953H160.769L163.483 19.4859H164.304L167.023 26.5953H166.062L165.383 24.7398ZM162.688 23.9683H165.104L163.894 20.6431L162.688 23.9683ZM168.361 19.4859H169.304V25.8287H172.81V19.4859H173.747V25.8091H174.494L174.406 28.3091H173.562V26.5953H168.361V19.4859ZM180.48 19.4859H181.418V26.5953H180.48V21.1168L176.979 26.5953H176.037V19.4859H176.979V24.9644L180.48 19.4859ZM187.961 19.4859H188.898V26.5953H187.961V21.1168L184.46 26.5953H183.518V19.4859H184.46V24.9644L187.961 19.4859Z" fill="#1A1D23" fill-opacity="0.6"/>
<path d="M22.7402 15.4819C22.221 14.9547 21.4744 14.9667 21.0459 15.1199C21.3266 14.7208 21.9802 14.3935 22.1729 14.3537C22.3195 14.4174 22.7402 14.9181 22.7402 15.4819ZM24.3979 13.2987C24.0564 11.183 19.8116 12.5849 17.674 11.6863C17.6331 12.303 18.3321 13.2912 19.0008 13.6569C17.8578 14.8059 16.8316 17.1209 16.6246 19.9491C16.4181 17.1209 15.3919 14.8059 14.249 13.6569C14.9176 13.2912 15.6172 12.303 15.5757 11.6863C13.4381 12.5849 9.19331 11.183 8.85124 13.2987C8.77929 13.7465 8.96526 14.4288 9.16618 14.6249C9.20216 14.483 9.3898 14.0189 9.98149 13.9148C12.972 13.3914 15.4689 18.7302 13.215 20.8887C13.1807 20.9215 13.2001 20.9821 13.2466 20.9821H20.0037C20.0496 20.9821 20.069 20.9215 20.0353 20.8887C17.7808 18.7302 20.2777 13.3914 23.2682 13.9148C23.8605 14.0189 24.0476 14.483 24.0835 14.6249C24.2845 14.4288 24.4704 13.7465 24.3979 13.2987ZM25.1252 8.44304C25.0715 8.24313 26.825 8.23809 26.825 9.5094C26.825 10.3613 25.7761 10.7649 25.7761 11.6491C25.7761 12.0608 26.1586 12.3629 26.276 12.3629C26.0058 10.9434 27.1228 11.6863 27.4245 11.9517C26.825 10.0429 28.1745 10.0549 28.0416 9.17959C27.9492 8.5679 26.7763 8.75266 26.3518 8.44304C25.5985 7.89377 24.7073 5.75664 24.1201 7.89377C25.2149 9.07112 24.5778 10.804 23.188 10.804C23.188 10.804 23.1802 11.0582 23.193 11.0784C24.8507 10.9844 25.4286 9.57309 25.1252 8.44304ZM5.78486 11.9517C6.08651 11.6863 7.20347 10.9434 6.93392 12.3629C7.05071 12.3629 7.43318 12.0608 7.43318 11.6491C7.43318 10.7649 6.38429 10.3613 6.38429 9.5094C6.38429 8.23809 8.13778 8.24313 8.08409 8.44304C7.78133 9.57309 8.35918 10.9844 10.0169 11.0784C10.0291 11.0582 10.0213 10.804 10.0213 10.804C8.63206 10.804 7.99498 9.07112 9.08925 7.89377C8.50198 5.75664 7.61085 7.89377 6.85754 8.44304C6.433 8.75266 5.26014 8.5679 5.1677 9.17959C5.03542 10.0549 6.3843 10.0429 5.78486 11.9517ZM10.4918 15.4819C11.0116 14.9547 11.7582 14.9667 12.1861 15.1199C11.9066 14.7208 11.2518 14.3935 11.0597 14.3537C10.913 14.4174 10.4918 14.9181 10.4918 15.4819ZM17.4133 3.64725L16.6047 2.50522L15.796 3.64725L16.6047 4.84919L17.4133 3.64725ZM22.0295 7.10047L21.4544 6.28887L20.8799 7.10047L21.4544 7.89377L22.0295 7.10047ZM26.6939 30.5604L25.9649 29.6668L25.2359 30.5604L25.9649 31.3442L26.6939 30.5604ZM12.33 7.10047L11.7549 6.28887L11.1804 7.10047L11.7549 7.89377L12.33 7.10047ZM10.6828 11.0784H12.8276C14.6309 11.0784 15.4423 9.79632 15.6875 8.68456H17.5224C17.7676 9.79632 18.5784 11.0784 20.3823 11.0784H22.5271C22.5271 11.0784 22.9024 10.4887 22.9965 10.1968C23.3352 9.14616 22.9024 8.65618 22.2708 8.65618L21.4544 9.51318L20.638 8.65618C20.0065 8.65618 19.5736 9.14616 19.9124 10.1968C19.9555 10.3311 20.0591 10.5285 20.157 10.7019C19.396 10.5808 18.4246 9.97731 18.2115 8.68456C18.2115 8.68456 18.7738 7.64973 18.915 7.231C19.422 5.72511 18.7744 5.10963 17.8273 5.10963L16.6047 6.77444L15.382 5.10963C14.4349 5.10963 13.7873 5.72511 14.2949 7.231C14.4355 7.64973 14.9984 8.68456 14.9984 8.68456C14.7848 9.97731 13.8134 10.5808 13.0523 10.7019C13.1508 10.5285 13.2538 10.3311 13.297 10.1968C13.6351 9.14616 13.2034 8.65618 12.5713 8.65618L11.7549 9.51318L10.9385 8.65618C10.3064 8.65618 9.87466 9.14616 10.2129 10.1968C10.3069 10.4887 10.6828 11.0784 10.6828 11.0784ZM32.8576 18.7794C32.4436 19.0221 30.0148 20.3401 26.9036 19.8526C26.9363 19.6805 26.9629 19.5071 26.9855 19.3337C29.0562 19.0467 30.7394 18.64 31.8121 17.9488C33.0347 17.1606 33.5694 15.2788 32.9523 13.8789C32.9362 13.8436 32.8919 13.8373 32.8698 13.8669C32.5316 14.3178 30.4051 16.9973 27.0547 17.8303C27.0459 17.6279 27.0304 17.428 27.0071 17.2293C28.6344 16.1604 30.223 14.9289 30.9796 13.8026C32.1231 12.0999 32.018 9.92812 30.9298 8.82077C30.9065 8.79681 30.8689 8.80374 30.8528 8.83338C30.5086 9.49111 27.2861 15.5241 23.7481 18.1286C23.7127 18.1551 23.6651 18.1891 23.6175 18.2225C23.5162 18.2938 23.5051 18.4464 23.5915 18.5372C23.9994 18.9654 24.2529 19.5613 24.2529 20.2228C24.2529 21.373 23.4874 22.3297 22.4756 22.5372C21.9614 22.6526 21.2192 22.6191 20.5063 22.3461C20.4742 22.3341 20.441 22.3587 20.441 22.3959V26.0389C20.441 26.0976 20.5179 26.1121 20.5362 26.056C20.9696 24.726 22.267 24.4435 22.8343 24.4435C23.0385 25.8649 23.4033 27.0422 23.8771 27.676C24.6487 28.7058 25.9084 28.6913 26.4547 27.9793C26.4736 27.9547 26.468 27.9163 26.4426 27.8999C26.1215 27.6861 24.285 26.3801 23.9175 24.2398C24.0625 24.1818 24.2042 24.1162 24.3398 24.0386C24.9326 25.175 25.7955 26.1871 26.4902 26.5737C27.6569 27.2219 28.7252 26.9066 29.199 25.9576C29.2161 25.9242 29.1951 25.8825 29.1602 25.8788C28.4385 25.8119 26.2234 25.0766 25.2802 23.2851C25.3881 23.1703 25.4939 23.0505 25.5924 22.9231C26.5793 23.7933 27.9746 24.5627 28.9737 24.7197C30.1427 24.9038 31.4672 24.4719 31.4993 22.8972C31.4999 22.8657 31.4755 22.8398 31.4467 22.8417C31.0311 22.8707 28.2796 23.0095 26.3191 21.706C26.3872 21.5566 26.4503 21.4039 26.5095 21.2482C26.5095 21.2482 29.4719 22.0592 30.8755 21.7905C32.2704 21.5238 33.0873 20.3193 32.9296 18.821C32.9251 18.7838 32.8875 18.7617 32.8576 18.7794ZM6.69979 21.2482C6.75901 21.4039 6.82267 21.5566 6.89075 21.706C4.93081 23.0088 2.18047 22.8714 1.76313 22.8417C1.73379 22.8398 1.70944 22.867 1.70999 22.8979C1.74265 24.4719 3.06662 24.9038 4.23561 24.7197C5.23412 24.5627 6.63005 23.7933 7.61694 22.9231C7.71601 23.0505 7.82118 23.1703 7.92911 23.2851C6.98539 25.0766 4.77084 25.8119 4.04908 25.8788C4.01421 25.8825 3.99373 25.9242 4.01034 25.9576C4.48413 26.9066 5.55239 27.2219 6.71972 26.5737C7.4138 26.1871 8.27671 25.175 8.86951 24.0386C9.00567 24.1162 9.14736 24.1818 9.29183 24.2398C8.9243 26.3801 7.08779 27.6861 6.76676 27.8999C6.74186 27.9163 6.73577 27.9547 6.75459 27.9793C7.30089 28.6913 8.56121 28.7058 9.33279 27.676C9.80658 27.0422 10.1708 25.8649 10.375 24.4435C10.9429 24.4435 12.2398 24.726 12.6732 26.056C12.692 26.1121 12.7689 26.0976 12.7689 26.0389V22.3959C12.7689 22.3587 12.7351 22.3341 12.703 22.3461C11.9901 22.6191 11.2479 22.6526 10.7342 22.5372C9.7219 22.3297 8.95641 21.373 8.95641 20.2228C8.95641 19.5613 9.21046 18.9648 9.61784 18.5366C9.70474 18.4464 9.69311 18.2938 9.59238 18.2225C9.54422 18.1891 9.49662 18.1551 9.46064 18.1286C5.92489 15.5254 2.70408 9.49678 2.35703 8.83464C2.34098 8.80374 2.30224 8.79744 2.27844 8.8214C1.19192 9.92938 1.0862 12.1006 2.22973 13.8026C2.98636 14.9289 4.57491 16.1604 6.20164 17.2293C6.17895 17.428 6.1629 17.6279 6.15459 17.8303C2.80703 16.9979 0.682144 14.3228 0.340635 13.8688C0.317941 13.8379 0.272554 13.8442 0.257056 13.8795C-0.358989 15.2801 0.175692 17.1606 1.39727 17.9488C2.46995 18.64 4.15314 19.0467 6.22378 19.3337C6.24647 19.5071 6.27304 19.6805 6.3057 19.8526C3.1978 20.3395 0.77015 19.0247 0.352812 18.78C0.321816 18.7617 0.284178 18.7844 0.280303 18.8222C0.123109 20.3206 0.939521 21.5238 2.33434 21.7905C3.73746 22.0592 6.69979 21.2482 6.69979 21.2482ZM25.9649 32.4951L24.8856 31.5114C24.4549 31.8084 24.1383 32.2801 24.0155 32.8331C23.3662 32.9384 21.5961 32.4831 21.7683 32.1811C23.7083 29.0204 22.2243 27.1387 20.441 27.2434V29.366C20.441 30.0477 19.9273 30.6001 19.2947 30.6001H18.0631C17.1797 30.6001 16.6047 31.6286 16.6047 31.6286C16.6047 31.6286 16.0296 30.6001 15.1462 30.6001H13.9147C13.2815 30.6001 12.7689 30.0477 12.7689 29.366V27.2434C10.9855 27.1387 9.5005 29.0204 11.4411 32.1811C11.6115 32.48 9.79219 32.9586 8.93869 32.8375C8.71397 32.5676 8.38962 32.3974 8.02653 32.3974C7.86657 32.3974 7.71435 32.4314 7.57432 32.4913C7.57432 32.4913 4.22067 28.8136 4.15923 28.7777L4.1869 28.7033C4.37786 28.2896 4.08561 27.8387 3.90074 27.8702C4.1155 27.5719 4.12546 26.2659 2.93433 25.9639C2.9692 26.2262 2.98692 26.7616 2.98692 26.7616C2.98692 26.7616 2.06755 26.1859 1.60593 26.6828C1.20022 27.239 1.76313 28.248 1.76313 28.248C1.76313 28.248 1.29265 28.2612 1.06074 28.2385C1.40169 29.5741 2.54522 29.4795 2.79264 29.2159C2.77659 29.4285 3.19005 29.7311 3.54041 29.4884L3.69429 29.402C3.72141 29.4442 6.98761 33.0185 6.98761 33.0185C6.83761 33.2764 6.76621 33.593 6.81547 33.9304C6.89296 34.4576 7.27211 34.8946 7.75642 35.0081C8.09848 35.0875 8.42007 35.0106 8.678 34.8359L9.54256 35.7654C9.6195 35.8462 9.72356 35.8966 9.83979 35.8871C10.0512 35.8708 10.2095 35.6721 10.1935 35.4445C10.1868 35.3417 10.1414 35.2534 10.0789 35.1865C10.0651 35.1689 9.19829 34.2368 9.19829 34.2368C9.91341 33.6561 11.2457 33.2468 12.3516 33.2468C12.5459 33.2468 12.6372 33.0563 12.5702 32.8697C12.0693 31.4741 13.1464 30.4633 14.2606 31.2862C14.7466 31.645 15.2403 32.352 15.6122 33.5312C13.784 34.0439 11.4887 35.4564 11.0243 36.9983C10.8455 37.5936 11.4361 38.4052 12.1534 38.5685C12.1805 38.5754 12.2066 38.5546 12.2115 38.525C12.5863 36.2233 14.7233 34.508 15.8353 34.2167C15.8912 34.3901 15.8729 34.334 15.9288 34.5067C14.7178 35.1701 13.5433 36.5695 13.2078 38.233C13.054 38.9948 13.7873 39.6815 14.3929 39.8694C14.4233 39.8789 14.4532 39.8543 14.4549 39.8203C14.57 37.7165 15.372 35.93 16.0905 35.1172C16.1098 35.2736 16.1248 35.4337 16.1347 35.5958C16.1347 35.5958 15.3991 37.9701 15.3991 39.7023C15.3991 40.5083 16.4331 41.0708 16.5858 41.1496C16.7768 41.0708 17.8102 40.5083 17.8102 39.7023C17.8102 37.9701 17.0746 35.5958 17.0746 35.5958C17.0851 35.4337 17.0995 35.2736 17.1194 35.1172C17.8373 35.93 18.6399 37.7159 18.7545 39.8196C18.7561 39.8537 18.7866 39.8789 18.8164 39.8694C19.4225 39.6815 20.1554 38.9948 20.002 38.233C19.6661 36.5695 18.4921 35.1701 17.281 34.5067C17.3364 34.334 17.3181 34.3901 17.374 34.2167C18.4866 34.508 20.6231 36.2233 20.9978 38.525C21.0028 38.5546 21.0293 38.5754 21.0559 38.5685C21.7727 38.4052 22.3644 37.5936 22.1845 36.9983C21.7212 35.4564 19.4253 34.0439 17.5971 33.5312C17.9696 32.352 18.4633 31.645 18.9493 31.2862C20.0629 30.4633 21.14 31.4741 20.6391 32.8697C20.5721 33.0563 20.6629 33.2468 20.8578 33.2468C22.1087 33.2468 23.6496 33.7702 24.2596 34.4721C24.6492 35.1493 25.3693 35.5826 26.1819 35.4899C27.1051 35.3852 27.8579 34.5818 27.9619 33.5886C28.0527 32.7183 27.6641 31.937 27.0448 31.5114L25.9649 32.4951Z" fill="#1A1D23" fill-opacity="0.6"/>
<path d="M19.433 24.6926C18.8721 23.4127 17.9366 23.3939 16.8714 23.8063C16.8519 23.3533 16.8345 22.9806 16.8181 22.613C16.6217 22.594 16.6217 22.594 16.3267 23.7934C15.3906 23.4287 14.5266 23.3822 13.8955 24.4205C13.5267 25.0277 13.5371 25.6633 13.8819 26.2766C14.5079 27.3904 15.4093 27.2076 16.4349 26.8758C16.3998 27.49 16.3698 28.0283 16.3374 28.581C16.4061 28.585 16.5324 28.6 16.6598 28.5979C16.7479 28.5946 16.8357 28.586 16.9231 28.5722C16.893 27.9948 16.8655 27.4663 16.8365 26.8869C17.7566 27.189 18.5474 27.3648 19.1767 26.5301C19.5797 25.995 19.7271 25.3653 19.433 24.6926ZM16.4203 25.4019V25.699C16.4254 26.7323 16.2658 26.9063 15.3397 26.8596C14.7952 26.8327 14.3817 26.5495 14.1631 25.9614C13.953 25.3989 14.0215 24.8614 14.3665 24.3907C14.7679 23.8441 15.5834 23.6355 16.1254 23.9733C16.2592 24.0578 16.3766 24.2842 16.4033 24.4641C16.4488 24.7692 16.4162 25.0891 16.4162 25.4021L16.4203 25.4019ZM18.9794 26.1421C18.7272 26.618 18.2968 26.8724 17.7496 26.8675C17.0403 26.8616 16.8423 26.6359 16.8413 25.835C16.8413 25.3899 16.8218 24.9447 16.8431 24.5018C16.8509 24.3419 16.9143 24.1342 17.0155 24.0409C17.4015 23.6832 18.3044 23.8174 18.7255 24.2614C19.2041 24.766 19.3066 25.5241 18.9786 26.1421H18.9794Z" fill="#1A1D23" fill-opacity="0.6"/>
<path d="M19.4436 29.0337C18.8458 29.1401 18.7352 29.0854 18.6305 28.6064C18.455 27.7986 18.5104 27.3841 18.8115 27.2619C19.0313 27.8799 19.2388 28.4633 19.4436 29.0337Z" fill="#1A1D23" fill-opacity="0.6"/>
<path d="M14.6657 27.9714C14.5079 29.0603 14.4968 29.0585 13.7881 29.0047C14.0042 28.4423 14.2298 27.8523 14.4613 27.2481C14.9502 27.2926 14.7047 27.7122 14.6657 27.9714Z" fill="#1A1D23" fill-opacity="0.6"/>
<path d="M19.1332 22.5799C19.0123 22.8891 18.8939 23.19 18.7697 23.508C18.6187 23.4402 18.4756 23.3769 18.335 23.3143C18.4721 22.5402 18.539 22.4776 19.1332 22.5799Z" fill="#1A1D23" fill-opacity="0.6"/>
<path d="M14.9264 23.3023L14.4607 23.483C14.3501 23.173 14.2489 22.8887 14.1426 22.5887C14.7113 22.3672 14.8047 22.8361 14.9264 23.3023Z" fill="#1A1D23" fill-opacity="0.6"/>
<path d="M17.1085 28.9372C16.9719 29.2821 16.8354 29.6269 16.6351 30.1306C16.4138 29.6377 16.2545 29.2841 16.0957 28.9293L16.2166 28.8428C16.341 29.0434 16.4662 29.2443 16.6316 29.5085C16.7775 29.257 16.8889 29.0653 17.0022 28.8746C17.0365 28.8954 17.0724 28.9164 17.1085 28.9372Z" fill="#1A1D23" fill-opacity="0.6"/>
<path d="M15.9636 28.3292L15.7578 27.396L15.8896 27.3549L16.1176 28.2813L15.9636 28.3292Z" fill="#1A1D23" fill-opacity="0.6"/>
<path d="M17.2366 28.3292L17.4424 27.396L17.3105 27.3549L17.0826 28.2813L17.2366 28.3292Z" fill="#1A1D23" fill-opacity="0.6"/>
<path d="M14.7899 24.3099V26.4263C14.4486 26.1283 14.4082 24.7124 14.7899 24.3099Z" fill="#1A1D23" fill-opacity="0.6"/>
<path d="M15.2234 24.1467L15.7634 26.5259L15.592 26.5799L15.0752 24.1973L15.2234 24.1467Z" fill="#1A1D23" fill-opacity="0.6"/>
<path d="M18.3496 26.4748C18.383 25.7138 18.4105 25.0668 18.4405 24.3932C18.8436 24.6904 18.835 26.0627 18.3496 26.4748Z" fill="#1A1D23" fill-opacity="0.6"/>
<path d="M18.1318 24.1827C17.9498 24.9846 17.7683 25.7868 17.5873 26.5892C17.5393 26.5743 17.4898 26.5594 17.4424 26.5456C17.6244 25.7427 17.8064 24.9401 17.9884 24.138L18.1318 24.1827Z" fill="#1A1D23" fill-opacity="0.6"/>
</svg>
