<svg width="18" height="21" viewBox="0 0 18 21" fill="none" xmlns="http://www.w3.org/2000/svg">
<path d="M0.463993 17.3461L1.90045 14.9532C2.56265 13.8487 2.91299 12.5845 2.91299 11.296V9.19986C2.91299 5.97331 5.53922 3.34708 8.76577 3.34708C11.9923 3.34708 14.6185 5.97331 14.6185 9.19986V11.296C14.6185 12.5845 14.9689 13.8487 15.6311 14.9532L17.0675 17.3461C17.1453 17.4749 17.147 17.6363 17.0734 17.7667C16.999 17.8979 16.8593 17.9791 16.7088 17.9791H0.822725C0.672224 17.9791 0.53258 17.898 0.458192 17.7667C0.384588 17.6362 0.386234 17.4749 0.463993 17.3461ZM15.9705 17.1429L14.9145 15.3829C14.1737 14.1488 13.7824 12.7358 13.7824 11.296V9.19986C13.7824 6.43316 11.5325 4.18318 8.76577 4.18318C5.99907 4.18318 3.74909 6.43316 3.74909 9.19986V11.296C3.74909 12.7358 3.35779 14.1488 2.61783 15.3829L1.561 17.1429H15.9705Z" fill="#858585"/>
<path d="M8.76584 0.420685C9.68808 0.420685 10.4381 1.17068 10.4381 2.09292V3.76516C10.4381 3.99589 10.2508 4.18319 10.02 4.18319C9.78924 4.18319 9.60194 3.99589 9.60194 3.76512V2.09292C9.60194 1.63139 9.22737 1.25682 8.76584 1.25682C8.3043 1.25682 7.92974 1.63139 7.92974 2.09292V3.76516C7.92974 3.99589 7.74243 4.18319 7.51167 4.18319C7.2809 4.18319 7.0936 3.99589 7.0936 3.76512V2.09292C7.0936 1.17068 7.84359 0.420685 8.76584 0.420685Z" fill="#858585"/>
<path d="M6.95656 17.3494C7.07446 17.1505 7.32948 17.0852 7.52929 17.1998C7.72913 17.3168 7.796 17.5735 7.67897 17.7725C7.57028 17.9573 7.51091 18.1788 7.51091 18.3971C7.51091 19.0885 8.0736 19.6512 8.76508 19.6512C9.45655 19.6512 10.0192 19.0885 10.0192 18.3971C10.0192 18.1788 9.95987 17.9573 9.85119 17.7725C9.73498 17.5726 9.80184 17.3168 10.0009 17.1998C10.2024 17.0852 10.4566 17.1504 10.5736 17.3494C10.7584 17.6655 10.8562 18.0275 10.8562 18.3971C10.8562 19.5501 9.91891 20.4874 8.7659 20.4874C7.61289 20.4874 6.67563 19.5501 6.67395 18.3971C6.67395 18.0275 6.77177 17.6655 6.95656 17.3494Z" fill="#858585"/>
</svg>
