<svg width="14" height="17" viewBox="0 0 14 17" fill="none" xmlns="http://www.w3.org/2000/svg">
<path d="M13.332 8.09895C13.332 7.28176 12.9662 6.54974 12.3916 6.05328C12.2467 3.24686 9.8929 0.98938 7.05819 0.98938C4.22685 0.98938 1.87307 3.247 1.7281 6.05357C1.15366 6.54989 0.788086 7.28191 0.788086 8.09895C0.788086 9.59084 2.00162 10.8044 3.49322 10.8044C3.6826 10.8044 3.83622 10.6509 3.83622 10.4612L3.83636 5.73696C3.83636 5.64579 3.8003 5.55872 3.73596 5.49437C3.67161 5.43002 3.58425 5.39381 3.49337 5.39381C3.12926 5.39381 2.78231 5.4671 2.46496 5.598C2.82056 3.38538 4.75835 1.67552 7.06171 1.67552C9.36184 1.67552 11.2993 3.38538 11.6549 5.598C11.3376 5.4671 10.9908 5.39381 10.6268 5.39381C10.4374 5.39381 10.2838 5.54728 10.2838 5.73696V10.4612C10.2838 10.6509 10.4374 10.8044 10.6268 10.8044C10.9914 10.8044 11.3389 10.7309 11.6566 10.5996C11.3668 12.4154 10.0116 13.9189 8.21119 14.3754C8.00451 13.9906 7.56741 13.7222 7.05834 13.7222C6.35138 13.7222 5.77635 14.2355 5.77635 14.8664C5.77635 15.4973 6.35138 16.0106 7.05834 16.0106C7.69317 16.0106 8.21793 15.5955 8.31892 15.0539C10.5999 14.5041 12.2734 12.4947 12.393 10.1437C12.9668 9.64713 13.332 8.91554 13.332 8.09895ZM3.15008 10.0891C2.1998 9.92563 1.47423 9.0954 1.47423 8.09895C1.47423 7.1025 2.1998 6.27256 3.15022 6.10912L3.15008 10.0891ZM7.05834 15.3245C6.72985 15.3245 6.46249 15.119 6.46249 14.8664C6.46249 14.6138 6.72985 14.4083 7.05834 14.4083C7.38682 14.4083 7.65404 14.6138 7.65404 14.8664C7.65404 15.119 7.38682 15.3245 7.05834 15.3245ZM10.97 6.10912C11.9202 6.27256 12.6458 7.1025 12.6458 8.09895C12.6458 9.0954 11.9202 9.92563 10.97 10.0891V6.10912Z" fill="#333333"/>
</svg>
