<svg width="11" height="12" viewBox="0 0 11 12" fill="none" xmlns="http://www.w3.org/2000/svg">
<path d="M1.0608 1.37665V3.68564L9.6957 3.68564V1.37665H1.0608Z" fill="#1EB795"/>
<path d="M1.28 4.23075L4.28308 7.50308C4.30072 7.5223 4.31681 7.54298 4.33125 7.56488L6.3549 7.56488C6.36955 7.54316 6.38583 7.52267 6.40364 7.50367L9.47034 4.23075L1.28 4.23075Z" fill="#1EB795"/>
<path d="M4.48698 8.10999L5.06265 10.701L5.59187 10.4195L6.18439 8.10999H4.48698Z" fill="#1EB795"/>
<path fill-rule="evenodd" clip-rule="evenodd" d="M1.0608 1.37665V3.68564H0.810676L0.810676 4.23075H1.28L4.28308 7.50308C4.30072 7.5223 4.31681 7.54298 4.33125 7.56488H4.01587V8.10999H4.48698L5.06265 10.701L5.59187 10.4195L6.18439 8.10999H6.66645L6.66645 7.56488H6.3549C6.36955 7.54316 6.38583 7.52267 6.40364 7.50367L9.47034 4.23075H9.94583V3.68564H9.6957V1.37665H1.0608ZM0.560547 1.33123C0.560547 1.05526 0.765854 0.831543 1.01911 0.831543H9.73739C9.99065 0.831543 10.196 1.05526 10.196 1.33123V4.00932C10.196 4.14365 10.1463 4.27231 10.0583 4.3663L6.76165 7.88459L6.06861 10.5859C6.03335 10.7233 5.94585 10.8377 5.82816 10.9004L5.23552 11.2156C4.97224 11.3557 4.65759 11.1945 4.58865 10.8842L3.92106 7.87951L0.694858 4.36403C0.60886 4.27033 0.560547 4.14323 0.560547 4.01071V1.33123Z" fill="#1EB795"/>
</svg>
