<svg width="16" height="18" viewBox="0 0 16 18" fill="none" xmlns="http://www.w3.org/2000/svg">
<path d="M14.2783 10.5091L13.0185 9.24929L7.34933 3.5804C6.30451 2.54341 4.61797 2.54654 3.57706 3.58744C2.53616 4.62834 2.53303 6.31489 3.57002 7.3597L9.23891 13.0303C9.47078 13.2623 9.84687 13.2623 10.0789 13.0303C10.3107 12.7983 10.3107 12.4223 10.0789 12.1903L4.40997 6.51976C3.83018 5.93997 3.83018 5.00013 4.40997 4.42035C4.98976 3.84056 5.92959 3.84056 6.50938 4.42035L12.18 10.0892L13.4398 11.349C14.4836 12.3931 14.4832 14.0857 13.4392 15.1293C12.395 16.173 10.7026 16.1727 9.65882 15.1285L8.60918 14.0785L2.73021 8.19952L2.31017 7.77961C0.842053 6.26559 0.860701 3.8536 2.3519 2.36227C3.84322 0.871077 6.25522 0.852429 7.76924 2.32054L14.0681 8.61956C14.2182 8.76952 14.4369 8.82808 14.6418 8.77318C14.8468 8.71828 15.0069 8.55827 15.0618 8.35327C15.1167 8.14827 15.058 7.92971 14.9081 7.77961L8.60918 1.48073C6.63653 -0.482931 3.44666 -0.47928 1.47857 1.48894C-0.489656 3.45703 -0.493307 6.6469 1.47035 8.61956L7.76924 14.9184L8.82044 15.9685C10.3364 17.4246 12.7389 17.4003 14.225 15.9137C15.7112 14.4272 15.7348 12.0247 14.2783 10.5091Z" fill="#5B5B5B"/>
</svg>
