<svg width="13" height="15" viewBox="0 0 13 15" fill="none" xmlns="http://www.w3.org/2000/svg">
<path d="M6.74567 7.2225C4.92828 7.2225 3.44971 5.72727 3.44971 3.88927C3.44971 2.05126 4.92828 0.555908 6.74567 0.555908C8.56305 0.555908 10.0416 2.05126 10.0416 3.88927C10.0416 5.72727 8.56305 7.2225 6.74567 7.2225ZM6.74567 1.5559C5.47349 1.5559 4.43848 2.60253 4.43848 3.88927C4.43848 5.17588 5.47349 6.22251 6.74567 6.22251C8.01785 6.22251 9.05285 5.17588 9.05285 3.88927C9.05285 2.60253 8.01785 1.5559 6.74567 1.5559Z" fill="#333333"/>
<path d="M12.1839 14.5559H1.30726C1.03435 14.5559 0.812866 14.3319 0.812866 14.0559V11.7225C0.812866 9.97653 2.21758 8.55588 3.94397 8.55588H9.54715C11.2735 8.55588 12.6783 9.97653 12.6783 11.7225V14.0559C12.6783 14.3319 12.4568 14.5559 12.1839 14.5559ZM1.80165 13.5559H11.6895V11.7225C11.6895 10.5279 10.7283 9.55588 9.54715 9.55588H3.94397C2.76279 9.55588 1.80165 10.5279 1.80165 11.7225V13.5559Z" fill="#333333"/>
</svg>
