<svg width="21" height="21" viewBox="0 0 21 21" fill="none" xmlns="http://www.w3.org/2000/svg">
<path d="M9.19517 2.44861C9.58007 1.78194 10.5423 1.78194 10.9272 2.44861L17.8107 14.3712C18.1956 15.0379 17.7145 15.8712 16.9447 15.8712H3.17768C2.40788 15.8712 1.92675 15.0379 2.31165 14.3712L9.19517 2.44861Z" fill="#F38787"/>
<path d="M10.4501 11.5975H9.61077L9.5515 6.83281C9.54816 6.56471 9.76458 6.34558 10.0327 6.34558C10.301 6.34558 10.5175 6.56499 10.5139 6.83327L10.4501 11.5975ZM9.51025 13.1957C9.51025 13.0449 9.55549 12.9192 9.64595 12.8187C9.73976 12.7149 9.87713 12.6629 10.0581 12.6629C10.239 12.6629 10.3764 12.7149 10.4702 12.8187C10.564 12.9192 10.6109 13.0449 10.6109 13.1957C10.6109 13.3464 10.564 13.4721 10.4702 13.5726C10.3764 13.6698 10.239 13.7183 10.0581 13.7183C9.87713 13.7183 9.73976 13.6698 9.64595 13.5726C9.55549 13.4721 9.51025 13.3464 9.51025 13.1957Z" fill="white"/>
</svg>
