<svg width="20" height="19" viewBox="0 0 20 19" fill="none" xmlns="http://www.w3.org/2000/svg">
<path d="M18.5224 9.81844L19.6402 7.15691L16.7763 7.51959L18.5224 9.81844ZM9.63375 18.9566C9.77182 18.9566 9.88375 18.8446 9.88375 18.7066C9.88375 18.5685 9.77182 18.4566 9.63375 18.4566V18.9566ZM0.996094 9.81844C0.996094 5.04773 4.86352 1.1803 9.63424 1.1803V0.680298C4.58738 0.680298 0.496094 4.77158 0.496094 9.81844H0.996094ZM9.63424 1.1803C13.6552 1.1803 17.0351 3.92792 17.9976 7.64846L18.4817 7.52323C17.4635 3.58746 13.8887 0.680298 9.63424 0.680298V1.1803ZM0.496094 9.81844C0.496094 14.8653 4.58687 18.9566 9.63375 18.9566V18.4566C4.86305 18.4566 0.996094 14.5892 0.996094 9.81844H0.496094Z" fill="#A3A5A7"/>
</svg>
