<svg width="20" height="20" viewBox="0 0 20 20" fill="none" xmlns="http://www.w3.org/2000/svg">
<path d="M18.5224 10.0118L19.6402 7.35027L16.7763 7.71295L18.5224 10.0118ZM9.63375 19.1499C9.77182 19.1499 9.88375 19.038 9.88375 18.8999C9.88375 18.7619 9.77182 18.6499 9.63375 18.6499V19.1499ZM0.996094 10.0118C0.996094 5.24109 4.86352 1.37366 9.63424 1.37366V0.873657C4.58738 0.873657 0.496094 4.96494 0.496094 10.0118H0.996094ZM9.63424 1.37366C13.6552 1.37366 17.0351 4.12128 17.9976 7.84182L18.4817 7.71659C17.4635 3.78081 13.8887 0.873657 9.63424 0.873657V1.37366ZM0.496094 10.0118C0.496094 15.0586 4.58687 19.1499 9.63375 19.1499V18.6499C4.86305 18.6499 0.996094 14.7825 0.996094 10.0118H0.496094Z" fill="#505050"/>
</svg>
