<svg width="13" height="5" viewBox="0 0 13 5" fill="none" xmlns="http://www.w3.org/2000/svg">
<path d="M2.53356 4.03928C2.4372 4.03928 2.35288 4.00314 2.28061 3.93087C2.21636 3.85859 2.17621 3.77026 2.16015 3.66587L2.00356 2.78655L1.56993 3.03951C1.32902 3.18405 1.20857 3.25632 1.20857 3.25632C1.12023 3.30451 1.0319 3.3286 0.943568 3.3286C0.847205 3.3286 0.766902 3.30049 0.70266 3.24428C0.638418 3.18807 0.606297 3.11178 0.606297 3.01542C0.606297 2.95117 0.622358 2.88693 0.654479 2.82269C0.69463 2.75845 0.742812 2.70625 0.799023 2.6661L1.47357 2.12406C1.40129 2.07588 1.26879 2.0036 1.07607 1.90724L0.70266 1.70247C0.630388 1.66232 0.570161 1.61012 0.521979 1.54588C0.473798 1.47361 0.449707 1.39732 0.449707 1.31702C0.449707 1.22065 0.481828 1.14437 0.54607 1.08815C0.610312 1.03194 0.690615 1.00384 0.786978 1.00384C0.85925 1.00384 0.931523 1.01588 1.0038 1.03997L1.23266 1.13634L1.81084 1.35315C1.79478 1.08012 1.78675 0.883382 1.78675 0.762928L1.7747 0.473839C1.7747 0.353385 1.80682 0.248991 1.87106 0.160658C1.93531 0.0723252 2.02765 0.0241434 2.14811 0.0161133C2.24447 0.0241434 2.32477 0.0683102 2.38902 0.148613C2.46129 0.220886 2.50545 0.305203 2.52151 0.401566L2.62992 1.26883C2.69417 1.23671 2.81863 1.15641 3.00333 1.02793C3.16394 0.915503 3.28439 0.8352 3.36469 0.787019C3.45303 0.722777 3.54537 0.690655 3.64174 0.690655C3.7381 0.690655 3.8184 0.722777 3.88264 0.787019C3.94689 0.851261 3.97901 0.931564 3.97901 1.02793C3.97901 1.16444 3.9228 1.27687 3.81037 1.3652L3.14788 1.93133L3.43696 2.07588C3.59757 2.14012 3.76219 2.21641 3.93083 2.30474C4.01113 2.34489 4.07537 2.39709 4.12355 2.46133C4.17976 2.52557 4.20787 2.59383 4.20787 2.6661C4.20787 2.77852 4.17173 2.86686 4.09946 2.9311C4.03522 2.98731 3.94287 3.01542 3.82242 3.01542C3.7903 3.01542 3.73408 3.00739 3.65378 2.99133L3.3406 2.88292C3.17197 2.81065 3.00333 2.75042 2.8347 2.70224C2.86682 3.07966 2.88689 3.38481 2.89492 3.61769C2.89492 3.73011 2.8628 3.83049 2.79856 3.91882C2.74235 3.99912 2.65401 4.03928 2.53356 4.03928Z" fill="#505050"/>
<path d="M6.83885 4.03928C6.74248 4.03928 6.65817 4.00314 6.58589 3.93087C6.52165 3.85859 6.4815 3.77026 6.46544 3.66587L6.30885 2.78655L5.87522 3.03951C5.63431 3.18405 5.51385 3.25632 5.51385 3.25632C5.42552 3.30451 5.33719 3.3286 5.24886 3.3286C5.15249 3.3286 5.07219 3.30049 5.00795 3.24428C4.94371 3.18807 4.91158 3.11178 4.91158 3.01542C4.91158 2.95117 4.92765 2.88693 4.95977 2.82269C4.99992 2.75845 5.0481 2.70625 5.10431 2.6661L5.77885 2.12406C5.70658 2.07588 5.57408 2.0036 5.38135 1.90724L5.00795 1.70247C4.93568 1.66232 4.87545 1.61012 4.82727 1.54588C4.77909 1.47361 4.75499 1.39732 4.75499 1.31702C4.75499 1.22065 4.78712 1.14437 4.85136 1.08815C4.9156 1.03194 4.9959 1.00384 5.09227 1.00384C5.16454 1.00384 5.23681 1.01588 5.30908 1.03997L5.53795 1.13634L6.11612 1.35315C6.10006 1.08012 6.09203 0.883382 6.09203 0.762928L6.07999 0.473839C6.07999 0.353385 6.11211 0.248991 6.17635 0.160658C6.24059 0.0723252 6.33294 0.0241434 6.45339 0.0161133C6.54976 0.0241434 6.63006 0.0683102 6.6943 0.148613C6.76658 0.220886 6.81074 0.305203 6.8268 0.401566L6.93521 1.26883C6.99945 1.23671 7.12392 1.15641 7.30862 1.02793C7.46922 0.915503 7.58968 0.8352 7.66998 0.787019C7.75831 0.722777 7.85066 0.690655 7.94702 0.690655C8.04339 0.690655 8.12369 0.722777 8.18793 0.787019C8.25217 0.851261 8.2843 0.931564 8.2843 1.02793C8.2843 1.16444 8.22808 1.27687 8.11566 1.3652L7.45316 1.93133L7.74225 2.07588C7.90286 2.14012 8.06748 2.21641 8.23611 2.30474C8.31642 2.34489 8.38066 2.39709 8.42884 2.46133C8.48505 2.52557 8.51316 2.59383 8.51316 2.6661C8.51316 2.77852 8.47702 2.86686 8.40475 2.9311C8.34051 2.98731 8.24816 3.01542 8.12771 3.01542C8.09558 3.01542 8.03937 3.00739 7.95907 2.99133L7.64589 2.88292C7.47725 2.81065 7.30862 2.75042 7.13998 2.70224C7.1721 3.07966 7.19218 3.38481 7.20021 3.61769C7.20021 3.73011 7.16809 3.83049 7.10385 3.91882C7.04763 3.99912 6.9593 4.03928 6.83885 4.03928Z" fill="#505050"/>
<path d="M11.1441 4.03928C11.0478 4.03928 10.9635 4.00314 10.8912 3.93087C10.8269 3.85859 10.7868 3.77026 10.7707 3.66587L10.6141 2.78655L10.1805 3.03951C9.9396 3.18405 9.81914 3.25632 9.81914 3.25632C9.73081 3.30451 9.64248 3.3286 9.55414 3.3286C9.45778 3.3286 9.37748 3.30049 9.31324 3.24428C9.24899 3.18807 9.21687 3.11178 9.21687 3.01542C9.21687 2.95117 9.23293 2.88693 9.26505 2.82269C9.3052 2.75845 9.35339 2.70625 9.4096 2.6661L10.0841 2.12406C10.0119 2.07588 9.87937 2.0036 9.68664 1.90724L9.31324 1.70247C9.24096 1.66232 9.18074 1.61012 9.13255 1.54588C9.08437 1.47361 9.06028 1.39732 9.06028 1.31702C9.06028 1.22065 9.0924 1.14437 9.15664 1.08815C9.22089 1.03194 9.30119 1.00384 9.39755 1.00384C9.46982 1.00384 9.5421 1.01588 9.61437 1.03997L9.84323 1.13634L10.4214 1.35315C10.4054 1.08012 10.3973 0.883382 10.3973 0.762928L10.3853 0.473839C10.3853 0.353385 10.4174 0.248991 10.4816 0.160658C10.5459 0.0723252 10.6382 0.0241434 10.7587 0.0161133C10.855 0.0241434 10.9353 0.0683102 10.9996 0.148613C11.0719 0.220886 11.116 0.305203 11.1321 0.401566L11.2405 1.26883C11.3047 1.23671 11.4292 1.15641 11.6139 1.02793C11.7745 0.915503 11.895 0.8352 11.9753 0.787019C12.0636 0.722777 12.1559 0.690655 12.2523 0.690655C12.3487 0.690655 12.429 0.722777 12.4932 0.787019C12.5575 0.851261 12.5896 0.931564 12.5896 1.02793C12.5896 1.16444 12.5334 1.27687 12.4209 1.3652L11.7585 1.93133L12.0475 2.07588C12.2081 2.14012 12.3728 2.21641 12.5414 2.30474C12.6217 2.34489 12.6859 2.39709 12.7341 2.46133C12.7903 2.52557 12.8184 2.59383 12.8184 2.6661C12.8184 2.77852 12.7823 2.86686 12.71 2.9311C12.6458 2.98731 12.5534 3.01542 12.433 3.01542C12.4009 3.01542 12.3447 3.00739 12.2644 2.99133L11.9512 2.88292C11.7825 2.81065 11.6139 2.75042 11.4453 2.70224C11.4774 3.07966 11.4975 3.38481 11.5055 3.61769C11.5055 3.73011 11.4734 3.83049 11.4091 3.91882C11.3529 3.99912 11.2646 4.03928 11.1441 4.03928Z" fill="#505050"/>
</svg>
