<svg width="13" height="5" viewBox="0 0 13 5" fill="none" xmlns="http://www.w3.org/2000/svg">
<path d="M2.53356 4.84592C2.4372 4.84592 2.35288 4.80978 2.28061 4.73751C2.21636 4.66524 2.17621 4.5769 2.16015 4.47251L2.00356 3.5932L1.56993 3.84615C1.32902 3.99069 1.20857 4.06297 1.20857 4.06297C1.12023 4.11115 1.0319 4.13524 0.943568 4.13524C0.847205 4.13524 0.766902 4.10713 0.70266 4.05092C0.638418 3.99471 0.606297 3.91842 0.606297 3.82206C0.606297 3.75782 0.622358 3.69357 0.654479 3.62933C0.69463 3.56509 0.742812 3.51289 0.799023 3.47274L1.47357 2.9307C1.40129 2.88252 1.26879 2.81024 1.07607 2.71388L0.70266 2.50911C0.630388 2.46896 0.570161 2.41676 0.521979 2.35252C0.473798 2.28025 0.449707 2.20396 0.449707 2.12366C0.449707 2.02729 0.481828 1.95101 0.54607 1.89479C0.610312 1.83858 0.690615 1.81048 0.786978 1.81048C0.85925 1.81048 0.931523 1.82252 1.0038 1.84661L1.23266 1.94298L1.81084 2.15979C1.79478 1.88676 1.78675 1.69002 1.78675 1.56957L1.7747 1.28048C1.7747 1.16003 1.80682 1.05563 1.87106 0.967299C1.93531 0.878966 2.02765 0.830784 2.14811 0.822754C2.24447 0.830784 2.32477 0.874951 2.38902 0.955254C2.46129 1.02753 2.50545 1.11184 2.52151 1.20821L2.62992 2.07548C2.69417 2.04335 2.81863 1.96305 3.00333 1.83457C3.16394 1.72214 3.28439 1.64184 3.36469 1.59366C3.45303 1.52942 3.54537 1.4973 3.64174 1.4973C3.7381 1.4973 3.8184 1.52942 3.88264 1.59366C3.94689 1.6579 3.97901 1.7382 3.97901 1.83457C3.97901 1.97108 3.9228 2.08351 3.81037 2.17184L3.14788 2.73797L3.43696 2.88252C3.59757 2.94676 3.76219 3.02305 3.93083 3.11138C4.01113 3.15153 4.07537 3.20373 4.12355 3.26797C4.17976 3.33221 4.20787 3.40047 4.20787 3.47274C4.20787 3.58516 4.17173 3.6735 4.09946 3.73774C4.03522 3.79395 3.94287 3.82206 3.82242 3.82206C3.7903 3.82206 3.73408 3.81403 3.65378 3.79797L3.3406 3.68956C3.17197 3.61729 3.00333 3.55706 2.8347 3.50888C2.86682 3.8863 2.88689 4.19145 2.89492 4.42433C2.89492 4.53675 2.8628 4.63713 2.79856 4.72546C2.74235 4.80576 2.65401 4.84592 2.53356 4.84592Z" fill="#A3A5A7"/>
<path d="M6.83885 4.84592C6.74248 4.84592 6.65817 4.80978 6.58589 4.73751C6.52165 4.66524 6.4815 4.5769 6.46544 4.47251L6.30885 3.5932L5.87522 3.84615C5.63431 3.99069 5.51385 4.06297 5.51385 4.06297C5.42552 4.11115 5.33719 4.13524 5.24886 4.13524C5.15249 4.13524 5.07219 4.10713 5.00795 4.05092C4.94371 3.99471 4.91158 3.91842 4.91158 3.82206C4.91158 3.75782 4.92765 3.69357 4.95977 3.62933C4.99992 3.56509 5.0481 3.51289 5.10431 3.47274L5.77885 2.9307C5.70658 2.88252 5.57408 2.81024 5.38135 2.71388L5.00795 2.50911C4.93568 2.46896 4.87545 2.41676 4.82727 2.35252C4.77909 2.28025 4.75499 2.20396 4.75499 2.12366C4.75499 2.02729 4.78712 1.95101 4.85136 1.89479C4.9156 1.83858 4.9959 1.81048 5.09227 1.81048C5.16454 1.81048 5.23681 1.82252 5.30908 1.84661L5.53795 1.94298L6.11612 2.15979C6.10006 1.88676 6.09203 1.69002 6.09203 1.56957L6.07999 1.28048C6.07999 1.16003 6.11211 1.05563 6.17635 0.967299C6.24059 0.878966 6.33294 0.830784 6.45339 0.822754C6.54976 0.830784 6.63006 0.874951 6.6943 0.955254C6.76658 1.02753 6.81074 1.11184 6.8268 1.20821L6.93521 2.07548C6.99945 2.04335 7.12392 1.96305 7.30862 1.83457C7.46922 1.72214 7.58968 1.64184 7.66998 1.59366C7.75831 1.52942 7.85066 1.4973 7.94702 1.4973C8.04339 1.4973 8.12369 1.52942 8.18793 1.59366C8.25217 1.6579 8.2843 1.7382 8.2843 1.83457C8.2843 1.97108 8.22808 2.08351 8.11566 2.17184L7.45316 2.73797L7.74225 2.88252C7.90286 2.94676 8.06748 3.02305 8.23611 3.11138C8.31642 3.15153 8.38066 3.20373 8.42884 3.26797C8.48505 3.33221 8.51316 3.40047 8.51316 3.47274C8.51316 3.58516 8.47702 3.6735 8.40475 3.73774C8.34051 3.79395 8.24816 3.82206 8.12771 3.82206C8.09558 3.82206 8.03937 3.81403 7.95907 3.79797L7.64589 3.68956C7.47725 3.61729 7.30862 3.55706 7.13998 3.50888C7.1721 3.8863 7.19218 4.19145 7.20021 4.42433C7.20021 4.53675 7.16809 4.63713 7.10385 4.72546C7.04763 4.80576 6.9593 4.84592 6.83885 4.84592Z" fill="#A3A5A7"/>
<path d="M11.1441 4.84592C11.0478 4.84592 10.9635 4.80978 10.8912 4.73751C10.8269 4.66524 10.7868 4.5769 10.7707 4.47251L10.6141 3.5932L10.1805 3.84615C9.9396 3.99069 9.81914 4.06297 9.81914 4.06297C9.73081 4.11115 9.64248 4.13524 9.55414 4.13524C9.45778 4.13524 9.37748 4.10713 9.31324 4.05092C9.24899 3.99471 9.21687 3.91842 9.21687 3.82206C9.21687 3.75782 9.23293 3.69357 9.26505 3.62933C9.3052 3.56509 9.35339 3.51289 9.4096 3.47274L10.0841 2.9307C10.0119 2.88252 9.87937 2.81024 9.68664 2.71388L9.31324 2.50911C9.24096 2.46896 9.18074 2.41676 9.13255 2.35252C9.08437 2.28025 9.06028 2.20396 9.06028 2.12366C9.06028 2.02729 9.0924 1.95101 9.15664 1.89479C9.22089 1.83858 9.30119 1.81048 9.39755 1.81048C9.46982 1.81048 9.5421 1.82252 9.61437 1.84661L9.84323 1.94298L10.4214 2.15979C10.4054 1.88676 10.3973 1.69002 10.3973 1.56957L10.3853 1.28048C10.3853 1.16003 10.4174 1.05563 10.4816 0.967299C10.5459 0.878966 10.6382 0.830784 10.7587 0.822754C10.855 0.830784 10.9353 0.874951 10.9996 0.955254C11.0719 1.02753 11.116 1.11184 11.1321 1.20821L11.2405 2.07548C11.3047 2.04335 11.4292 1.96305 11.6139 1.83457C11.7745 1.72214 11.895 1.64184 11.9753 1.59366C12.0636 1.52942 12.1559 1.4973 12.2523 1.4973C12.3487 1.4973 12.429 1.52942 12.4932 1.59366C12.5575 1.6579 12.5896 1.7382 12.5896 1.83457C12.5896 1.97108 12.5334 2.08351 12.4209 2.17184L11.7585 2.73797L12.0475 2.88252C12.2081 2.94676 12.3728 3.02305 12.5414 3.11138C12.6217 3.15153 12.6859 3.20373 12.7341 3.26797C12.7903 3.33221 12.8184 3.40047 12.8184 3.47274C12.8184 3.58516 12.7823 3.6735 12.71 3.73774C12.6458 3.79395 12.5534 3.82206 12.433 3.82206C12.4009 3.82206 12.3447 3.81403 12.2644 3.79797L11.9512 3.68956C11.7825 3.61729 11.6139 3.55706 11.4453 3.50888C11.4774 3.8863 11.4975 4.19145 11.5055 4.42433C11.5055 4.53675 11.4734 4.63713 11.4091 4.72546C11.3529 4.80576 11.2646 4.84592 11.1441 4.84592Z" fill="#A3A5A7"/>
</svg>
