<svg width="14" height="19" viewBox="0 0 14 19" fill="none" xmlns="http://www.w3.org/2000/svg">
<path d="M2.48327 17.7496L1.3463 4.58154H12.6933L11.4666 17.7529C11.4426 18.01 11.2269 18.2065 10.9687 18.2065H2.98142C2.72195 18.2065 2.50559 18.0081 2.48327 17.7496Z" stroke="#ffffff"/>
<path fill-rule="evenodd" clip-rule="evenodd" d="M6.39912 14.344L6.39912 7.64734L7.71338 7.64734L7.71338 14.344L6.39912 14.344Z" fill="#ffffff"/>
<path fill-rule="evenodd" clip-rule="evenodd" d="M0.801354 2.42761C0.801354 2.24535 0.949099 2.09761 1.13135 2.09761L12.9132 2.09761C13.0954 2.09761 13.2432 2.24535 13.2432 2.42761L13.2432 3.41187L0.801353 3.41186L0.801354 2.42761Z" fill="#ffffff"/>
<path fill-rule="evenodd" clip-rule="evenodd" d="M5.74952 1.2085C5.74952 1.09804 5.83907 1.0085 5.94952 1.0085L8.0959 1.0085C8.20636 1.0085 8.2959 1.09804 8.2959 1.2085L8.2959 2.12275C8.2959 2.23321 8.20636 2.32275 8.0959 2.32275L5.94952 2.32275C5.83907 2.32275 5.74952 2.23321 5.74952 2.12275L5.74952 1.2085Z" stroke="#ffffff" stroke-width="0.7"/>
<path fill-rule="evenodd" clip-rule="evenodd" d="M4.32213 14.3439L3.86297 7.66305L5.1731 7.66304L5.6333 14.3439L4.32213 14.3439Z" fill="#ffffff"/>
<path fill-rule="evenodd" clip-rule="evenodd" d="M9.72211 14.336L10.1813 7.65511L8.87524 7.65511L8.41113 14.336L9.72211 14.336Z" fill="#ffffff"/>
</svg>
