<svg width="14" height="19" viewBox="0 0 14 19" fill="none" xmlns="http://www.w3.org/2000/svg">
<path d="M2.48376 17.6228L1.34679 4.45483H12.6938L11.4671 17.6262C11.4431 17.8833 11.2274 18.0798 10.9692 18.0798H2.98191C2.72243 18.0798 2.50608 17.8814 2.48376 17.6228Z" stroke="white"/>
<path fill-rule="evenodd" clip-rule="evenodd" d="M6.39961 14.2172L6.39961 7.52063L7.71387 7.52063L7.71387 14.2172L6.39961 14.2172Z" fill="white"/>
<path fill-rule="evenodd" clip-rule="evenodd" d="M0.801842 2.3009C0.801842 2.11864 0.949587 1.9709 1.13184 1.9709L12.9137 1.9709C13.0959 1.9709 13.2437 2.11864 13.2437 2.3009L13.2437 3.28516L0.801842 3.28516L0.801842 2.3009Z" fill="white"/>
<path fill-rule="evenodd" clip-rule="evenodd" d="M5.75001 1.08179C5.75001 0.97133 5.83955 0.881787 5.95001 0.881787L8.09639 0.881787C8.20684 0.881787 8.29639 0.97133 8.29639 1.08179L8.29639 1.99604C8.29639 2.1065 8.20684 2.19604 8.09639 2.19604L5.95001 2.19604C5.83955 2.19604 5.75001 2.1065 5.75001 1.99604L5.75001 1.08179Z" stroke="white" stroke-width="0.7"/>
<path fill-rule="evenodd" clip-rule="evenodd" d="M4.32262 14.2172L3.86346 7.53635L5.17359 7.53633L5.63379 14.2172L4.32262 14.2172Z" fill="white"/>
<path fill-rule="evenodd" clip-rule="evenodd" d="M9.72259 14.2093L10.1818 7.5284L8.87573 7.5284L8.41162 14.2093L9.72259 14.2093Z" fill="white"/>
</svg>
