<svg width="14" height="19" viewBox="0 0 14 19" fill="none" xmlns="http://www.w3.org/2000/svg">
<path d="M2.48376 17.9429L1.34679 4.7749H12.6938L11.4671 17.9463C11.4431 18.2033 11.2274 18.3999 10.9692 18.3999H2.98191C2.72243 18.3999 2.50608 18.2014 2.48376 17.9429Z" stroke="#505050"/>
<path fill-rule="evenodd" clip-rule="evenodd" d="M6.39961 14.5373L6.39961 7.8407L7.71387 7.8407L7.71387 14.5373L6.39961 14.5373Z" fill="#505050"/>
<path fill-rule="evenodd" clip-rule="evenodd" d="M0.801842 2.62097C0.801842 2.43871 0.949587 2.29097 1.13184 2.29097L12.9137 2.29097C13.0959 2.29097 13.2437 2.43871 13.2437 2.62097L13.2437 3.60522L0.801842 3.60522L0.801842 2.62097Z" fill="#505050"/>
<path fill-rule="evenodd" clip-rule="evenodd" d="M5.75001 1.40186C5.75001 1.2914 5.83955 1.20186 5.95001 1.20186L8.09639 1.20186C8.20684 1.20186 8.29639 1.2914 8.29639 1.40186L8.29639 2.31611C8.29639 2.42657 8.20684 2.51611 8.09639 2.51611L5.95001 2.51611C5.83955 2.51611 5.75001 2.42657 5.75001 2.31611L5.75001 1.40186Z" stroke="#505050" stroke-width="0.7"/>
<path fill-rule="evenodd" clip-rule="evenodd" d="M4.32262 14.5373L3.86346 7.85641L5.17359 7.8564L5.63379 14.5373L4.32262 14.5373Z" fill="#505050"/>
<path fill-rule="evenodd" clip-rule="evenodd" d="M9.72259 14.5293L10.1818 7.84847L8.87573 7.84847L8.41162 14.5294L9.72259 14.5293Z" fill="#505050"/>
</svg>
