<svg width="13" height="16" viewBox="0 0 13 16" fill="none" xmlns="http://www.w3.org/2000/svg">
<path d="M12.9306 7.8177C12.9306 7.00051 12.5649 6.26849 11.9903 5.77203C11.8453 2.96561 9.49153 0.70813 6.65682 0.70813C3.82548 0.70813 1.4717 2.96575 1.32674 5.77232C0.752289 6.26864 0.386719 7.00066 0.386719 7.8177C0.386719 9.30959 1.60025 10.5231 3.09185 10.5231C3.28123 10.5231 3.43485 10.3697 3.43485 10.18L3.435 5.45571C3.435 5.36454 3.39894 5.27747 3.33459 5.21312C3.27024 5.14877 3.18288 5.11256 3.092 5.11256C2.72789 5.11256 2.38094 5.18585 2.06359 5.31675C2.4192 3.10413 4.35698 1.39427 6.66034 1.39427C8.96047 1.39427 10.898 3.10413 11.2536 5.31675C10.9362 5.18585 10.5894 5.11256 10.2255 5.11256C10.0361 5.11256 9.88246 5.26603 9.88246 5.45571V10.18C9.88246 10.3697 10.0361 10.5231 10.2255 10.5231C10.59 10.5231 10.9375 10.4497 11.2552 10.3184C10.9654 12.1342 9.61026 13.6377 7.80982 14.0941C7.60314 13.7093 7.16604 13.4409 6.65697 13.4409C5.95001 13.4409 5.37498 13.9543 5.37498 14.5851C5.37498 15.216 5.95001 15.7294 6.65697 15.7294C7.29181 15.7294 7.81656 15.3142 7.91756 14.7726C10.1985 14.2228 11.872 12.2135 11.9916 9.86249C12.5655 9.36588 12.9306 8.63429 12.9306 7.8177ZM2.74871 9.80781C1.79843 9.64438 1.07286 8.81415 1.07286 7.8177C1.07286 6.82125 1.79843 5.99131 2.74885 5.82787L2.74871 9.80781ZM6.65697 15.0432C6.32848 15.0432 6.06112 14.8377 6.06112 14.5851C6.06112 14.3326 6.32848 14.1271 6.65697 14.1271C6.98546 14.1271 7.25267 14.3326 7.25267 14.5851C7.25267 14.8377 6.98546 15.0432 6.65697 15.0432ZM10.5686 5.82787C11.5189 5.99131 12.2445 6.82125 12.2445 7.8177C12.2445 8.81415 11.5189 9.64438 10.5686 9.80781V5.82787Z" fill="#858585"/>
</svg>
