<svg width="13" height="13" viewBox="0 0 13 13" fill="none" xmlns="http://www.w3.org/2000/svg">
<path d="M11.9989 6.2188H7.25444C7.04768 6.2188 6.87988 6.051 6.87988 5.84424C6.87988 5.63748 7.04768 5.46968 7.25444 5.46968H11.9989C12.2056 5.46968 12.3734 5.63748 12.3734 5.84424C12.3734 6.051 12.2056 6.2188 11.9989 6.2188Z" fill="#858585"/>
<path d="M10.1245 8.09159C10.0285 8.09159 9.93271 8.05511 9.85973 7.98177C9.71342 7.83536 9.71342 7.59816 9.85973 7.45184L11.4679 5.84378L9.85973 4.23563C9.71342 4.08932 9.71342 3.85211 9.85973 3.7058C10.0061 3.55939 10.2433 3.55939 10.3897 3.7058L12.2625 5.57859C12.4088 5.7249 12.4088 5.96211 12.2625 6.10842L10.3897 7.98122C10.3162 8.05511 10.2204 8.09159 10.1245 8.09159Z" fill="#858585"/>
<path d="M4.38205 12.5863C4.27515 12.5863 4.17373 12.5713 4.07241 12.5399L1.06689 11.5385C0.657945 11.3957 0.386719 11.0146 0.386719 10.5887V1.59927C0.386719 1.04841 0.834708 0.600418 1.38557 0.600418C1.49238 0.600418 1.59379 0.615415 1.69521 0.646872L4.70064 1.6482C5.10967 1.79103 5.38081 2.17208 5.38081 2.59804V11.5875C5.38081 12.1383 4.93291 12.5863 4.38205 12.5863ZM1.38557 1.34954C1.24822 1.34954 1.13584 1.46192 1.13584 1.59927V10.5887C1.13584 10.695 1.20726 10.7939 1.30913 10.8294L4.30057 11.8262C4.32206 11.8332 4.35004 11.8372 4.38205 11.8372C4.5194 11.8372 4.63169 11.7248 4.63169 11.5875V2.59804C4.63169 2.49169 4.56027 2.39283 4.4584 2.35735L1.46696 1.36051C1.44547 1.35356 1.41749 1.34954 1.38557 1.34954Z" fill="#858585"/>
<path d="M8.00147 4.59575C7.79472 4.59575 7.62691 4.42794 7.62691 4.22119V1.97383C7.62691 1.62972 7.34682 1.34954 7.00271 1.34954H1.38432C1.17757 1.34954 1.00977 1.18173 1.00977 0.974977C1.00977 0.76822 1.17757 0.600418 1.38432 0.600418H7.00271C7.76033 0.600418 8.37603 1.21621 8.37603 1.97383V4.22119C8.37603 4.42794 8.20823 4.59575 8.00147 4.59575Z" fill="#858585"/>
<path d="M7.0041 11.0881H5.00639C4.79964 11.0881 4.63184 10.9203 4.63184 10.7135C4.63184 10.5068 4.79964 10.339 5.00639 10.339H7.0041C7.34821 10.339 7.62831 10.0588 7.62831 9.71466V7.4673C7.62831 7.26054 7.79611 7.09274 8.00287 7.09274C8.20962 7.09274 8.37743 7.26054 8.37743 7.4673V9.71466C8.37743 10.4723 7.76173 11.0881 7.0041 11.0881Z" fill="#858585"/>
</svg>
