<svg width="18" height="19" viewBox="0 0 18 19" fill="none" xmlns="http://www.w3.org/2000/svg">
<path fill-rule="evenodd" clip-rule="evenodd" d="M10.9828 4.38755C10.0577 5.73091 8.07362 5.73091 7.14847 4.38755C6.56695 3.54315 5.27035 4.29176 5.71086 5.21755C6.41167 6.69043 5.41962 8.4087 3.79367 8.53822C2.77165 8.61964 2.77164 10.1168 3.79367 10.1982C5.41962 10.3278 6.41167 12.046 5.71086 13.5189C5.27035 14.4447 6.56695 15.1933 7.14847 14.3489C8.07361 13.0055 10.0577 13.0055 10.9828 14.3489C11.5644 15.1933 12.861 14.4447 12.4205 13.5189C11.7196 12.046 12.7117 10.3278 14.3376 10.1982C15.3597 10.1168 15.3597 8.61964 14.3376 8.53822C12.7117 8.4087 11.7196 6.69043 12.4205 5.21755C12.861 4.29175 11.5644 3.54316 10.9828 4.38755ZM13.0955 5.53877C13.9316 3.7817 11.4708 2.36096 10.3671 3.96351C9.7391 4.87544 8.39222 4.87544 7.76419 3.96351C6.66054 2.36095 4.19974 3.78169 5.03577 5.53876C5.51151 6.53862 4.83807 7.70505 3.7343 7.79298C1.79462 7.94749 1.79462 10.789 3.7343 10.9435C4.83807 11.0314 5.51151 12.1978 5.03577 13.1977C4.19974 14.9548 6.66054 16.3755 7.76419 14.7729C8.39222 13.861 9.7391 13.861 10.3671 14.7729C11.4708 16.3755 13.9316 14.9548 13.0955 13.1977C12.6198 12.1978 13.2932 11.0314 14.397 10.9435C16.3367 10.789 16.3367 7.94749 14.397 7.79297C13.2932 7.70505 12.6198 6.53862 13.0955 5.53877Z" fill="#858585"/>
<circle cx="9.06531" cy="9.36823" r="1.90281" stroke="#858585" stroke-width="0.7"/>
</svg>
